SplineFontDB: 3.2
FontName: LucidaTypewriter25
FullName: Lucida Typewriter 25
FamilyName: Lucida Typewriter 25
Weight: Book
Copyright: Copyright Bigelow & Holmes 1986, 1985.
UComments: "2020-2-14: Created with FontForge (http://fontforge.org)"
Version: 001.000
ItalicAngle: 0
UnderlinePosition: -100
UnderlineWidth: 50
Ascent: 958
Descent: 42
InvalidEm: 0
LayerCount: 2
Layer: 0 0 "Back" 1
Layer: 1 0 "Fore" 0
XUID: [1021 774 -2037795374 11701976]
StyleMap: 0x0040
FSType: 0
OS2Version: 0
OS2_WeightWidthSlopeOnly: 0
OS2_UseTypoMetrics: 1
CreationTime: 1581721199
ModificationTime: 1581721203
PfmFamily: 48
TTFWeight: 400
TTFWidth: 5
LineGap: 90
VLineGap: 90
Panose: 2 0 6 9 0 0 0 0 0 0
OS2TypoAscent: 0
OS2TypoAOffset: 1
OS2TypoDescent: 0
OS2TypoDOffset: 1
OS2TypoLinegap: 90
OS2WinAscent: 0
OS2WinAOffset: 1
OS2WinDescent: 0
OS2WinDOffset: 1
HheadAscent: 0
HheadAOffset: 1
HheadDescent: 0
HheadDOffset: 1
OS2SubXSize: 650
OS2SubYSize: 700
OS2SubXOff: 0
OS2SubYOff: 140
OS2SupXSize: 650
OS2SupYSize: 700
OS2SupXOff: 0
OS2SupYOff: 480
OS2StrikeYSize: 49
OS2StrikeYPos: 258
OS2Vendor: 'PfEd'
DEI: 91125
Encoding: UnicodeBmp
UnicodeInterp: none
NameList: AGL For New Fonts
DisplaySize: 25
AntiAlias: 1
FitToEm: 0
BeginChars: 65536 873

StartChar: char0
Encoding: 0 0 0
Width: 916
VWidth: 0
Flags: HW
LayerCount: 2
Back
Fore
SplineSet
83.3330078125 666.666992188 m 1
 125 666.666992188 l 1
 125 708.333007812 l 1
 83.3330078125 708.333007812 l 1
 83.3330078125 666.666992188 l 1025
166.666992188 666.666992188 m 1
 208.333007812 666.666992188 l 1
 208.333007812 708.333007812 l 1
 166.666992188 708.333007812 l 1
 166.666992188 666.666992188 l 1025
250 666.666992188 m 1
 291.666992188 666.666992188 l 1
 291.666992188 708.333007812 l 1
 250 708.333007812 l 1
 250 666.666992188 l 1025
333.333007812 666.666992188 m 1
 375 666.666992188 l 1
 375 708.333007812 l 1
 333.333007812 708.333007812 l 1
 333.333007812 666.666992188 l 1025
416.666992188 666.666992188 m 1
 458.333007812 666.666992188 l 1
 458.333007812 708.333007812 l 1
 416.666992188 708.333007812 l 1
 416.666992188 666.666992188 l 1025
500 666.666992188 m 1
 541.666992188 666.666992188 l 1
 541.666992188 708.333007812 l 1
 500 708.333007812 l 1
 500 666.666992188 l 1025
83.3330078125 583.333007812 m 1
 125 583.333007812 l 1
 125 625 l 1
 83.3330078125 625 l 1
 83.3330078125 583.333007812 l 1025
500 583.333007812 m 1
 541.666992188 583.333007812 l 1
 541.666992188 625 l 1
 500 625 l 1
 500 583.333007812 l 1025
83.3330078125 500 m 1
 125 500 l 1
 125 541.666992188 l 1
 83.3330078125 541.666992188 l 1
 83.3330078125 500 l 1025
500 500 m 1
 541.666992188 500 l 1
 541.666992188 541.666992188 l 1
 500 541.666992188 l 1
 500 500 l 1025
83.3330078125 416.666992188 m 1
 125 416.666992188 l 1
 125 458.333007812 l 1
 83.3330078125 458.333007812 l 1
 83.3330078125 416.666992188 l 1025
500 416.666992188 m 1
 541.666992188 416.666992188 l 1
 541.666992188 458.333007812 l 1
 500 458.333007812 l 1
 500 416.666992188 l 1025
83.3330078125 333.333007812 m 1
 125 333.333007812 l 1
 125 375 l 1
 83.3330078125 375 l 1
 83.3330078125 333.333007812 l 1025
500 333.333007812 m 1
 541.666992188 333.333007812 l 1
 541.666992188 375 l 1
 500 375 l 1
 500 333.333007812 l 1025
83.3330078125 250 m 1
 125 250 l 1
 125 291.666992188 l 1
 83.3330078125 291.666992188 l 1
 83.3330078125 250 l 1025
500 250 m 1
 541.666992188 250 l 1
 541.666992188 291.666992188 l 1
 500 291.666992188 l 1
 500 250 l 1025
83.3330078125 166.666992188 m 1
 125 166.666992188 l 1
 125 208.333007812 l 1
 83.3330078125 208.333007812 l 1
 83.3330078125 166.666992188 l 1025
500 166.666992188 m 1
 541.666992188 166.666992188 l 1
 541.666992188 208.333007812 l 1
 500 208.333007812 l 1
 500 166.666992188 l 1025
83.3330078125 83.3330078125 m 1
 125 83.3330078125 l 1
 125 125 l 1
 83.3330078125 125 l 1
 83.3330078125 83.3330078125 l 1025
500 83.3330078125 m 1
 541.666992188 83.3330078125 l 1
 541.666992188 125 l 1
 500 125 l 1
 500 83.3330078125 l 1025
83.3330078125 0 m 1
 125 0 l 1
 125 41.6669921875 l 1
 83.3330078125 41.6669921875 l 1
 83.3330078125 0 l 1025
166.666992188 0 m 1
 208.333007812 0 l 1
 208.333007812 41.6669921875 l 1
 166.666992188 41.6669921875 l 1
 166.666992188 0 l 1025
250 0 m 1
 291.666992188 0 l 1
 291.666992188 41.6669921875 l 1
 250 41.6669921875 l 1
 250 0 l 1025
333.333007812 0 m 1
 375 0 l 1
 375 41.6669921875 l 1
 333.333007812 41.6669921875 l 1
 333.333007812 0 l 1025
416.666992188 0 m 1
 458.333007812 0 l 1
 458.333007812 41.6669921875 l 1
 416.666992188 41.6669921875 l 1
 416.666992188 0 l 1025
500 0 m 1
 541.666992188 0 l 1
 541.666992188 41.6669921875 l 1
 500 41.6669921875 l 1
 500 0 l 1
EndSplineSet
EndChar

StartChar: exclam
Encoding: 33 33 2
Width: 916
VWidth: 0
Flags: HW
LayerCount: 2
Back
Fore
SplineSet
250 708.333007812 m 1
 375 708.333007812 l 1
 375 750 l 1
 250 750 l 1
 250 708.333007812 l 1025
250 666.666992188 m 1
 375 666.666992188 l 1
 375 708.333007812 l 1
 250 708.333007812 l 1
 250 666.666992188 l 1025
250 625 m 1
 375 625 l 1
 375 666.666992188 l 1
 250 666.666992188 l 1
 250 625 l 1025
250 583.333007812 m 1
 375 583.333007812 l 1
 375 625 l 1
 250 625 l 1
 250 583.333007812 l 1025
250 541.666992188 m 1
 375 541.666992188 l 1
 375 583.333007812 l 1
 250 583.333007812 l 1
 250 541.666992188 l 1025
250 500 m 1
 375 500 l 1
 375 541.666992188 l 1
 250 541.666992188 l 1
 250 500 l 1025
250 458.333007812 m 1
 375 458.333007812 l 1
 375 500 l 1
 250 500 l 1
 250 458.333007812 l 1025
250 416.666992188 m 1
 375 416.666992188 l 1
 375 458.333007812 l 1
 250 458.333007812 l 1
 250 416.666992188 l 1025
250 375 m 1
 333.333007812 375 l 1
 333.333007812 416.666992188 l 1
 250 416.666992188 l 1
 250 375 l 1025
250 333.333007812 m 1
 333.333007812 333.333007812 l 1
 333.333007812 375 l 1
 250 375 l 1
 250 333.333007812 l 1025
250 291.666992188 m 1
 333.333007812 291.666992188 l 1
 333.333007812 333.333007812 l 1
 250 333.333007812 l 1
 250 291.666992188 l 1025
250 250 m 1
 333.333007812 250 l 1
 333.333007812 291.666992188 l 1
 250 291.666992188 l 1
 250 250 l 1025
250 208.333007812 m 1
 333.333007812 208.333007812 l 1
 333.333007812 250 l 1
 250 250 l 1
 250 208.333007812 l 1025
208.333007812 83.3330078125 m 1
 375 83.3330078125 l 1
 375 125 l 1
 208.333007812 125 l 1
 208.333007812 83.3330078125 l 1025
208.333007812 41.6669921875 m 1
 375 41.6669921875 l 1
 375 83.3330078125 l 1
 208.333007812 83.3330078125 l 1
 208.333007812 41.6669921875 l 1025
208.333007812 0 m 1
 375 0 l 1
 375 41.6669921875 l 1
 208.333007812 41.6669921875 l 1
 208.333007812 0 l 1
EndSplineSet
EndChar

StartChar: quotedbl
Encoding: 34 34 3
Width: 916
VWidth: 0
Flags: HW
LayerCount: 2
Back
Fore
SplineSet
125 708.333007812 m 1
 250 708.333007812 l 1
 250 750 l 1
 125 750 l 1
 125 708.333007812 l 1025
416.666992188 708.333007812 m 1
 541.666992188 708.333007812 l 1
 541.666992188 750 l 1
 416.666992188 750 l 1
 416.666992188 708.333007812 l 1025
125 666.666992188 m 1
 250 666.666992188 l 1
 250 708.333007812 l 1
 125 708.333007812 l 1
 125 666.666992188 l 1025
416.666992188 666.666992188 m 1
 541.666992188 666.666992188 l 1
 541.666992188 708.333007812 l 1
 416.666992188 708.333007812 l 1
 416.666992188 666.666992188 l 1025
125 625 m 1
 250 625 l 1
 250 666.666992188 l 1
 125 666.666992188 l 1
 125 625 l 1025
416.666992188 625 m 1
 541.666992188 625 l 1
 541.666992188 666.666992188 l 1
 416.666992188 666.666992188 l 1
 416.666992188 625 l 1025
166.666992188 583.333007812 m 1
 250 583.333007812 l 1
 250 625 l 1
 166.666992188 625 l 1
 166.666992188 583.333007812 l 1025
416.666992188 583.333007812 m 1
 500 583.333007812 l 1
 500 625 l 1
 416.666992188 625 l 1
 416.666992188 583.333007812 l 1025
166.666992188 541.666992188 m 1
 250 541.666992188 l 1
 250 583.333007812 l 1
 166.666992188 583.333007812 l 1
 166.666992188 541.666992188 l 1025
416.666992188 541.666992188 m 1
 500 541.666992188 l 1
 500 583.333007812 l 1
 416.666992188 583.333007812 l 1
 416.666992188 541.666992188 l 1025
166.666992188 500 m 1
 250 500 l 1
 250 541.666992188 l 1
 166.666992188 541.666992188 l 1
 166.666992188 500 l 1025
416.666992188 500 m 1
 500 500 l 1
 500 541.666992188 l 1
 416.666992188 541.666992188 l 1
 416.666992188 500 l 1
EndSplineSet
EndChar

StartChar: numbersign
Encoding: 35 35 4
Width: 916
VWidth: 0
Flags: HW
LayerCount: 2
Back
Fore
SplineSet
291.666992188 708.333007812 m 1
 375 708.333007812 l 1
 375 750 l 1
 291.666992188 750 l 1
 291.666992188 708.333007812 l 1025
458.333007812 708.333007812 m 1
 583.333007812 708.333007812 l 1
 583.333007812 750 l 1
 458.333007812 750 l 1
 458.333007812 708.333007812 l 1025
250 666.666992188 m 1
 375 666.666992188 l 1
 375 708.333007812 l 1
 250 708.333007812 l 1
 250 666.666992188 l 1025
458.333007812 666.666992188 m 1
 541.666992188 666.666992188 l 1
 541.666992188 708.333007812 l 1
 458.333007812 708.333007812 l 1
 458.333007812 666.666992188 l 1025
250 625 m 1
 333.333007812 625 l 1
 333.333007812 666.666992188 l 1
 250 666.666992188 l 1
 250 625 l 1025
458.333007812 625 m 1
 541.666992188 625 l 1
 541.666992188 666.666992188 l 1
 458.333007812 666.666992188 l 1
 458.333007812 625 l 1025
250 583.333007812 m 1
 333.333007812 583.333007812 l 1
 333.333007812 625 l 1
 250 625 l 1
 250 583.333007812 l 1025
458.333007812 583.333007812 m 1
 541.666992188 583.333007812 l 1
 541.666992188 625 l 1
 458.333007812 625 l 1
 458.333007812 583.333007812 l 1025
250 541.666992188 m 1
 333.333007812 541.666992188 l 1
 333.333007812 583.333007812 l 1
 250 583.333007812 l 1
 250 541.666992188 l 1025
416.666992188 541.666992188 m 1
 500 541.666992188 l 1
 500 583.333007812 l 1
 416.666992188 583.333007812 l 1
 416.666992188 541.666992188 l 1025
83.3330078125 500 m 1
 625 500 l 1
 625 541.666992188 l 1
 83.3330078125 541.666992188 l 1
 83.3330078125 500 l 1025
83.3330078125 458.333007812 m 1
 625 458.333007812 l 1
 625 500 l 1
 83.3330078125 500 l 1
 83.3330078125 458.333007812 l 1025
208.333007812 416.666992188 m 1
 291.666992188 416.666992188 l 1
 291.666992188 458.333007812 l 1
 208.333007812 458.333007812 l 1
 208.333007812 416.666992188 l 1025
416.666992188 416.666992188 m 1
 500 416.666992188 l 1
 500 458.333007812 l 1
 416.666992188 458.333007812 l 1
 416.666992188 416.666992188 l 1025
208.333007812 375 m 1
 291.666992188 375 l 1
 291.666992188 416.666992188 l 1
 208.333007812 416.666992188 l 1
 208.333007812 375 l 1025
375 375 m 1
 458.333007812 375 l 1
 458.333007812 416.666992188 l 1
 375 416.666992188 l 1
 375 375 l 1025
166.666992188 333.333007812 m 1
 250 333.333007812 l 1
 250 375 l 1
 166.666992188 375 l 1
 166.666992188 333.333007812 l 1025
375 333.333007812 m 1
 458.333007812 333.333007812 l 1
 458.333007812 375 l 1
 375 375 l 1
 375 333.333007812 l 1025
41.6669921875 291.666992188 m 1
 583.333007812 291.666992188 l 1
 583.333007812 333.333007812 l 1
 41.6669921875 333.333007812 l 1
 41.6669921875 291.666992188 l 1025
41.6669921875 250 m 1
 583.333007812 250 l 1
 583.333007812 291.666992188 l 1
 41.6669921875 291.666992188 l 1
 41.6669921875 250 l 1025
166.666992188 208.333007812 m 1
 250 208.333007812 l 1
 250 250 l 1
 166.666992188 250 l 1
 166.666992188 208.333007812 l 1025
333.333007812 208.333007812 m 1
 416.666992188 208.333007812 l 1
 416.666992188 250 l 1
 333.333007812 250 l 1
 333.333007812 208.333007812 l 1025
125 166.666992188 m 1
 208.333007812 166.666992188 l 1
 208.333007812 208.333007812 l 1
 125 208.333007812 l 1
 125 166.666992188 l 1025
333.333007812 166.666992188 m 1
 416.666992188 166.666992188 l 1
 416.666992188 208.333007812 l 1
 333.333007812 208.333007812 l 1
 333.333007812 166.666992188 l 1025
125 125 m 1
 208.333007812 125 l 1
 208.333007812 166.666992188 l 1
 125 166.666992188 l 1
 125 125 l 1025
333.333007812 125 m 1
 416.666992188 125 l 1
 416.666992188 166.666992188 l 1
 333.333007812 166.666992188 l 1
 333.333007812 125 l 1025
125 83.3330078125 m 1
 208.333007812 83.3330078125 l 1
 208.333007812 125 l 1
 125 125 l 1
 125 83.3330078125 l 1025
333.333007812 83.3330078125 m 1
 416.666992188 83.3330078125 l 1
 416.666992188 125 l 1
 333.333007812 125 l 1
 333.333007812 83.3330078125 l 1025
125 41.6669921875 m 1
 208.333007812 41.6669921875 l 1
 208.333007812 83.3330078125 l 1
 125 83.3330078125 l 1
 125 41.6669921875 l 1025
291.666992188 41.6669921875 m 1
 375 41.6669921875 l 1
 375 83.3330078125 l 1
 291.666992188 83.3330078125 l 1
 291.666992188 41.6669921875 l 1025
83.3330078125 0 m 1
 208.333007812 0 l 1
 208.333007812 41.6669921875 l 1
 83.3330078125 41.6669921875 l 1
 83.3330078125 0 l 1025
291.666992188 0 m 1
 375 0 l 1
 375 41.6669921875 l 1
 291.666992188 41.6669921875 l 1
 291.666992188 0 l 1
EndSplineSet
EndChar

StartChar: dollar
Encoding: 36 36 5
Width: 916
VWidth: 0
Flags: HW
LayerCount: 2
Back
Fore
SplineSet
291.666992188 750 m 1
 375 750 l 1
 375 791.666992188 l 1
 291.666992188 791.666992188 l 1
 291.666992188 750 l 1025
208.333007812 708.333007812 m 1
 500 708.333007812 l 1
 500 750 l 1
 208.333007812 750 l 1
 208.333007812 708.333007812 l 1025
166.666992188 666.666992188 m 1
 541.666992188 666.666992188 l 1
 541.666992188 708.333007812 l 1
 166.666992188 708.333007812 l 1
 166.666992188 666.666992188 l 1025
125 625 m 1
 250 625 l 1
 250 666.666992188 l 1
 125 666.666992188 l 1
 125 625 l 1025
291.666992188 625 m 1
 375 625 l 1
 375 666.666992188 l 1
 291.666992188 666.666992188 l 1
 291.666992188 625 l 1025
125 583.333007812 m 1
 250 583.333007812 l 1
 250 625 l 1
 125 625 l 1
 125 583.333007812 l 1025
291.666992188 583.333007812 m 1
 375 583.333007812 l 1
 375 625 l 1
 291.666992188 625 l 1
 291.666992188 583.333007812 l 1025
125 541.666992188 m 1
 250 541.666992188 l 1
 250 583.333007812 l 1
 125 583.333007812 l 1
 125 541.666992188 l 1025
291.666992188 541.666992188 m 1
 375 541.666992188 l 1
 375 583.333007812 l 1
 291.666992188 583.333007812 l 1
 291.666992188 541.666992188 l 1025
125 500 m 1
 250 500 l 1
 250 541.666992188 l 1
 125 541.666992188 l 1
 125 500 l 1025
291.666992188 500 m 1
 375 500 l 1
 375 541.666992188 l 1
 291.666992188 541.666992188 l 1
 291.666992188 500 l 1025
166.666992188 458.333007812 m 1
 375 458.333007812 l 1
 375 500 l 1
 166.666992188 500 l 1
 166.666992188 458.333007812 l 1025
208.333007812 416.666992188 m 1
 375 416.666992188 l 1
 375 458.333007812 l 1
 208.333007812 458.333007812 l 1
 208.333007812 416.666992188 l 1025
250 375 m 1
 375 375 l 1
 375 416.666992188 l 1
 250 416.666992188 l 1
 250 375 l 1025
291.666992188 333.333007812 m 1
 458.333007812 333.333007812 l 1
 458.333007812 375 l 1
 291.666992188 375 l 1
 291.666992188 333.333007812 l 1025
291.666992188 291.666992188 m 1
 500 291.666992188 l 1
 500 333.333007812 l 1
 291.666992188 333.333007812 l 1
 291.666992188 291.666992188 l 1025
291.666992188 250 m 1
 375 250 l 1
 375 291.666992188 l 1
 291.666992188 291.666992188 l 1
 291.666992188 250 l 1025
416.666992188 250 m 1
 541.666992188 250 l 1
 541.666992188 291.666992188 l 1
 416.666992188 291.666992188 l 1
 416.666992188 250 l 1025
291.666992188 208.333007812 m 1
 375 208.333007812 l 1
 375 250 l 1
 291.666992188 250 l 1
 291.666992188 208.333007812 l 1025
416.666992188 208.333007812 m 1
 541.666992188 208.333007812 l 1
 541.666992188 250 l 1
 416.666992188 250 l 1
 416.666992188 208.333007812 l 1025
291.666992188 166.666992188 m 1
 375 166.666992188 l 1
 375 208.333007812 l 1
 291.666992188 208.333007812 l 1
 291.666992188 166.666992188 l 1025
416.666992188 166.666992188 m 1
 541.666992188 166.666992188 l 1
 541.666992188 208.333007812 l 1
 416.666992188 208.333007812 l 1
 416.666992188 166.666992188 l 1025
291.666992188 125 m 1
 375 125 l 1
 375 166.666992188 l 1
 291.666992188 166.666992188 l 1
 291.666992188 125 l 1025
416.666992188 125 m 1
 541.666992188 125 l 1
 541.666992188 166.666992188 l 1
 416.666992188 166.666992188 l 1
 416.666992188 125 l 1025
125 83.3330078125 m 1
 166.666992188 83.3330078125 l 1
 166.666992188 125 l 1
 125 125 l 1
 125 83.3330078125 l 1025
291.666992188 83.3330078125 m 1
 375 83.3330078125 l 1
 375 125 l 1
 291.666992188 125 l 1
 291.666992188 83.3330078125 l 1025
416.666992188 83.3330078125 m 1
 500 83.3330078125 l 1
 500 125 l 1
 416.666992188 125 l 1
 416.666992188 83.3330078125 l 1025
125 41.6669921875 m 1
 500 41.6669921875 l 1
 500 83.3330078125 l 1
 125 83.3330078125 l 1
 125 41.6669921875 l 1025
166.666992188 0 m 1
 458.333007812 0 l 1
 458.333007812 41.6669921875 l 1
 166.666992188 41.6669921875 l 1
 166.666992188 0 l 1025
291.666992188 -41.6669921875 m 1
 375 -41.6669921875 l 1
 375 0 l 1
 291.666992188 0 l 1
 291.666992188 -41.6669921875 l 1025
291.666992188 -83.3330078125 m 1
 375 -83.3330078125 l 1
 375 -41.6669921875 l 1
 291.666992188 -41.6669921875 l 1
 291.666992188 -83.3330078125 l 1
EndSplineSet
EndChar

StartChar: percent
Encoding: 37 37 6
Width: 916
VWidth: 0
Flags: HW
LayerCount: 2
Back
Fore
SplineSet
83.3330078125 708.333007812 m 1
 208.333007812 708.333007812 l 1
 208.333007812 750 l 1
 83.3330078125 750 l 1
 83.3330078125 708.333007812 l 1025
500 708.333007812 m 1
 583.333007812 708.333007812 l 1
 583.333007812 750 l 1
 500 750 l 1
 500 708.333007812 l 1025
41.6669921875 666.666992188 m 1
 125 666.666992188 l 1
 125 708.333007812 l 1
 41.6669921875 708.333007812 l 1
 41.6669921875 666.666992188 l 1025
166.666992188 666.666992188 m 1
 250 666.666992188 l 1
 250 708.333007812 l 1
 166.666992188 708.333007812 l 1
 166.666992188 666.666992188 l 1025
458.333007812 666.666992188 m 1
 541.666992188 666.666992188 l 1
 541.666992188 708.333007812 l 1
 458.333007812 708.333007812 l 1
 458.333007812 666.666992188 l 1025
0 625 m 1
 83.3330078125 625 l 1
 83.3330078125 666.666992188 l 1
 0 666.666992188 l 1
 0 625 l 1025
208.333007812 625 m 1
 291.666992188 625 l 1
 291.666992188 666.666992188 l 1
 208.333007812 666.666992188 l 1
 208.333007812 625 l 1025
416.666992188 625 m 1
 541.666992188 625 l 1
 541.666992188 666.666992188 l 1
 416.666992188 666.666992188 l 1
 416.666992188 625 l 1025
0 583.333007812 m 1
 83.3330078125 583.333007812 l 1
 83.3330078125 625 l 1
 0 625 l 1
 0 583.333007812 l 1025
208.333007812 583.333007812 m 1
 291.666992188 583.333007812 l 1
 291.666992188 625 l 1
 208.333007812 625 l 1
 208.333007812 583.333007812 l 1025
416.666992188 583.333007812 m 1
 500 583.333007812 l 1
 500 625 l 1
 416.666992188 625 l 1
 416.666992188 583.333007812 l 1025
0 541.666992188 m 1
 83.3330078125 541.666992188 l 1
 83.3330078125 583.333007812 l 1
 0 583.333007812 l 1
 0 541.666992188 l 1025
208.333007812 541.666992188 m 1
 291.666992188 541.666992188 l 1
 291.666992188 583.333007812 l 1
 208.333007812 583.333007812 l 1
 208.333007812 541.666992188 l 1025
375 541.666992188 m 1
 458.333007812 541.666992188 l 1
 458.333007812 583.333007812 l 1
 375 583.333007812 l 1
 375 541.666992188 l 1025
0 500 m 1
 83.3330078125 500 l 1
 83.3330078125 541.666992188 l 1
 0 541.666992188 l 1
 0 500 l 1025
208.333007812 500 m 1
 291.666992188 500 l 1
 291.666992188 541.666992188 l 1
 208.333007812 541.666992188 l 1
 208.333007812 500 l 1025
333.333007812 500 m 1
 458.333007812 500 l 1
 458.333007812 541.666992188 l 1
 333.333007812 541.666992188 l 1
 333.333007812 500 l 1025
41.6669921875 458.333007812 m 1
 125 458.333007812 l 1
 125 500 l 1
 41.6669921875 500 l 1
 41.6669921875 458.333007812 l 1025
166.666992188 458.333007812 m 1
 250 458.333007812 l 1
 250 500 l 1
 166.666992188 500 l 1
 166.666992188 458.333007812 l 1025
291.666992188 458.333007812 m 1
 416.666992188 458.333007812 l 1
 416.666992188 500 l 1
 291.666992188 500 l 1
 291.666992188 458.333007812 l 1025
83.3330078125 416.666992188 m 1
 208.333007812 416.666992188 l 1
 208.333007812 458.333007812 l 1
 83.3330078125 458.333007812 l 1
 83.3330078125 416.666992188 l 1025
291.666992188 416.666992188 m 1
 375 416.666992188 l 1
 375 458.333007812 l 1
 291.666992188 458.333007812 l 1
 291.666992188 416.666992188 l 1025
250 375 m 1
 375 375 l 1
 375 416.666992188 l 1
 250 416.666992188 l 1
 250 375 l 1025
208.333007812 333.333007812 m 1
 333.333007812 333.333007812 l 1
 333.333007812 375 l 1
 208.333007812 375 l 1
 208.333007812 333.333007812 l 1025
208.333007812 291.666992188 m 1
 291.666992188 291.666992188 l 1
 291.666992188 333.333007812 l 1
 208.333007812 333.333007812 l 1
 208.333007812 291.666992188 l 1025
375 291.666992188 m 1
 500 291.666992188 l 1
 500 333.333007812 l 1
 375 333.333007812 l 1
 375 291.666992188 l 1025
166.666992188 250 m 1
 291.666992188 250 l 1
 291.666992188 291.666992188 l 1
 166.666992188 291.666992188 l 1
 166.666992188 250 l 1025
333.333007812 250 m 1
 416.666992188 250 l 1
 416.666992188 291.666992188 l 1
 333.333007812 291.666992188 l 1
 333.333007812 250 l 1025
458.333007812 250 m 1
 541.666992188 250 l 1
 541.666992188 291.666992188 l 1
 458.333007812 291.666992188 l 1
 458.333007812 250 l 1025
125 208.333007812 m 1
 250 208.333007812 l 1
 250 250 l 1
 125 250 l 1
 125 208.333007812 l 1025
291.666992188 208.333007812 m 1
 375 208.333007812 l 1
 375 250 l 1
 291.666992188 250 l 1
 291.666992188 208.333007812 l 1025
500 208.333007812 m 1
 583.333007812 208.333007812 l 1
 583.333007812 250 l 1
 500 250 l 1
 500 208.333007812 l 1025
125 166.666992188 m 1
 208.333007812 166.666992188 l 1
 208.333007812 208.333007812 l 1
 125 208.333007812 l 1
 125 166.666992188 l 1025
291.666992188 166.666992188 m 1
 375 166.666992188 l 1
 375 208.333007812 l 1
 291.666992188 208.333007812 l 1
 291.666992188 166.666992188 l 1025
500 166.666992188 m 1
 583.333007812 166.666992188 l 1
 583.333007812 208.333007812 l 1
 500 208.333007812 l 1
 500 166.666992188 l 1025
83.3330078125 125 m 1
 166.666992188 125 l 1
 166.666992188 166.666992188 l 1
 83.3330078125 166.666992188 l 1
 83.3330078125 125 l 1025
291.666992188 125 m 1
 375 125 l 1
 375 166.666992188 l 1
 291.666992188 166.666992188 l 1
 291.666992188 125 l 1025
500 125 m 1
 583.333007812 125 l 1
 583.333007812 166.666992188 l 1
 500 166.666992188 l 1
 500 125 l 1025
41.6669921875 83.3330078125 m 1
 166.666992188 83.3330078125 l 1
 166.666992188 125 l 1
 41.6669921875 125 l 1
 41.6669921875 83.3330078125 l 1025
291.666992188 83.3330078125 m 1
 375 83.3330078125 l 1
 375 125 l 1
 291.666992188 125 l 1
 291.666992188 83.3330078125 l 1025
500 83.3330078125 m 1
 583.333007812 83.3330078125 l 1
 583.333007812 125 l 1
 500 125 l 1
 500 83.3330078125 l 1025
41.6669921875 41.6669921875 m 1
 125 41.6669921875 l 1
 125 83.3330078125 l 1
 41.6669921875 83.3330078125 l 1
 41.6669921875 41.6669921875 l 1025
333.333007812 41.6669921875 m 1
 416.666992188 41.6669921875 l 1
 416.666992188 83.3330078125 l 1
 333.333007812 83.3330078125 l 1
 333.333007812 41.6669921875 l 1025
458.333007812 41.6669921875 m 1
 541.666992188 41.6669921875 l 1
 541.666992188 83.3330078125 l 1
 458.333007812 83.3330078125 l 1
 458.333007812 41.6669921875 l 1025
0 0 m 1
 83.3330078125 0 l 1
 83.3330078125 41.6669921875 l 1
 0 41.6669921875 l 1
 0 0 l 1025
375 0 m 1
 500 0 l 1
 500 41.6669921875 l 1
 375 41.6669921875 l 1
 375 0 l 1
EndSplineSet
EndChar

StartChar: ampersand
Encoding: 38 38 7
Width: 916
VWidth: 0
Flags: HW
LayerCount: 2
Back
Fore
SplineSet
208.333007812 708.333007812 m 1
 375 708.333007812 l 1
 375 750 l 1
 208.333007812 750 l 1
 208.333007812 708.333007812 l 1025
166.666992188 666.666992188 m 1
 416.666992188 666.666992188 l 1
 416.666992188 708.333007812 l 1
 166.666992188 708.333007812 l 1
 166.666992188 666.666992188 l 1025
125 625 m 1
 250 625 l 1
 250 666.666992188 l 1
 125 666.666992188 l 1
 125 625 l 1025
333.333007812 625 m 1
 458.333007812 625 l 1
 458.333007812 666.666992188 l 1
 333.333007812 666.666992188 l 1
 333.333007812 625 l 1025
125 583.333007812 m 1
 250 583.333007812 l 1
 250 625 l 1
 125 625 l 1
 125 583.333007812 l 1025
333.333007812 583.333007812 m 1
 458.333007812 583.333007812 l 1
 458.333007812 625 l 1
 333.333007812 625 l 1
 333.333007812 583.333007812 l 1025
125 541.666992188 m 1
 250 541.666992188 l 1
 250 583.333007812 l 1
 125 583.333007812 l 1
 125 541.666992188 l 1025
333.333007812 541.666992188 m 1
 458.333007812 541.666992188 l 1
 458.333007812 583.333007812 l 1
 333.333007812 583.333007812 l 1
 333.333007812 541.666992188 l 1025
125 500 m 1
 250 500 l 1
 250 541.666992188 l 1
 125 541.666992188 l 1
 125 500 l 1025
291.666992188 500 m 1
 416.666992188 500 l 1
 416.666992188 541.666992188 l 1
 291.666992188 541.666992188 l 1
 291.666992188 500 l 1025
166.666992188 458.333007812 m 1
 416.666992188 458.333007812 l 1
 416.666992188 500 l 1
 166.666992188 500 l 1
 166.666992188 458.333007812 l 1025
166.666992188 416.666992188 m 1
 333.333007812 416.666992188 l 1
 333.333007812 458.333007812 l 1
 166.666992188 458.333007812 l 1
 166.666992188 416.666992188 l 1025
83.3330078125 375 m 1
 333.333007812 375 l 1
 333.333007812 416.666992188 l 1
 83.3330078125 416.666992188 l 1
 83.3330078125 375 l 1025
500 375 m 1
 625 375 l 1
 625 416.666992188 l 1
 500 416.666992188 l 1
 500 375 l 1025
41.6669921875 333.333007812 m 1
 166.666992188 333.333007812 l 1
 166.666992188 375 l 1
 41.6669921875 375 l 1
 41.6669921875 333.333007812 l 1025
208.333007812 333.333007812 m 1
 375 333.333007812 l 1
 375 375 l 1
 208.333007812 375 l 1
 208.333007812 333.333007812 l 1025
500 333.333007812 m 1
 625 333.333007812 l 1
 625 375 l 1
 500 375 l 1
 500 333.333007812 l 1025
0 291.666992188 m 1
 125 291.666992188 l 1
 125 333.333007812 l 1
 0 333.333007812 l 1
 0 291.666992188 l 1025
250 291.666992188 m 1
 375 291.666992188 l 1
 375 333.333007812 l 1
 250 333.333007812 l 1
 250 291.666992188 l 1025
500 291.666992188 m 1
 625 291.666992188 l 1
 625 333.333007812 l 1
 500 333.333007812 l 1
 500 291.666992188 l 1025
0 250 m 1
 125 250 l 1
 125 291.666992188 l 1
 0 291.666992188 l 1
 0 250 l 1025
250 250 m 1
 416.666992188 250 l 1
 416.666992188 291.666992188 l 1
 250 291.666992188 l 1
 250 250 l 1025
500 250 m 1
 583.333007812 250 l 1
 583.333007812 291.666992188 l 1
 500 291.666992188 l 1
 500 250 l 1025
0 208.333007812 m 1
 125 208.333007812 l 1
 125 250 l 1
 0 250 l 1
 0 208.333007812 l 1025
291.666992188 208.333007812 m 1
 416.666992188 208.333007812 l 1
 416.666992188 250 l 1
 291.666992188 250 l 1
 291.666992188 208.333007812 l 1025
500 208.333007812 m 1
 583.333007812 208.333007812 l 1
 583.333007812 250 l 1
 500 250 l 1
 500 208.333007812 l 1025
0 166.666992188 m 1
 125 166.666992188 l 1
 125 208.333007812 l 1
 0 208.333007812 l 1
 0 166.666992188 l 1025
333.333007812 166.666992188 m 1
 583.333007812 166.666992188 l 1
 583.333007812 208.333007812 l 1
 333.333007812 208.333007812 l 1
 333.333007812 166.666992188 l 1025
0 125 m 1
 166.666992188 125 l 1
 166.666992188 166.666992188 l 1
 0 166.666992188 l 1
 0 125 l 1025
333.333007812 125 m 1
 541.666992188 125 l 1
 541.666992188 166.666992188 l 1
 333.333007812 166.666992188 l 1
 333.333007812 125 l 1025
41.6669921875 83.3330078125 m 1
 208.333007812 83.3330078125 l 1
 208.333007812 125 l 1
 41.6669921875 125 l 1
 41.6669921875 83.3330078125 l 1025
333.333007812 83.3330078125 m 1
 500 83.3330078125 l 1
 500 125 l 1
 333.333007812 125 l 1
 333.333007812 83.3330078125 l 1025
83.3330078125 41.6669921875 m 1
 416.666992188 41.6669921875 l 1
 416.666992188 83.3330078125 l 1
 83.3330078125 83.3330078125 l 1
 83.3330078125 41.6669921875 l 1025
458.333007812 41.6669921875 m 1
 541.666992188 41.6669921875 l 1
 541.666992188 83.3330078125 l 1
 458.333007812 83.3330078125 l 1
 458.333007812 41.6669921875 l 1025
125 0 m 1
 375 0 l 1
 375 41.6669921875 l 1
 125 41.6669921875 l 1
 125 0 l 1025
458.333007812 0 m 1
 625 0 l 1
 625 41.6669921875 l 1
 458.333007812 41.6669921875 l 1
 458.333007812 0 l 1
EndSplineSet
EndChar

StartChar: quotesingle
Encoding: 39 39 8
Width: 916
VWidth: 0
Flags: HW
LayerCount: 2
Back
Fore
SplineSet
208.333007812 708.333007812 m 1
 375 708.333007812 l 1
 375 750 l 1
 208.333007812 750 l 1
 208.333007812 708.333007812 l 1025
208.333007812 666.666992188 m 1
 375 666.666992188 l 1
 375 708.333007812 l 1
 208.333007812 708.333007812 l 1
 208.333007812 666.666992188 l 1025
208.333007812 625 m 1
 375 625 l 1
 375 666.666992188 l 1
 208.333007812 666.666992188 l 1
 208.333007812 625 l 1025
250 583.333007812 m 1
 333.333007812 583.333007812 l 1
 333.333007812 625 l 1
 250 625 l 1
 250 583.333007812 l 1025
250 541.666992188 m 1
 333.333007812 541.666992188 l 1
 333.333007812 583.333007812 l 1
 250 583.333007812 l 1
 250 541.666992188 l 1025
250 500 m 1
 333.333007812 500 l 1
 333.333007812 541.666992188 l 1
 250 541.666992188 l 1
 250 500 l 1
EndSplineSet
EndChar

StartChar: parenleft
Encoding: 40 40 9
Width: 916
VWidth: 0
Flags: HW
LayerCount: 2
Back
Fore
SplineSet
458.333007812 708.333007812 m 1
 583.333007812 708.333007812 l 1
 583.333007812 750 l 1
 458.333007812 750 l 1
 458.333007812 708.333007812 l 1025
375 666.666992188 m 1
 583.333007812 666.666992188 l 1
 583.333007812 708.333007812 l 1
 375 708.333007812 l 1
 375 666.666992188 l 1025
291.666992188 625 m 1
 458.333007812 625 l 1
 458.333007812 666.666992188 l 1
 291.666992188 666.666992188 l 1
 291.666992188 625 l 1025
250 583.333007812 m 1
 416.666992188 583.333007812 l 1
 416.666992188 625 l 1
 250 625 l 1
 250 583.333007812 l 1025
250 541.666992188 m 1
 375 541.666992188 l 1
 375 583.333007812 l 1
 250 583.333007812 l 1
 250 541.666992188 l 1025
208.333007812 500 m 1
 333.333007812 500 l 1
 333.333007812 541.666992188 l 1
 208.333007812 541.666992188 l 1
 208.333007812 500 l 1025
208.333007812 458.333007812 m 1
 333.333007812 458.333007812 l 1
 333.333007812 500 l 1
 208.333007812 500 l 1
 208.333007812 458.333007812 l 1025
166.666992188 416.666992188 m 1
 291.666992188 416.666992188 l 1
 291.666992188 458.333007812 l 1
 166.666992188 458.333007812 l 1
 166.666992188 416.666992188 l 1025
166.666992188 375 m 1
 291.666992188 375 l 1
 291.666992188 416.666992188 l 1
 166.666992188 416.666992188 l 1
 166.666992188 375 l 1025
166.666992188 333.333007812 m 1
 291.666992188 333.333007812 l 1
 291.666992188 375 l 1
 166.666992188 375 l 1
 166.666992188 333.333007812 l 1025
166.666992188 291.666992188 m 1
 291.666992188 291.666992188 l 1
 291.666992188 333.333007812 l 1
 166.666992188 333.333007812 l 1
 166.666992188 291.666992188 l 1025
166.666992188 250 m 1
 291.666992188 250 l 1
 291.666992188 291.666992188 l 1
 166.666992188 291.666992188 l 1
 166.666992188 250 l 1025
166.666992188 208.333007812 m 1
 291.666992188 208.333007812 l 1
 291.666992188 250 l 1
 166.666992188 250 l 1
 166.666992188 208.333007812 l 1025
166.666992188 166.666992188 m 1
 291.666992188 166.666992188 l 1
 291.666992188 208.333007812 l 1
 166.666992188 208.333007812 l 1
 166.666992188 166.666992188 l 1025
208.333007812 125 m 1
 291.666992188 125 l 1
 291.666992188 166.666992188 l 1
 208.333007812 166.666992188 l 1
 208.333007812 125 l 1025
208.333007812 83.3330078125 m 1
 333.333007812 83.3330078125 l 1
 333.333007812 125 l 1
 208.333007812 125 l 1
 208.333007812 83.3330078125 l 1025
250 41.6669921875 m 1
 333.333007812 41.6669921875 l 1
 333.333007812 83.3330078125 l 1
 250 83.3330078125 l 1
 250 41.6669921875 l 1025
250 0 m 1
 375 0 l 1
 375 41.6669921875 l 1
 250 41.6669921875 l 1
 250 0 l 1025
291.666992188 -41.6669921875 m 1
 416.666992188 -41.6669921875 l 1
 416.666992188 0 l 1
 291.666992188 0 l 1
 291.666992188 -41.6669921875 l 1025
333.333007812 -83.3330078125 m 1
 458.333007812 -83.3330078125 l 1
 458.333007812 -41.6669921875 l 1
 333.333007812 -41.6669921875 l 1
 333.333007812 -83.3330078125 l 1025
375 -125 m 1
 583.333007812 -125 l 1
 583.333007812 -83.3330078125 l 1
 375 -83.3330078125 l 1
 375 -125 l 1025
500 -166.666992188 m 1
 583.333007812 -166.666992188 l 1
 583.333007812 -125 l 1
 500 -125 l 1
 500 -166.666992188 l 1
EndSplineSet
EndChar

StartChar: parenright
Encoding: 41 41 10
Width: 916
VWidth: 0
Flags: HW
LayerCount: 2
Back
Fore
SplineSet
41.6669921875 708.333007812 m 1
 125 708.333007812 l 1
 125 750 l 1
 41.6669921875 750 l 1
 41.6669921875 708.333007812 l 1025
41.6669921875 666.666992188 m 1
 250 666.666992188 l 1
 250 708.333007812 l 1
 41.6669921875 708.333007812 l 1
 41.6669921875 666.666992188 l 1025
166.666992188 625 m 1
 291.666992188 625 l 1
 291.666992188 666.666992188 l 1
 166.666992188 666.666992188 l 1
 166.666992188 625 l 1025
208.333007812 583.333007812 m 1
 333.333007812 583.333007812 l 1
 333.333007812 625 l 1
 208.333007812 625 l 1
 208.333007812 583.333007812 l 1025
250 541.666992188 m 1
 375 541.666992188 l 1
 375 583.333007812 l 1
 250 583.333007812 l 1
 250 541.666992188 l 1025
291.666992188 500 m 1
 416.666992188 500 l 1
 416.666992188 541.666992188 l 1
 291.666992188 541.666992188 l 1
 291.666992188 500 l 1025
291.666992188 458.333007812 m 1
 416.666992188 458.333007812 l 1
 416.666992188 500 l 1
 291.666992188 500 l 1
 291.666992188 458.333007812 l 1025
333.333007812 416.666992188 m 1
 416.666992188 416.666992188 l 1
 416.666992188 458.333007812 l 1
 333.333007812 458.333007812 l 1
 333.333007812 416.666992188 l 1025
333.333007812 375 m 1
 458.333007812 375 l 1
 458.333007812 416.666992188 l 1
 333.333007812 416.666992188 l 1
 333.333007812 375 l 1025
333.333007812 333.333007812 m 1
 458.333007812 333.333007812 l 1
 458.333007812 375 l 1
 333.333007812 375 l 1
 333.333007812 333.333007812 l 1025
333.333007812 291.666992188 m 1
 458.333007812 291.666992188 l 1
 458.333007812 333.333007812 l 1
 333.333007812 333.333007812 l 1
 333.333007812 291.666992188 l 1025
333.333007812 250 m 1
 458.333007812 250 l 1
 458.333007812 291.666992188 l 1
 333.333007812 291.666992188 l 1
 333.333007812 250 l 1025
333.333007812 208.333007812 m 1
 458.333007812 208.333007812 l 1
 458.333007812 250 l 1
 333.333007812 250 l 1
 333.333007812 208.333007812 l 1025
333.333007812 166.666992188 m 1
 458.333007812 166.666992188 l 1
 458.333007812 208.333007812 l 1
 333.333007812 208.333007812 l 1
 333.333007812 166.666992188 l 1025
333.333007812 125 m 1
 458.333007812 125 l 1
 458.333007812 166.666992188 l 1
 333.333007812 166.666992188 l 1
 333.333007812 125 l 1025
291.666992188 83.3330078125 m 1
 416.666992188 83.3330078125 l 1
 416.666992188 125 l 1
 291.666992188 125 l 1
 291.666992188 83.3330078125 l 1025
291.666992188 41.6669921875 m 1
 416.666992188 41.6669921875 l 1
 416.666992188 83.3330078125 l 1
 291.666992188 83.3330078125 l 1
 291.666992188 41.6669921875 l 1025
250 0 m 1
 375 0 l 1
 375 41.6669921875 l 1
 250 41.6669921875 l 1
 250 0 l 1025
208.333007812 -41.6669921875 m 1
 333.333007812 -41.6669921875 l 1
 333.333007812 0 l 1
 208.333007812 0 l 1
 208.333007812 -41.6669921875 l 1025
166.666992188 -83.3330078125 m 1
 291.666992188 -83.3330078125 l 1
 291.666992188 -41.6669921875 l 1
 166.666992188 -41.6669921875 l 1
 166.666992188 -83.3330078125 l 1025
41.6669921875 -125 m 1
 250 -125 l 1
 250 -83.3330078125 l 1
 41.6669921875 -83.3330078125 l 1
 41.6669921875 -125 l 1025
41.6669921875 -166.666992188 m 1
 125 -166.666992188 l 1
 125 -125 l 1
 41.6669921875 -125 l 1
 41.6669921875 -166.666992188 l 1
EndSplineSet
EndChar

StartChar: asterisk
Encoding: 42 42 11
Width: 916
VWidth: 0
Flags: HW
LayerCount: 2
Back
Fore
SplineSet
250 708.333007812 m 1
 375 708.333007812 l 1
 375 750 l 1
 250 750 l 1
 250 708.333007812 l 1025
250 666.666992188 m 1
 375 666.666992188 l 1
 375 708.333007812 l 1
 250 708.333007812 l 1
 250 666.666992188 l 1025
291.666992188 625 m 1
 333.333007812 625 l 1
 333.333007812 666.666992188 l 1
 291.666992188 666.666992188 l 1
 291.666992188 625 l 1025
83.3330078125 583.333007812 m 1
 166.666992188 583.333007812 l 1
 166.666992188 625 l 1
 83.3330078125 625 l 1
 83.3330078125 583.333007812 l 1025
291.666992188 583.333007812 m 1
 333.333007812 583.333007812 l 1
 333.333007812 625 l 1
 291.666992188 625 l 1
 291.666992188 583.333007812 l 1025
458.333007812 583.333007812 m 1
 500 583.333007812 l 1
 500 625 l 1
 458.333007812 625 l 1
 458.333007812 583.333007812 l 1025
83.3330078125 541.666992188 m 1
 250 541.666992188 l 1
 250 583.333007812 l 1
 83.3330078125 583.333007812 l 1
 83.3330078125 541.666992188 l 1025
375 541.666992188 m 1
 541.666992188 541.666992188 l 1
 541.666992188 583.333007812 l 1
 375 583.333007812 l 1
 375 541.666992188 l 1025
166.666992188 500 m 1
 250 500 l 1
 250 541.666992188 l 1
 166.666992188 541.666992188 l 1
 166.666992188 500 l 1025
375 500 m 1
 458.333007812 500 l 1
 458.333007812 541.666992188 l 1
 375 541.666992188 l 1
 375 500 l 1025
250 458.333007812 m 1
 291.666992188 458.333007812 l 1
 291.666992188 500 l 1
 250 500 l 1
 250 458.333007812 l 1025
375 458.333007812 m 1
 416.666992188 458.333007812 l 1
 416.666992188 500 l 1
 375 500 l 1
 375 458.333007812 l 1025
208.333007812 416.666992188 m 1
 291.666992188 416.666992188 l 1
 291.666992188 458.333007812 l 1
 208.333007812 458.333007812 l 1
 208.333007812 416.666992188 l 1025
333.333007812 416.666992188 m 1
 416.666992188 416.666992188 l 1
 416.666992188 458.333007812 l 1
 333.333007812 458.333007812 l 1
 333.333007812 416.666992188 l 1025
166.666992188 375 m 1
 291.666992188 375 l 1
 291.666992188 416.666992188 l 1
 166.666992188 416.666992188 l 1
 166.666992188 375 l 1025
333.333007812 375 m 1
 458.333007812 375 l 1
 458.333007812 416.666992188 l 1
 333.333007812 416.666992188 l 1
 333.333007812 375 l 1025
125 333.333007812 m 1
 250 333.333007812 l 1
 250 375 l 1
 125 375 l 1
 125 333.333007812 l 1025
375 333.333007812 m 1
 500 333.333007812 l 1
 500 375 l 1
 375 375 l 1
 375 333.333007812 l 1025
208.333007812 291.666992188 m 1
 250 291.666992188 l 1
 250 333.333007812 l 1
 208.333007812 333.333007812 l 1
 208.333007812 291.666992188 l 1025
375 291.666992188 m 1
 416.666992188 291.666992188 l 1
 416.666992188 333.333007812 l 1
 375 333.333007812 l 1
 375 291.666992188 l 1
EndSplineSet
EndChar

StartChar: plus
Encoding: 43 43 12
Width: 916
VWidth: 0
Flags: HW
LayerCount: 2
Back
Fore
SplineSet
250 500 m 1
 333.333007812 500 l 1
 333.333007812 541.666992188 l 1
 250 541.666992188 l 1
 250 500 l 1025
250 458.333007812 m 1
 333.333007812 458.333007812 l 1
 333.333007812 500 l 1
 250 500 l 1
 250 458.333007812 l 1025
250 416.666992188 m 1
 333.333007812 416.666992188 l 1
 333.333007812 458.333007812 l 1
 250 458.333007812 l 1
 250 416.666992188 l 1025
250 375 m 1
 333.333007812 375 l 1
 333.333007812 416.666992188 l 1
 250 416.666992188 l 1
 250 375 l 1025
250 333.333007812 m 1
 333.333007812 333.333007812 l 1
 333.333007812 375 l 1
 250 375 l 1
 250 333.333007812 l 1025
250 291.666992188 m 1
 333.333007812 291.666992188 l 1
 333.333007812 333.333007812 l 1
 250 333.333007812 l 1
 250 291.666992188 l 1025
0 250 m 1
 583.333007812 250 l 1
 583.333007812 291.666992188 l 1
 0 291.666992188 l 1
 0 250 l 1025
0 208.333007812 m 1
 583.333007812 208.333007812 l 1
 583.333007812 250 l 1
 0 250 l 1
 0 208.333007812 l 1025
250 166.666992188 m 1
 333.333007812 166.666992188 l 1
 333.333007812 208.333007812 l 1
 250 208.333007812 l 1
 250 166.666992188 l 1025
250 125 m 1
 333.333007812 125 l 1
 333.333007812 166.666992188 l 1
 250 166.666992188 l 1
 250 125 l 1025
250 83.3330078125 m 1
 333.333007812 83.3330078125 l 1
 333.333007812 125 l 1
 250 125 l 1
 250 83.3330078125 l 1025
250 41.6669921875 m 1
 333.333007812 41.6669921875 l 1
 333.333007812 83.3330078125 l 1
 250 83.3330078125 l 1
 250 41.6669921875 l 1025
250 0 m 1
 333.333007812 0 l 1
 333.333007812 41.6669921875 l 1
 250 41.6669921875 l 1
 250 0 l 1
EndSplineSet
EndChar

StartChar: comma
Encoding: 44 44 13
Width: 916
VWidth: 0
Flags: HW
LayerCount: 2
Back
Fore
SplineSet
208.333007812 125 m 1
 375 125 l 1
 375 166.666992188 l 1
 208.333007812 166.666992188 l 1
 208.333007812 125 l 1025
208.333007812 83.3330078125 m 1
 375 83.3330078125 l 1
 375 125 l 1
 208.333007812 125 l 1
 208.333007812 83.3330078125 l 1025
208.333007812 41.6669921875 m 1
 375 41.6669921875 l 1
 375 83.3330078125 l 1
 208.333007812 83.3330078125 l 1
 208.333007812 41.6669921875 l 1025
208.333007812 0 m 1
 375 0 l 1
 375 41.6669921875 l 1
 208.333007812 41.6669921875 l 1
 208.333007812 0 l 1025
291.666992188 -41.6669921875 m 1
 375 -41.6669921875 l 1
 375 0 l 1
 291.666992188 0 l 1
 291.666992188 -41.6669921875 l 1025
291.666992188 -83.3330078125 m 1
 375 -83.3330078125 l 1
 375 -41.6669921875 l 1
 291.666992188 -41.6669921875 l 1
 291.666992188 -83.3330078125 l 1025
250 -125 m 1
 333.333007812 -125 l 1
 333.333007812 -83.3330078125 l 1
 250 -83.3330078125 l 1
 250 -125 l 1025
208.333007812 -166.666992188 m 1
 291.666992188 -166.666992188 l 1
 291.666992188 -125 l 1
 208.333007812 -125 l 1
 208.333007812 -166.666992188 l 1
EndSplineSet
EndChar

StartChar: hyphen
Encoding: 45 45 14
Width: 916
VWidth: 0
Flags: HW
LayerCount: 2
Back
Fore
SplineSet
41.6669921875 250 m 1
 583.333007812 250 l 1
 583.333007812 291.666992188 l 1
 41.6669921875 291.666992188 l 1
 41.6669921875 250 l 1025
41.6669921875 208.333007812 m 1
 583.333007812 208.333007812 l 1
 583.333007812 250 l 1
 41.6669921875 250 l 1
 41.6669921875 208.333007812 l 1
EndSplineSet
EndChar

StartChar: period
Encoding: 46 46 15
Width: 916
VWidth: 0
Flags: HW
LayerCount: 2
Back
Fore
SplineSet
208.333007812 125 m 1
 375 125 l 1
 375 166.666992188 l 1
 208.333007812 166.666992188 l 1
 208.333007812 125 l 1025
208.333007812 83.3330078125 m 1
 375 83.3330078125 l 1
 375 125 l 1
 208.333007812 125 l 1
 208.333007812 83.3330078125 l 1025
208.333007812 41.6669921875 m 1
 375 41.6669921875 l 1
 375 83.3330078125 l 1
 208.333007812 83.3330078125 l 1
 208.333007812 41.6669921875 l 1025
208.333007812 0 m 1
 375 0 l 1
 375 41.6669921875 l 1
 208.333007812 41.6669921875 l 1
 208.333007812 0 l 1
EndSplineSet
EndChar

StartChar: slash
Encoding: 47 47 16
Width: 916
VWidth: 0
Flags: HW
LayerCount: 2
Back
Fore
SplineSet
500 708.333007812 m 1
 583.333007812 708.333007812 l 1
 583.333007812 750 l 1
 500 750 l 1
 500 708.333007812 l 1025
458.333007812 666.666992188 m 1
 541.666992188 666.666992188 l 1
 541.666992188 708.333007812 l 1
 458.333007812 708.333007812 l 1
 458.333007812 666.666992188 l 1025
458.333007812 625 m 1
 541.666992188 625 l 1
 541.666992188 666.666992188 l 1
 458.333007812 666.666992188 l 1
 458.333007812 625 l 1025
416.666992188 583.333007812 m 1
 500 583.333007812 l 1
 500 625 l 1
 416.666992188 625 l 1
 416.666992188 583.333007812 l 1025
416.666992188 541.666992188 m 1
 500 541.666992188 l 1
 500 583.333007812 l 1
 416.666992188 583.333007812 l 1
 416.666992188 541.666992188 l 1025
375 500 m 1
 458.333007812 500 l 1
 458.333007812 541.666992188 l 1
 375 541.666992188 l 1
 375 500 l 1025
375 458.333007812 m 1
 458.333007812 458.333007812 l 1
 458.333007812 500 l 1
 375 500 l 1
 375 458.333007812 l 1025
333.333007812 416.666992188 m 1
 416.666992188 416.666992188 l 1
 416.666992188 458.333007812 l 1
 333.333007812 458.333007812 l 1
 333.333007812 416.666992188 l 1025
333.333007812 375 m 1
 416.666992188 375 l 1
 416.666992188 416.666992188 l 1
 333.333007812 416.666992188 l 1
 333.333007812 375 l 1025
291.666992188 333.333007812 m 1
 375 333.333007812 l 1
 375 375 l 1
 291.666992188 375 l 1
 291.666992188 333.333007812 l 1025
291.666992188 291.666992188 m 1
 375 291.666992188 l 1
 375 333.333007812 l 1
 291.666992188 333.333007812 l 1
 291.666992188 291.666992188 l 1025
250 250 m 1
 333.333007812 250 l 1
 333.333007812 291.666992188 l 1
 250 291.666992188 l 1
 250 250 l 1025
250 208.333007812 m 1
 333.333007812 208.333007812 l 1
 333.333007812 250 l 1
 250 250 l 1
 250 208.333007812 l 1025
208.333007812 166.666992188 m 1
 291.666992188 166.666992188 l 1
 291.666992188 208.333007812 l 1
 208.333007812 208.333007812 l 1
 208.333007812 166.666992188 l 1025
208.333007812 125 m 1
 291.666992188 125 l 1
 291.666992188 166.666992188 l 1
 208.333007812 166.666992188 l 1
 208.333007812 125 l 1025
166.666992188 83.3330078125 m 1
 250 83.3330078125 l 1
 250 125 l 1
 166.666992188 125 l 1
 166.666992188 83.3330078125 l 1025
166.666992188 41.6669921875 m 1
 250 41.6669921875 l 1
 250 83.3330078125 l 1
 166.666992188 83.3330078125 l 1
 166.666992188 41.6669921875 l 1025
125 0 m 1
 208.333007812 0 l 1
 208.333007812 41.6669921875 l 1
 125 41.6669921875 l 1
 125 0 l 1025
125 -41.6669921875 m 1
 208.333007812 -41.6669921875 l 1
 208.333007812 0 l 1
 125 0 l 1
 125 -41.6669921875 l 1025
83.3330078125 -83.3330078125 m 1
 166.666992188 -83.3330078125 l 1
 166.666992188 -41.6669921875 l 1
 83.3330078125 -41.6669921875 l 1
 83.3330078125 -83.3330078125 l 1025
83.3330078125 -125 m 1
 166.666992188 -125 l 1
 166.666992188 -83.3330078125 l 1
 83.3330078125 -83.3330078125 l 1
 83.3330078125 -125 l 1025
41.6669921875 -166.666992188 m 1
 125 -166.666992188 l 1
 125 -125 l 1
 41.6669921875 -125 l 1
 41.6669921875 -166.666992188 l 1
EndSplineSet
EndChar

StartChar: zero
Encoding: 48 48 17
Width: 916
VWidth: 0
Flags: HW
LayerCount: 2
Back
Fore
SplineSet
208.333007812 708.333007812 m 1
 375 708.333007812 l 1
 375 750 l 1
 208.333007812 750 l 1
 208.333007812 708.333007812 l 1025
125 666.666992188 m 1
 458.333007812 666.666992188 l 1
 458.333007812 708.333007812 l 1
 125 708.333007812 l 1
 125 666.666992188 l 1025
125 625 m 1
 208.333007812 625 l 1
 208.333007812 666.666992188 l 1
 125 666.666992188 l 1
 125 625 l 1025
333.333007812 625 m 1
 458.333007812 625 l 1
 458.333007812 666.666992188 l 1
 333.333007812 666.666992188 l 1
 333.333007812 625 l 1025
83.3330078125 583.333007812 m 1
 208.333007812 583.333007812 l 1
 208.333007812 625 l 1
 83.3330078125 625 l 1
 83.3330078125 583.333007812 l 1025
375 583.333007812 m 1
 500 583.333007812 l 1
 500 625 l 1
 375 625 l 1
 375 583.333007812 l 1025
83.3330078125 541.666992188 m 1
 166.666992188 541.666992188 l 1
 166.666992188 583.333007812 l 1
 83.3330078125 583.333007812 l 1
 83.3330078125 541.666992188 l 1025
375 541.666992188 m 1
 500 541.666992188 l 1
 500 583.333007812 l 1
 375 583.333007812 l 1
 375 541.666992188 l 1025
41.6669921875 500 m 1
 166.666992188 500 l 1
 166.666992188 541.666992188 l 1
 41.6669921875 541.666992188 l 1
 41.6669921875 500 l 1025
416.666992188 500 m 1
 541.666992188 500 l 1
 541.666992188 541.666992188 l 1
 416.666992188 541.666992188 l 1
 416.666992188 500 l 1025
41.6669921875 458.333007812 m 1
 166.666992188 458.333007812 l 1
 166.666992188 500 l 1
 41.6669921875 500 l 1
 41.6669921875 458.333007812 l 1025
416.666992188 458.333007812 m 1
 541.666992188 458.333007812 l 1
 541.666992188 500 l 1
 416.666992188 500 l 1
 416.666992188 458.333007812 l 1025
41.6669921875 416.666992188 m 1
 166.666992188 416.666992188 l 1
 166.666992188 458.333007812 l 1
 41.6669921875 458.333007812 l 1
 41.6669921875 416.666992188 l 1025
416.666992188 416.666992188 m 1
 541.666992188 416.666992188 l 1
 541.666992188 458.333007812 l 1
 416.666992188 458.333007812 l 1
 416.666992188 416.666992188 l 1025
41.6669921875 375 m 1
 166.666992188 375 l 1
 166.666992188 416.666992188 l 1
 41.6669921875 416.666992188 l 1
 41.6669921875 375 l 1025
416.666992188 375 m 1
 541.666992188 375 l 1
 541.666992188 416.666992188 l 1
 416.666992188 416.666992188 l 1
 416.666992188 375 l 1025
41.6669921875 333.333007812 m 1
 166.666992188 333.333007812 l 1
 166.666992188 375 l 1
 41.6669921875 375 l 1
 41.6669921875 333.333007812 l 1025
416.666992188 333.333007812 m 1
 541.666992188 333.333007812 l 1
 541.666992188 375 l 1
 416.666992188 375 l 1
 416.666992188 333.333007812 l 1025
41.6669921875 291.666992188 m 1
 166.666992188 291.666992188 l 1
 166.666992188 333.333007812 l 1
 41.6669921875 333.333007812 l 1
 41.6669921875 291.666992188 l 1025
416.666992188 291.666992188 m 1
 541.666992188 291.666992188 l 1
 541.666992188 333.333007812 l 1
 416.666992188 333.333007812 l 1
 416.666992188 291.666992188 l 1025
41.6669921875 250 m 1
 166.666992188 250 l 1
 166.666992188 291.666992188 l 1
 41.6669921875 291.666992188 l 1
 41.6669921875 250 l 1025
416.666992188 250 m 1
 541.666992188 250 l 1
 541.666992188 291.666992188 l 1
 416.666992188 291.666992188 l 1
 416.666992188 250 l 1025
41.6669921875 208.333007812 m 1
 166.666992188 208.333007812 l 1
 166.666992188 250 l 1
 41.6669921875 250 l 1
 41.6669921875 208.333007812 l 1025
416.666992188 208.333007812 m 1
 541.666992188 208.333007812 l 1
 541.666992188 250 l 1
 416.666992188 250 l 1
 416.666992188 208.333007812 l 1025
83.3330078125 166.666992188 m 1
 166.666992188 166.666992188 l 1
 166.666992188 208.333007812 l 1
 83.3330078125 208.333007812 l 1
 83.3330078125 166.666992188 l 1025
416.666992188 166.666992188 m 1
 500 166.666992188 l 1
 500 208.333007812 l 1
 416.666992188 208.333007812 l 1
 416.666992188 166.666992188 l 1025
83.3330078125 125 m 1
 208.333007812 125 l 1
 208.333007812 166.666992188 l 1
 83.3330078125 166.666992188 l 1
 83.3330078125 125 l 1025
375 125 m 1
 500 125 l 1
 500 166.666992188 l 1
 375 166.666992188 l 1
 375 125 l 1025
125 83.3330078125 m 1
 208.333007812 83.3330078125 l 1
 208.333007812 125 l 1
 125 125 l 1
 125 83.3330078125 l 1025
375 83.3330078125 m 1
 458.333007812 83.3330078125 l 1
 458.333007812 125 l 1
 375 125 l 1
 375 83.3330078125 l 1025
125 41.6669921875 m 1
 458.333007812 41.6669921875 l 1
 458.333007812 83.3330078125 l 1
 125 83.3330078125 l 1
 125 41.6669921875 l 1025
208.333007812 0 m 1
 375 0 l 1
 375 41.6669921875 l 1
 208.333007812 41.6669921875 l 1
 208.333007812 0 l 1
EndSplineSet
EndChar

StartChar: one
Encoding: 49 49 18
Width: 916
VWidth: 0
Flags: HW
LayerCount: 2
Back
Fore
SplineSet
291.666992188 708.333007812 m 1
 416.666992188 708.333007812 l 1
 416.666992188 750 l 1
 291.666992188 750 l 1
 291.666992188 708.333007812 l 1025
166.666992188 666.666992188 m 1
 416.666992188 666.666992188 l 1
 416.666992188 708.333007812 l 1
 166.666992188 708.333007812 l 1
 166.666992188 666.666992188 l 1025
83.3330078125 625 m 1
 416.666992188 625 l 1
 416.666992188 666.666992188 l 1
 83.3330078125 666.666992188 l 1
 83.3330078125 625 l 1025
83.3330078125 583.333007812 m 1
 125 583.333007812 l 1
 125 625 l 1
 83.3330078125 625 l 1
 83.3330078125 583.333007812 l 1025
291.666992188 583.333007812 m 1
 416.666992188 583.333007812 l 1
 416.666992188 625 l 1
 291.666992188 625 l 1
 291.666992188 583.333007812 l 1025
291.666992188 541.666992188 m 1
 416.666992188 541.666992188 l 1
 416.666992188 583.333007812 l 1
 291.666992188 583.333007812 l 1
 291.666992188 541.666992188 l 1025
291.666992188 500 m 1
 416.666992188 500 l 1
 416.666992188 541.666992188 l 1
 291.666992188 541.666992188 l 1
 291.666992188 500 l 1025
291.666992188 458.333007812 m 1
 416.666992188 458.333007812 l 1
 416.666992188 500 l 1
 291.666992188 500 l 1
 291.666992188 458.333007812 l 1025
291.666992188 416.666992188 m 1
 416.666992188 416.666992188 l 1
 416.666992188 458.333007812 l 1
 291.666992188 458.333007812 l 1
 291.666992188 416.666992188 l 1025
291.666992188 375 m 1
 416.666992188 375 l 1
 416.666992188 416.666992188 l 1
 291.666992188 416.666992188 l 1
 291.666992188 375 l 1025
291.666992188 333.333007812 m 1
 416.666992188 333.333007812 l 1
 416.666992188 375 l 1
 291.666992188 375 l 1
 291.666992188 333.333007812 l 1025
291.666992188 291.666992188 m 1
 416.666992188 291.666992188 l 1
 416.666992188 333.333007812 l 1
 291.666992188 333.333007812 l 1
 291.666992188 291.666992188 l 1025
291.666992188 250 m 1
 416.666992188 250 l 1
 416.666992188 291.666992188 l 1
 291.666992188 291.666992188 l 1
 291.666992188 250 l 1025
291.666992188 208.333007812 m 1
 416.666992188 208.333007812 l 1
 416.666992188 250 l 1
 291.666992188 250 l 1
 291.666992188 208.333007812 l 1025
291.666992188 166.666992188 m 1
 416.666992188 166.666992188 l 1
 416.666992188 208.333007812 l 1
 291.666992188 208.333007812 l 1
 291.666992188 166.666992188 l 1025
291.666992188 125 m 1
 416.666992188 125 l 1
 416.666992188 166.666992188 l 1
 291.666992188 166.666992188 l 1
 291.666992188 125 l 1025
291.666992188 83.3330078125 m 1
 416.666992188 83.3330078125 l 1
 416.666992188 125 l 1
 291.666992188 125 l 1
 291.666992188 83.3330078125 l 1025
83.3330078125 41.6669921875 m 1
 625 41.6669921875 l 1
 625 83.3330078125 l 1
 83.3330078125 83.3330078125 l 1
 83.3330078125 41.6669921875 l 1025
83.3330078125 0 m 1
 625 0 l 1
 625 41.6669921875 l 1
 83.3330078125 41.6669921875 l 1
 83.3330078125 0 l 1
EndSplineSet
EndChar

StartChar: two
Encoding: 50 50 19
Width: 916
VWidth: 0
Flags: HW
LayerCount: 2
Back
Fore
SplineSet
166.666992188 708.333007812 m 1
 416.666992188 708.333007812 l 1
 416.666992188 750 l 1
 166.666992188 750 l 1
 166.666992188 708.333007812 l 1025
83.3330078125 666.666992188 m 1
 500 666.666992188 l 1
 500 708.333007812 l 1
 83.3330078125 708.333007812 l 1
 83.3330078125 666.666992188 l 1025
83.3330078125 625 m 1
 166.666992188 625 l 1
 166.666992188 666.666992188 l 1
 83.3330078125 666.666992188 l 1
 83.3330078125 625 l 1025
375 625 m 1
 500 625 l 1
 500 666.666992188 l 1
 375 666.666992188 l 1
 375 625 l 1025
416.666992188 583.333007812 m 1
 541.666992188 583.333007812 l 1
 541.666992188 625 l 1
 416.666992188 625 l 1
 416.666992188 583.333007812 l 1025
416.666992188 541.666992188 m 1
 541.666992188 541.666992188 l 1
 541.666992188 583.333007812 l 1
 416.666992188 583.333007812 l 1
 416.666992188 541.666992188 l 1025
416.666992188 500 m 1
 541.666992188 500 l 1
 541.666992188 541.666992188 l 1
 416.666992188 541.666992188 l 1
 416.666992188 500 l 1025
416.666992188 458.333007812 m 1
 541.666992188 458.333007812 l 1
 541.666992188 500 l 1
 416.666992188 500 l 1
 416.666992188 458.333007812 l 1025
375 416.666992188 m 1
 500 416.666992188 l 1
 500 458.333007812 l 1
 375 458.333007812 l 1
 375 416.666992188 l 1025
333.333007812 375 m 1
 458.333007812 375 l 1
 458.333007812 416.666992188 l 1
 333.333007812 416.666992188 l 1
 333.333007812 375 l 1025
291.666992188 333.333007812 m 1
 416.666992188 333.333007812 l 1
 416.666992188 375 l 1
 291.666992188 375 l 1
 291.666992188 333.333007812 l 1025
250 291.666992188 m 1
 375 291.666992188 l 1
 375 333.333007812 l 1
 250 333.333007812 l 1
 250 291.666992188 l 1025
208.333007812 250 m 1
 333.333007812 250 l 1
 333.333007812 291.666992188 l 1
 208.333007812 291.666992188 l 1
 208.333007812 250 l 1025
166.666992188 208.333007812 m 1
 291.666992188 208.333007812 l 1
 291.666992188 250 l 1
 166.666992188 250 l 1
 166.666992188 208.333007812 l 1025
166.666992188 166.666992188 m 1
 250 166.666992188 l 1
 250 208.333007812 l 1
 166.666992188 208.333007812 l 1
 166.666992188 166.666992188 l 1025
125 125 m 1
 250 125 l 1
 250 166.666992188 l 1
 125 166.666992188 l 1
 125 125 l 1025
83.3330078125 83.3330078125 m 1
 208.333007812 83.3330078125 l 1
 208.333007812 125 l 1
 83.3330078125 125 l 1
 83.3330078125 83.3330078125 l 1025
83.3330078125 41.6669921875 m 1
 541.666992188 41.6669921875 l 1
 541.666992188 83.3330078125 l 1
 83.3330078125 83.3330078125 l 1
 83.3330078125 41.6669921875 l 1025
83.3330078125 0 m 1
 541.666992188 0 l 1
 541.666992188 41.6669921875 l 1
 83.3330078125 41.6669921875 l 1
 83.3330078125 0 l 1
EndSplineSet
EndChar

StartChar: three
Encoding: 51 51 20
Width: 916
VWidth: 0
Flags: HW
LayerCount: 2
Back
Fore
SplineSet
166.666992188 708.333007812 m 1
 416.666992188 708.333007812 l 1
 416.666992188 750 l 1
 166.666992188 750 l 1
 166.666992188 708.333007812 l 1025
125 666.666992188 m 1
 500 666.666992188 l 1
 500 708.333007812 l 1
 125 708.333007812 l 1
 125 666.666992188 l 1025
125 625 m 1
 166.666992188 625 l 1
 166.666992188 666.666992188 l 1
 125 666.666992188 l 1
 125 625 l 1025
375 625 m 1
 541.666992188 625 l 1
 541.666992188 666.666992188 l 1
 375 666.666992188 l 1
 375 625 l 1025
416.666992188 583.333007812 m 1
 541.666992188 583.333007812 l 1
 541.666992188 625 l 1
 416.666992188 625 l 1
 416.666992188 583.333007812 l 1025
416.666992188 541.666992188 m 1
 541.666992188 541.666992188 l 1
 541.666992188 583.333007812 l 1
 416.666992188 583.333007812 l 1
 416.666992188 541.666992188 l 1025
416.666992188 500 m 1
 541.666992188 500 l 1
 541.666992188 541.666992188 l 1
 416.666992188 541.666992188 l 1
 416.666992188 500 l 1025
375 458.333007812 m 1
 500 458.333007812 l 1
 500 500 l 1
 375 500 l 1
 375 458.333007812 l 1025
208.333007812 416.666992188 m 1
 458.333007812 416.666992188 l 1
 458.333007812 458.333007812 l 1
 208.333007812 458.333007812 l 1
 208.333007812 416.666992188 l 1025
208.333007812 375 m 1
 375 375 l 1
 375 416.666992188 l 1
 208.333007812 416.666992188 l 1
 208.333007812 375 l 1025
333.333007812 333.333007812 m 1
 458.333007812 333.333007812 l 1
 458.333007812 375 l 1
 333.333007812 375 l 1
 333.333007812 333.333007812 l 1025
375 291.666992188 m 1
 500 291.666992188 l 1
 500 333.333007812 l 1
 375 333.333007812 l 1
 375 291.666992188 l 1025
416.666992188 250 m 1
 541.666992188 250 l 1
 541.666992188 291.666992188 l 1
 416.666992188 291.666992188 l 1
 416.666992188 250 l 1025
416.666992188 208.333007812 m 1
 541.666992188 208.333007812 l 1
 541.666992188 250 l 1
 416.666992188 250 l 1
 416.666992188 208.333007812 l 1025
416.666992188 166.666992188 m 1
 541.666992188 166.666992188 l 1
 541.666992188 208.333007812 l 1
 416.666992188 208.333007812 l 1
 416.666992188 166.666992188 l 1025
416.666992188 125 m 1
 541.666992188 125 l 1
 541.666992188 166.666992188 l 1
 416.666992188 166.666992188 l 1
 416.666992188 125 l 1025
125 83.3330078125 m 1
 166.666992188 83.3330078125 l 1
 166.666992188 125 l 1
 125 125 l 1
 125 83.3330078125 l 1025
375 83.3330078125 m 1
 500 83.3330078125 l 1
 500 125 l 1
 375 125 l 1
 375 83.3330078125 l 1025
125 41.6669921875 m 1
 458.333007812 41.6669921875 l 1
 458.333007812 83.3330078125 l 1
 125 83.3330078125 l 1
 125 41.6669921875 l 1025
125 0 m 1
 416.666992188 0 l 1
 416.666992188 41.6669921875 l 1
 125 41.6669921875 l 1
 125 0 l 1
EndSplineSet
EndChar

StartChar: four
Encoding: 52 52 21
Width: 916
VWidth: 0
Flags: HW
LayerCount: 2
Back
Fore
SplineSet
375 708.333007812 m 1
 500 708.333007812 l 1
 500 750 l 1
 375 750 l 1
 375 708.333007812 l 1025
333.333007812 666.666992188 m 1
 500 666.666992188 l 1
 500 708.333007812 l 1
 333.333007812 708.333007812 l 1
 333.333007812 666.666992188 l 1025
291.666992188 625 m 1
 500 625 l 1
 500 666.666992188 l 1
 291.666992188 666.666992188 l 1
 291.666992188 625 l 1025
291.666992188 583.333007812 m 1
 500 583.333007812 l 1
 500 625 l 1
 291.666992188 625 l 1
 291.666992188 583.333007812 l 1025
250 541.666992188 m 1
 333.333007812 541.666992188 l 1
 333.333007812 583.333007812 l 1
 250 583.333007812 l 1
 250 541.666992188 l 1025
375 541.666992188 m 1
 500 541.666992188 l 1
 500 583.333007812 l 1
 375 583.333007812 l 1
 375 541.666992188 l 1025
208.333007812 500 m 1
 333.333007812 500 l 1
 333.333007812 541.666992188 l 1
 208.333007812 541.666992188 l 1
 208.333007812 500 l 1025
375 500 m 1
 500 500 l 1
 500 541.666992188 l 1
 375 541.666992188 l 1
 375 500 l 1025
166.666992188 458.333007812 m 1
 291.666992188 458.333007812 l 1
 291.666992188 500 l 1
 166.666992188 500 l 1
 166.666992188 458.333007812 l 1025
375 458.333007812 m 1
 500 458.333007812 l 1
 500 500 l 1
 375 500 l 1
 375 458.333007812 l 1025
125 416.666992188 m 1
 250 416.666992188 l 1
 250 458.333007812 l 1
 125 458.333007812 l 1
 125 416.666992188 l 1025
375 416.666992188 m 1
 500 416.666992188 l 1
 500 458.333007812 l 1
 375 458.333007812 l 1
 375 416.666992188 l 1025
125 375 m 1
 208.333007812 375 l 1
 208.333007812 416.666992188 l 1
 125 416.666992188 l 1
 125 375 l 1025
375 375 m 1
 500 375 l 1
 500 416.666992188 l 1
 375 416.666992188 l 1
 375 375 l 1025
83.3330078125 333.333007812 m 1
 208.333007812 333.333007812 l 1
 208.333007812 375 l 1
 83.3330078125 375 l 1
 83.3330078125 333.333007812 l 1025
375 333.333007812 m 1
 500 333.333007812 l 1
 500 375 l 1
 375 375 l 1
 375 333.333007812 l 1025
41.6669921875 291.666992188 m 1
 166.666992188 291.666992188 l 1
 166.666992188 333.333007812 l 1
 41.6669921875 333.333007812 l 1
 41.6669921875 291.666992188 l 1025
375 291.666992188 m 1
 500 291.666992188 l 1
 500 333.333007812 l 1
 375 333.333007812 l 1
 375 291.666992188 l 1025
41.6669921875 250 m 1
 583.333007812 250 l 1
 583.333007812 291.666992188 l 1
 41.6669921875 291.666992188 l 1
 41.6669921875 250 l 1025
41.6669921875 208.333007812 m 1
 583.333007812 208.333007812 l 1
 583.333007812 250 l 1
 41.6669921875 250 l 1
 41.6669921875 208.333007812 l 1025
375 166.666992188 m 1
 500 166.666992188 l 1
 500 208.333007812 l 1
 375 208.333007812 l 1
 375 166.666992188 l 1025
375 125 m 1
 500 125 l 1
 500 166.666992188 l 1
 375 166.666992188 l 1
 375 125 l 1025
375 83.3330078125 m 1
 500 83.3330078125 l 1
 500 125 l 1
 375 125 l 1
 375 83.3330078125 l 1025
375 41.6669921875 m 1
 500 41.6669921875 l 1
 500 83.3330078125 l 1
 375 83.3330078125 l 1
 375 41.6669921875 l 1025
375 0 m 1
 500 0 l 1
 500 41.6669921875 l 1
 375 41.6669921875 l 1
 375 0 l 1
EndSplineSet
EndChar

StartChar: five
Encoding: 53 53 22
Width: 916
VWidth: 0
Flags: HW
LayerCount: 2
Back
Fore
SplineSet
125 708.333007812 m 1
 500 708.333007812 l 1
 500 750 l 1
 125 750 l 1
 125 708.333007812 l 1025
125 666.666992188 m 1
 500 666.666992188 l 1
 500 708.333007812 l 1
 125 708.333007812 l 1
 125 666.666992188 l 1025
125 625 m 1
 208.333007812 625 l 1
 208.333007812 666.666992188 l 1
 125 666.666992188 l 1
 125 625 l 1025
125 583.333007812 m 1
 208.333007812 583.333007812 l 1
 208.333007812 625 l 1
 125 625 l 1
 125 583.333007812 l 1025
125 541.666992188 m 1
 208.333007812 541.666992188 l 1
 208.333007812 583.333007812 l 1
 125 583.333007812 l 1
 125 541.666992188 l 1025
125 500 m 1
 208.333007812 500 l 1
 208.333007812 541.666992188 l 1
 125 541.666992188 l 1
 125 500 l 1025
125 458.333007812 m 1
 333.333007812 458.333007812 l 1
 333.333007812 500 l 1
 125 500 l 1
 125 458.333007812 l 1025
125 416.666992188 m 1
 416.666992188 416.666992188 l 1
 416.666992188 458.333007812 l 1
 125 458.333007812 l 1
 125 416.666992188 l 1025
291.666992188 375 m 1
 458.333007812 375 l 1
 458.333007812 416.666992188 l 1
 291.666992188 416.666992188 l 1
 291.666992188 375 l 1025
333.333007812 333.333007812 m 1
 458.333007812 333.333007812 l 1
 458.333007812 375 l 1
 333.333007812 375 l 1
 333.333007812 333.333007812 l 1025
375 291.666992188 m 1
 500 291.666992188 l 1
 500 333.333007812 l 1
 375 333.333007812 l 1
 375 291.666992188 l 1025
375 250 m 1
 500 250 l 1
 500 291.666992188 l 1
 375 291.666992188 l 1
 375 250 l 1025
375 208.333007812 m 1
 500 208.333007812 l 1
 500 250 l 1
 375 250 l 1
 375 208.333007812 l 1025
375 166.666992188 m 1
 500 166.666992188 l 1
 500 208.333007812 l 1
 375 208.333007812 l 1
 375 166.666992188 l 1025
333.333007812 125 m 1
 500 125 l 1
 500 166.666992188 l 1
 333.333007812 166.666992188 l 1
 333.333007812 125 l 1025
125 83.3330078125 m 1
 166.666992188 83.3330078125 l 1
 166.666992188 125 l 1
 125 125 l 1
 125 83.3330078125 l 1025
333.333007812 83.3330078125 m 1
 458.333007812 83.3330078125 l 1
 458.333007812 125 l 1
 333.333007812 125 l 1
 333.333007812 83.3330078125 l 1025
125 41.6669921875 m 1
 416.666992188 41.6669921875 l 1
 416.666992188 83.3330078125 l 1
 125 83.3330078125 l 1
 125 41.6669921875 l 1025
125 0 m 1
 375 0 l 1
 375 41.6669921875 l 1
 125 41.6669921875 l 1
 125 0 l 1
EndSplineSet
EndChar

StartChar: six
Encoding: 54 54 23
Width: 916
VWidth: 0
Flags: HW
LayerCount: 2
Back
Fore
SplineSet
291.666992188 708.333007812 m 1
 500 708.333007812 l 1
 500 750 l 1
 291.666992188 750 l 1
 291.666992188 708.333007812 l 1025
208.333007812 666.666992188 m 1
 541.666992188 666.666992188 l 1
 541.666992188 708.333007812 l 1
 208.333007812 708.333007812 l 1
 208.333007812 666.666992188 l 1025
166.666992188 625 m 1
 333.333007812 625 l 1
 333.333007812 666.666992188 l 1
 166.666992188 666.666992188 l 1
 166.666992188 625 l 1025
500 625 m 1
 541.666992188 625 l 1
 541.666992188 666.666992188 l 1
 500 666.666992188 l 1
 500 625 l 1025
125 583.333007812 m 1
 250 583.333007812 l 1
 250 625 l 1
 125 625 l 1
 125 583.333007812 l 1025
125 541.666992188 m 1
 250 541.666992188 l 1
 250 583.333007812 l 1
 125 583.333007812 l 1
 125 541.666992188 l 1025
125 500 m 1
 208.333007812 500 l 1
 208.333007812 541.666992188 l 1
 125 541.666992188 l 1
 125 500 l 1025
83.3330078125 458.333007812 m 1
 208.333007812 458.333007812 l 1
 208.333007812 500 l 1
 83.3330078125 500 l 1
 83.3330078125 458.333007812 l 1025
83.3330078125 416.666992188 m 1
 208.333007812 416.666992188 l 1
 208.333007812 458.333007812 l 1
 83.3330078125 458.333007812 l 1
 83.3330078125 416.666992188 l 1025
291.666992188 416.666992188 m 1
 458.333007812 416.666992188 l 1
 458.333007812 458.333007812 l 1
 291.666992188 458.333007812 l 1
 291.666992188 416.666992188 l 1025
83.3330078125 375 m 1
 208.333007812 375 l 1
 208.333007812 416.666992188 l 1
 83.3330078125 416.666992188 l 1
 83.3330078125 375 l 1025
250 375 m 1
 541.666992188 375 l 1
 541.666992188 416.666992188 l 1
 250 416.666992188 l 1
 250 375 l 1025
83.3330078125 333.333007812 m 1
 250 333.333007812 l 1
 250 375 l 1
 83.3330078125 375 l 1
 83.3330078125 333.333007812 l 1025
416.666992188 333.333007812 m 1
 541.666992188 333.333007812 l 1
 541.666992188 375 l 1
 416.666992188 375 l 1
 416.666992188 333.333007812 l 1025
83.3330078125 291.666992188 m 1
 208.333007812 291.666992188 l 1
 208.333007812 333.333007812 l 1
 83.3330078125 333.333007812 l 1
 83.3330078125 291.666992188 l 1025
458.333007812 291.666992188 m 1
 583.333007812 291.666992188 l 1
 583.333007812 333.333007812 l 1
 458.333007812 333.333007812 l 1
 458.333007812 291.666992188 l 1025
83.3330078125 250 m 1
 208.333007812 250 l 1
 208.333007812 291.666992188 l 1
 83.3330078125 291.666992188 l 1
 83.3330078125 250 l 1025
458.333007812 250 m 1
 583.333007812 250 l 1
 583.333007812 291.666992188 l 1
 458.333007812 291.666992188 l 1
 458.333007812 250 l 1025
83.3330078125 208.333007812 m 1
 208.333007812 208.333007812 l 1
 208.333007812 250 l 1
 83.3330078125 250 l 1
 83.3330078125 208.333007812 l 1025
458.333007812 208.333007812 m 1
 583.333007812 208.333007812 l 1
 583.333007812 250 l 1
 458.333007812 250 l 1
 458.333007812 208.333007812 l 1025
83.3330078125 166.666992188 m 1
 208.333007812 166.666992188 l 1
 208.333007812 208.333007812 l 1
 83.3330078125 208.333007812 l 1
 83.3330078125 166.666992188 l 1025
458.333007812 166.666992188 m 1
 583.333007812 166.666992188 l 1
 583.333007812 208.333007812 l 1
 458.333007812 208.333007812 l 1
 458.333007812 166.666992188 l 1025
125 125 m 1
 250 125 l 1
 250 166.666992188 l 1
 125 166.666992188 l 1
 125 125 l 1025
458.333007812 125 m 1
 583.333007812 125 l 1
 583.333007812 166.666992188 l 1
 458.333007812 166.666992188 l 1
 458.333007812 125 l 1025
125 83.3330078125 m 1
 250 83.3330078125 l 1
 250 125 l 1
 125 125 l 1
 125 83.3330078125 l 1025
416.666992188 83.3330078125 m 1
 541.666992188 83.3330078125 l 1
 541.666992188 125 l 1
 416.666992188 125 l 1
 416.666992188 83.3330078125 l 1025
166.666992188 41.6669921875 m 1
 500 41.6669921875 l 1
 500 83.3330078125 l 1
 166.666992188 83.3330078125 l 1
 166.666992188 41.6669921875 l 1025
250 0 m 1
 458.333007812 0 l 1
 458.333007812 41.6669921875 l 1
 250 41.6669921875 l 1
 250 0 l 1
EndSplineSet
EndChar

StartChar: seven
Encoding: 55 55 24
Width: 916
VWidth: 0
Flags: HW
LayerCount: 2
Back
Fore
SplineSet
83.3330078125 708.333007812 m 1
 541.666992188 708.333007812 l 1
 541.666992188 750 l 1
 83.3330078125 750 l 1
 83.3330078125 708.333007812 l 1025
83.3330078125 666.666992188 m 1
 541.666992188 666.666992188 l 1
 541.666992188 708.333007812 l 1
 83.3330078125 708.333007812 l 1
 83.3330078125 666.666992188 l 1025
83.3330078125 625 m 1
 541.666992188 625 l 1
 541.666992188 666.666992188 l 1
 83.3330078125 666.666992188 l 1
 83.3330078125 625 l 1025
416.666992188 583.333007812 m 1
 500 583.333007812 l 1
 500 625 l 1
 416.666992188 625 l 1
 416.666992188 583.333007812 l 1025
375 541.666992188 m 1
 500 541.666992188 l 1
 500 583.333007812 l 1
 375 583.333007812 l 1
 375 541.666992188 l 1025
375 500 m 1
 458.333007812 500 l 1
 458.333007812 541.666992188 l 1
 375 541.666992188 l 1
 375 500 l 1025
333.333007812 458.333007812 m 1
 458.333007812 458.333007812 l 1
 458.333007812 500 l 1
 333.333007812 500 l 1
 333.333007812 458.333007812 l 1025
333.333007812 416.666992188 m 1
 416.666992188 416.666992188 l 1
 416.666992188 458.333007812 l 1
 333.333007812 458.333007812 l 1
 333.333007812 416.666992188 l 1025
291.666992188 375 m 1
 416.666992188 375 l 1
 416.666992188 416.666992188 l 1
 291.666992188 416.666992188 l 1
 291.666992188 375 l 1025
291.666992188 333.333007812 m 1
 375 333.333007812 l 1
 375 375 l 1
 291.666992188 375 l 1
 291.666992188 333.333007812 l 1025
250 291.666992188 m 1
 375 291.666992188 l 1
 375 333.333007812 l 1
 250 333.333007812 l 1
 250 291.666992188 l 1025
208.333007812 250 m 1
 333.333007812 250 l 1
 333.333007812 291.666992188 l 1
 208.333007812 291.666992188 l 1
 208.333007812 250 l 1025
208.333007812 208.333007812 m 1
 333.333007812 208.333007812 l 1
 333.333007812 250 l 1
 208.333007812 250 l 1
 208.333007812 208.333007812 l 1025
166.666992188 166.666992188 m 1
 291.666992188 166.666992188 l 1
 291.666992188 208.333007812 l 1
 166.666992188 208.333007812 l 1
 166.666992188 166.666992188 l 1025
166.666992188 125 m 1
 291.666992188 125 l 1
 291.666992188 166.666992188 l 1
 166.666992188 166.666992188 l 1
 166.666992188 125 l 1025
166.666992188 83.3330078125 m 1
 291.666992188 83.3330078125 l 1
 291.666992188 125 l 1
 166.666992188 125 l 1
 166.666992188 83.3330078125 l 1025
125 41.6669921875 m 1
 250 41.6669921875 l 1
 250 83.3330078125 l 1
 125 83.3330078125 l 1
 125 41.6669921875 l 1025
125 0 m 1
 250 0 l 1
 250 41.6669921875 l 1
 125 41.6669921875 l 1
 125 0 l 1
EndSplineSet
EndChar

StartChar: eight
Encoding: 56 56 25
Width: 916
VWidth: 0
Flags: HW
LayerCount: 2
Back
Fore
SplineSet
250 708.333007812 m 1
 458.333007812 708.333007812 l 1
 458.333007812 750 l 1
 250 750 l 1
 250 708.333007812 l 1025
166.666992188 666.666992188 m 1
 500 666.666992188 l 1
 500 708.333007812 l 1
 166.666992188 708.333007812 l 1
 166.666992188 666.666992188 l 1025
125 625 m 1
 291.666992188 625 l 1
 291.666992188 666.666992188 l 1
 125 666.666992188 l 1
 125 625 l 1025
416.666992188 625 m 1
 541.666992188 625 l 1
 541.666992188 666.666992188 l 1
 416.666992188 666.666992188 l 1
 416.666992188 625 l 1025
125 583.333007812 m 1
 250 583.333007812 l 1
 250 625 l 1
 125 625 l 1
 125 583.333007812 l 1025
458.333007812 583.333007812 m 1
 541.666992188 583.333007812 l 1
 541.666992188 625 l 1
 458.333007812 625 l 1
 458.333007812 583.333007812 l 1025
125 541.666992188 m 1
 250 541.666992188 l 1
 250 583.333007812 l 1
 125 583.333007812 l 1
 125 541.666992188 l 1025
458.333007812 541.666992188 m 1
 541.666992188 541.666992188 l 1
 541.666992188 583.333007812 l 1
 458.333007812 583.333007812 l 1
 458.333007812 541.666992188 l 1025
125 500 m 1
 250 500 l 1
 250 541.666992188 l 1
 125 541.666992188 l 1
 125 500 l 1025
458.333007812 500 m 1
 541.666992188 500 l 1
 541.666992188 541.666992188 l 1
 458.333007812 541.666992188 l 1
 458.333007812 500 l 1025
166.666992188 458.333007812 m 1
 291.666992188 458.333007812 l 1
 291.666992188 500 l 1
 166.666992188 500 l 1
 166.666992188 458.333007812 l 1025
416.666992188 458.333007812 m 1
 500 458.333007812 l 1
 500 500 l 1
 416.666992188 500 l 1
 416.666992188 458.333007812 l 1025
208.333007812 416.666992188 m 1
 458.333007812 416.666992188 l 1
 458.333007812 458.333007812 l 1
 208.333007812 458.333007812 l 1
 208.333007812 416.666992188 l 1025
208.333007812 375 m 1
 458.333007812 375 l 1
 458.333007812 416.666992188 l 1
 208.333007812 416.666992188 l 1
 208.333007812 375 l 1025
166.666992188 333.333007812 m 1
 500 333.333007812 l 1
 500 375 l 1
 166.666992188 375 l 1
 166.666992188 333.333007812 l 1025
125 291.666992188 m 1
 250 291.666992188 l 1
 250 333.333007812 l 1
 125 333.333007812 l 1
 125 291.666992188 l 1025
375 291.666992188 m 1
 541.666992188 291.666992188 l 1
 541.666992188 333.333007812 l 1
 375 333.333007812 l 1
 375 291.666992188 l 1025
83.3330078125 250 m 1
 208.333007812 250 l 1
 208.333007812 291.666992188 l 1
 83.3330078125 291.666992188 l 1
 83.3330078125 250 l 1025
416.666992188 250 m 1
 583.333007812 250 l 1
 583.333007812 291.666992188 l 1
 416.666992188 291.666992188 l 1
 416.666992188 250 l 1025
83.3330078125 208.333007812 m 1
 208.333007812 208.333007812 l 1
 208.333007812 250 l 1
 83.3330078125 250 l 1
 83.3330078125 208.333007812 l 1025
458.333007812 208.333007812 m 1
 583.333007812 208.333007812 l 1
 583.333007812 250 l 1
 458.333007812 250 l 1
 458.333007812 208.333007812 l 1025
83.3330078125 166.666992188 m 1
 208.333007812 166.666992188 l 1
 208.333007812 208.333007812 l 1
 83.3330078125 208.333007812 l 1
 83.3330078125 166.666992188 l 1025
458.333007812 166.666992188 m 1
 583.333007812 166.666992188 l 1
 583.333007812 208.333007812 l 1
 458.333007812 208.333007812 l 1
 458.333007812 166.666992188 l 1025
83.3330078125 125 m 1
 208.333007812 125 l 1
 208.333007812 166.666992188 l 1
 83.3330078125 166.666992188 l 1
 83.3330078125 125 l 1025
458.333007812 125 m 1
 583.333007812 125 l 1
 583.333007812 166.666992188 l 1
 458.333007812 166.666992188 l 1
 458.333007812 125 l 1025
125 83.3330078125 m 1
 250 83.3330078125 l 1
 250 125 l 1
 125 125 l 1
 125 83.3330078125 l 1025
416.666992188 83.3330078125 m 1
 541.666992188 83.3330078125 l 1
 541.666992188 125 l 1
 416.666992188 125 l 1
 416.666992188 83.3330078125 l 1025
125 41.6669921875 m 1
 500 41.6669921875 l 1
 500 83.3330078125 l 1
 125 83.3330078125 l 1
 125 41.6669921875 l 1025
208.333007812 0 m 1
 458.333007812 0 l 1
 458.333007812 41.6669921875 l 1
 208.333007812 41.6669921875 l 1
 208.333007812 0 l 1
EndSplineSet
EndChar

StartChar: nine
Encoding: 57 57 26
Width: 916
VWidth: 0
Flags: HW
LayerCount: 2
Back
Fore
SplineSet
208.333007812 708.333007812 m 1
 416.666992188 708.333007812 l 1
 416.666992188 750 l 1
 208.333007812 750 l 1
 208.333007812 708.333007812 l 1025
166.666992188 666.666992188 m 1
 500 666.666992188 l 1
 500 708.333007812 l 1
 166.666992188 708.333007812 l 1
 166.666992188 666.666992188 l 1025
125 625 m 1
 250 625 l 1
 250 666.666992188 l 1
 125 666.666992188 l 1
 125 625 l 1025
416.666992188 625 m 1
 541.666992188 625 l 1
 541.666992188 666.666992188 l 1
 416.666992188 666.666992188 l 1
 416.666992188 625 l 1025
83.3330078125 583.333007812 m 1
 208.333007812 583.333007812 l 1
 208.333007812 625 l 1
 83.3330078125 625 l 1
 83.3330078125 583.333007812 l 1025
416.666992188 583.333007812 m 1
 541.666992188 583.333007812 l 1
 541.666992188 625 l 1
 416.666992188 625 l 1
 416.666992188 583.333007812 l 1025
83.3330078125 541.666992188 m 1
 208.333007812 541.666992188 l 1
 208.333007812 583.333007812 l 1
 83.3330078125 583.333007812 l 1
 83.3330078125 541.666992188 l 1025
458.333007812 541.666992188 m 1
 583.333007812 541.666992188 l 1
 583.333007812 583.333007812 l 1
 458.333007812 583.333007812 l 1
 458.333007812 541.666992188 l 1025
83.3330078125 500 m 1
 208.333007812 500 l 1
 208.333007812 541.666992188 l 1
 83.3330078125 541.666992188 l 1
 83.3330078125 500 l 1025
458.333007812 500 m 1
 583.333007812 500 l 1
 583.333007812 541.666992188 l 1
 458.333007812 541.666992188 l 1
 458.333007812 500 l 1025
83.3330078125 458.333007812 m 1
 208.333007812 458.333007812 l 1
 208.333007812 500 l 1
 83.3330078125 500 l 1
 83.3330078125 458.333007812 l 1025
458.333007812 458.333007812 m 1
 583.333007812 458.333007812 l 1
 583.333007812 500 l 1
 458.333007812 500 l 1
 458.333007812 458.333007812 l 1025
83.3330078125 416.666992188 m 1
 208.333007812 416.666992188 l 1
 208.333007812 458.333007812 l 1
 83.3330078125 458.333007812 l 1
 83.3330078125 416.666992188 l 1025
458.333007812 416.666992188 m 1
 583.333007812 416.666992188 l 1
 583.333007812 458.333007812 l 1
 458.333007812 458.333007812 l 1
 458.333007812 416.666992188 l 1025
125 375 m 1
 250 375 l 1
 250 416.666992188 l 1
 125 416.666992188 l 1
 125 375 l 1025
416.666992188 375 m 1
 583.333007812 375 l 1
 583.333007812 416.666992188 l 1
 416.666992188 416.666992188 l 1
 416.666992188 375 l 1025
125 333.333007812 m 1
 416.666992188 333.333007812 l 1
 416.666992188 375 l 1
 125 375 l 1
 125 333.333007812 l 1025
458.333007812 333.333007812 m 1
 583.333007812 333.333007812 l 1
 583.333007812 375 l 1
 458.333007812 375 l 1
 458.333007812 333.333007812 l 1025
208.333007812 291.666992188 m 1
 375 291.666992188 l 1
 375 333.333007812 l 1
 208.333007812 333.333007812 l 1
 208.333007812 291.666992188 l 1025
458.333007812 291.666992188 m 1
 583.333007812 291.666992188 l 1
 583.333007812 333.333007812 l 1
 458.333007812 333.333007812 l 1
 458.333007812 291.666992188 l 1025
458.333007812 250 m 1
 583.333007812 250 l 1
 583.333007812 291.666992188 l 1
 458.333007812 291.666992188 l 1
 458.333007812 250 l 1025
458.333007812 208.333007812 m 1
 541.666992188 208.333007812 l 1
 541.666992188 250 l 1
 458.333007812 250 l 1
 458.333007812 208.333007812 l 1025
416.666992188 166.666992188 m 1
 541.666992188 166.666992188 l 1
 541.666992188 208.333007812 l 1
 416.666992188 208.333007812 l 1
 416.666992188 166.666992188 l 1025
416.666992188 125 m 1
 541.666992188 125 l 1
 541.666992188 166.666992188 l 1
 416.666992188 166.666992188 l 1
 416.666992188 125 l 1025
125 83.3330078125 m 1
 166.666992188 83.3330078125 l 1
 166.666992188 125 l 1
 125 125 l 1
 125 83.3330078125 l 1025
333.333007812 83.3330078125 m 1
 500 83.3330078125 l 1
 500 125 l 1
 333.333007812 125 l 1
 333.333007812 83.3330078125 l 1025
125 41.6669921875 m 1
 458.333007812 41.6669921875 l 1
 458.333007812 83.3330078125 l 1
 125 83.3330078125 l 1
 125 41.6669921875 l 1025
166.666992188 0 m 1
 375 0 l 1
 375 41.6669921875 l 1
 166.666992188 41.6669921875 l 1
 166.666992188 0 l 1
EndSplineSet
EndChar

StartChar: colon
Encoding: 58 58 27
Width: 916
VWidth: 0
Flags: HW
LayerCount: 2
Back
Fore
SplineSet
208.333007812 500 m 1
 375 500 l 1
 375 541.666992188 l 1
 208.333007812 541.666992188 l 1
 208.333007812 500 l 1025
208.333007812 458.333007812 m 1
 375 458.333007812 l 1
 375 500 l 1
 208.333007812 500 l 1
 208.333007812 458.333007812 l 1025
208.333007812 416.666992188 m 1
 375 416.666992188 l 1
 375 458.333007812 l 1
 208.333007812 458.333007812 l 1
 208.333007812 416.666992188 l 1025
208.333007812 375 m 1
 375 375 l 1
 375 416.666992188 l 1
 208.333007812 416.666992188 l 1
 208.333007812 375 l 1025
208.333007812 125 m 1
 375 125 l 1
 375 166.666992188 l 1
 208.333007812 166.666992188 l 1
 208.333007812 125 l 1025
208.333007812 83.3330078125 m 1
 375 83.3330078125 l 1
 375 125 l 1
 208.333007812 125 l 1
 208.333007812 83.3330078125 l 1025
208.333007812 41.6669921875 m 1
 375 41.6669921875 l 1
 375 83.3330078125 l 1
 208.333007812 83.3330078125 l 1
 208.333007812 41.6669921875 l 1025
208.333007812 0 m 1
 375 0 l 1
 375 41.6669921875 l 1
 208.333007812 41.6669921875 l 1
 208.333007812 0 l 1
EndSplineSet
EndChar

StartChar: semicolon
Encoding: 59 59 28
Width: 916
VWidth: 0
Flags: HW
LayerCount: 2
Back
Fore
SplineSet
208.333007812 500 m 1
 375 500 l 1
 375 541.666992188 l 1
 208.333007812 541.666992188 l 1
 208.333007812 500 l 1025
208.333007812 458.333007812 m 1
 375 458.333007812 l 1
 375 500 l 1
 208.333007812 500 l 1
 208.333007812 458.333007812 l 1025
208.333007812 416.666992188 m 1
 375 416.666992188 l 1
 375 458.333007812 l 1
 208.333007812 458.333007812 l 1
 208.333007812 416.666992188 l 1025
208.333007812 375 m 1
 375 375 l 1
 375 416.666992188 l 1
 208.333007812 416.666992188 l 1
 208.333007812 375 l 1025
208.333007812 125 m 1
 375 125 l 1
 375 166.666992188 l 1
 208.333007812 166.666992188 l 1
 208.333007812 125 l 1025
208.333007812 83.3330078125 m 1
 375 83.3330078125 l 1
 375 125 l 1
 208.333007812 125 l 1
 208.333007812 83.3330078125 l 1025
208.333007812 41.6669921875 m 1
 375 41.6669921875 l 1
 375 83.3330078125 l 1
 208.333007812 83.3330078125 l 1
 208.333007812 41.6669921875 l 1025
208.333007812 0 m 1
 375 0 l 1
 375 41.6669921875 l 1
 208.333007812 41.6669921875 l 1
 208.333007812 0 l 1025
291.666992188 -41.6669921875 m 1
 375 -41.6669921875 l 1
 375 0 l 1
 291.666992188 0 l 1
 291.666992188 -41.6669921875 l 1025
291.666992188 -83.3330078125 m 1
 375 -83.3330078125 l 1
 375 -41.6669921875 l 1
 291.666992188 -41.6669921875 l 1
 291.666992188 -83.3330078125 l 1025
250 -125 m 1
 333.333007812 -125 l 1
 333.333007812 -83.3330078125 l 1
 250 -83.3330078125 l 1
 250 -125 l 1025
208.333007812 -166.666992188 m 1
 291.666992188 -166.666992188 l 1
 291.666992188 -125 l 1
 208.333007812 -125 l 1
 208.333007812 -166.666992188 l 1
EndSplineSet
EndChar

StartChar: less
Encoding: 60 60 29
Width: 916
VWidth: 0
Flags: HW
LayerCount: 2
Back
Fore
SplineSet
541.666992188 500 m 1
 583.333007812 500 l 1
 583.333007812 541.666992188 l 1
 541.666992188 541.666992188 l 1
 541.666992188 500 l 1025
458.333007812 458.333007812 m 1
 583.333007812 458.333007812 l 1
 583.333007812 500 l 1
 458.333007812 500 l 1
 458.333007812 458.333007812 l 1025
375 416.666992188 m 1
 541.666992188 416.666992188 l 1
 541.666992188 458.333007812 l 1
 375 458.333007812 l 1
 375 416.666992188 l 1025
291.666992188 375 m 1
 458.333007812 375 l 1
 458.333007812 416.666992188 l 1
 291.666992188 416.666992188 l 1
 291.666992188 375 l 1025
208.333007812 333.333007812 m 1
 375 333.333007812 l 1
 375 375 l 1
 208.333007812 375 l 1
 208.333007812 333.333007812 l 1025
125 291.666992188 m 1
 291.666992188 291.666992188 l 1
 291.666992188 333.333007812 l 1
 125 333.333007812 l 1
 125 291.666992188 l 1025
41.6669921875 250 m 1
 208.333007812 250 l 1
 208.333007812 291.666992188 l 1
 41.6669921875 291.666992188 l 1
 41.6669921875 250 l 1025
125 208.333007812 m 1
 291.666992188 208.333007812 l 1
 291.666992188 250 l 1
 125 250 l 1
 125 208.333007812 l 1025
208.333007812 166.666992188 m 1
 375 166.666992188 l 1
 375 208.333007812 l 1
 208.333007812 208.333007812 l 1
 208.333007812 166.666992188 l 1025
291.666992188 125 m 1
 458.333007812 125 l 1
 458.333007812 166.666992188 l 1
 291.666992188 166.666992188 l 1
 291.666992188 125 l 1025
375 83.3330078125 m 1
 541.666992188 83.3330078125 l 1
 541.666992188 125 l 1
 375 125 l 1
 375 83.3330078125 l 1025
458.333007812 41.6669921875 m 1
 583.333007812 41.6669921875 l 1
 583.333007812 83.3330078125 l 1
 458.333007812 83.3330078125 l 1
 458.333007812 41.6669921875 l 1025
541.666992188 0 m 1
 583.333007812 0 l 1
 583.333007812 41.6669921875 l 1
 541.666992188 41.6669921875 l 1
 541.666992188 0 l 1
EndSplineSet
EndChar

StartChar: equal
Encoding: 61 61 30
Width: 916
VWidth: 0
Flags: HW
LayerCount: 2
Back
Fore
SplineSet
41.6669921875 333.333007812 m 1
 583.333007812 333.333007812 l 1
 583.333007812 375 l 1
 41.6669921875 375 l 1
 41.6669921875 333.333007812 l 1025
41.6669921875 291.666992188 m 1
 583.333007812 291.666992188 l 1
 583.333007812 333.333007812 l 1
 41.6669921875 333.333007812 l 1
 41.6669921875 291.666992188 l 1025
41.6669921875 166.666992188 m 1
 583.333007812 166.666992188 l 1
 583.333007812 208.333007812 l 1
 41.6669921875 208.333007812 l 1
 41.6669921875 166.666992188 l 1025
41.6669921875 125 m 1
 583.333007812 125 l 1
 583.333007812 166.666992188 l 1
 41.6669921875 166.666992188 l 1
 41.6669921875 125 l 1
EndSplineSet
EndChar

StartChar: greater
Encoding: 62 62 31
Width: 916
VWidth: 0
Flags: HW
LayerCount: 2
Back
Fore
SplineSet
41.6669921875 500 m 1
 83.3330078125 500 l 1
 83.3330078125 541.666992188 l 1
 41.6669921875 541.666992188 l 1
 41.6669921875 500 l 1025
41.6669921875 458.333007812 m 1
 166.666992188 458.333007812 l 1
 166.666992188 500 l 1
 41.6669921875 500 l 1
 41.6669921875 458.333007812 l 1025
83.3330078125 416.666992188 m 1
 250 416.666992188 l 1
 250 458.333007812 l 1
 83.3330078125 458.333007812 l 1
 83.3330078125 416.666992188 l 1025
166.666992188 375 m 1
 333.333007812 375 l 1
 333.333007812 416.666992188 l 1
 166.666992188 416.666992188 l 1
 166.666992188 375 l 1025
250 333.333007812 m 1
 416.666992188 333.333007812 l 1
 416.666992188 375 l 1
 250 375 l 1
 250 333.333007812 l 1025
333.333007812 291.666992188 m 1
 500 291.666992188 l 1
 500 333.333007812 l 1
 333.333007812 333.333007812 l 1
 333.333007812 291.666992188 l 1025
416.666992188 250 m 1
 583.333007812 250 l 1
 583.333007812 291.666992188 l 1
 416.666992188 291.666992188 l 1
 416.666992188 250 l 1025
333.333007812 208.333007812 m 1
 500 208.333007812 l 1
 500 250 l 1
 333.333007812 250 l 1
 333.333007812 208.333007812 l 1025
250 166.666992188 m 1
 416.666992188 166.666992188 l 1
 416.666992188 208.333007812 l 1
 250 208.333007812 l 1
 250 166.666992188 l 1025
166.666992188 125 m 1
 333.333007812 125 l 1
 333.333007812 166.666992188 l 1
 166.666992188 166.666992188 l 1
 166.666992188 125 l 1025
83.3330078125 83.3330078125 m 1
 250 83.3330078125 l 1
 250 125 l 1
 83.3330078125 125 l 1
 83.3330078125 83.3330078125 l 1025
41.6669921875 41.6669921875 m 1
 166.666992188 41.6669921875 l 1
 166.666992188 83.3330078125 l 1
 41.6669921875 83.3330078125 l 1
 41.6669921875 41.6669921875 l 1025
41.6669921875 0 m 1
 83.3330078125 0 l 1
 83.3330078125 41.6669921875 l 1
 41.6669921875 41.6669921875 l 1
 41.6669921875 0 l 1
EndSplineSet
EndChar

StartChar: question
Encoding: 63 63 32
Width: 916
VWidth: 0
Flags: HW
LayerCount: 2
Back
Fore
SplineSet
125 708.333007812 m 1
 458.333007812 708.333007812 l 1
 458.333007812 750 l 1
 125 750 l 1
 125 708.333007812 l 1025
83.3330078125 666.666992188 m 1
 541.666992188 666.666992188 l 1
 541.666992188 708.333007812 l 1
 83.3330078125 708.333007812 l 1
 83.3330078125 666.666992188 l 1025
83.3330078125 625 m 1
 166.666992188 625 l 1
 166.666992188 666.666992188 l 1
 83.3330078125 666.666992188 l 1
 83.3330078125 625 l 1025
416.666992188 625 m 1
 583.333007812 625 l 1
 583.333007812 666.666992188 l 1
 416.666992188 666.666992188 l 1
 416.666992188 625 l 1025
83.3330078125 583.333007812 m 1
 166.666992188 583.333007812 l 1
 166.666992188 625 l 1
 83.3330078125 625 l 1
 83.3330078125 583.333007812 l 1025
458.333007812 583.333007812 m 1
 583.333007812 583.333007812 l 1
 583.333007812 625 l 1
 458.333007812 625 l 1
 458.333007812 583.333007812 l 1025
458.333007812 541.666992188 m 1
 583.333007812 541.666992188 l 1
 583.333007812 583.333007812 l 1
 458.333007812 583.333007812 l 1
 458.333007812 541.666992188 l 1025
458.333007812 500 m 1
 583.333007812 500 l 1
 583.333007812 541.666992188 l 1
 458.333007812 541.666992188 l 1
 458.333007812 500 l 1025
416.666992188 458.333007812 m 1
 541.666992188 458.333007812 l 1
 541.666992188 500 l 1
 416.666992188 500 l 1
 416.666992188 458.333007812 l 1025
333.333007812 416.666992188 m 1
 500 416.666992188 l 1
 500 458.333007812 l 1
 333.333007812 458.333007812 l 1
 333.333007812 416.666992188 l 1025
291.666992188 375 m 1
 458.333007812 375 l 1
 458.333007812 416.666992188 l 1
 291.666992188 416.666992188 l 1
 291.666992188 375 l 1025
250 333.333007812 m 1
 375 333.333007812 l 1
 375 375 l 1
 250 375 l 1
 250 333.333007812 l 1025
208.333007812 291.666992188 m 1
 333.333007812 291.666992188 l 1
 333.333007812 333.333007812 l 1
 208.333007812 333.333007812 l 1
 208.333007812 291.666992188 l 1025
208.333007812 250 m 1
 333.333007812 250 l 1
 333.333007812 291.666992188 l 1
 208.333007812 291.666992188 l 1
 208.333007812 250 l 1025
208.333007812 208.333007812 m 1
 333.333007812 208.333007812 l 1
 333.333007812 250 l 1
 208.333007812 250 l 1
 208.333007812 208.333007812 l 1025
208.333007812 83.3330078125 m 1
 333.333007812 83.3330078125 l 1
 333.333007812 125 l 1
 208.333007812 125 l 1
 208.333007812 83.3330078125 l 1025
208.333007812 41.6669921875 m 1
 333.333007812 41.6669921875 l 1
 333.333007812 83.3330078125 l 1
 208.333007812 83.3330078125 l 1
 208.333007812 41.6669921875 l 1025
208.333007812 0 m 1
 333.333007812 0 l 1
 333.333007812 41.6669921875 l 1
 208.333007812 41.6669921875 l 1
 208.333007812 0 l 1
EndSplineSet
EndChar

StartChar: at
Encoding: 64 64 33
Width: 916
VWidth: 0
Flags: HW
LayerCount: 2
Back
Fore
SplineSet
208.333007812 708.333007812 m 1
 458.333007812 708.333007812 l 1
 458.333007812 750 l 1
 208.333007812 750 l 1
 208.333007812 708.333007812 l 1025
125 666.666992188 m 1
 500 666.666992188 l 1
 500 708.333007812 l 1
 125 708.333007812 l 1
 125 666.666992188 l 1025
83.3330078125 625 m 1
 250 625 l 1
 250 666.666992188 l 1
 83.3330078125 666.666992188 l 1
 83.3330078125 625 l 1025
416.666992188 625 m 1
 541.666992188 625 l 1
 541.666992188 666.666992188 l 1
 416.666992188 666.666992188 l 1
 416.666992188 625 l 1025
83.3330078125 583.333007812 m 1
 166.666992188 583.333007812 l 1
 166.666992188 625 l 1
 83.3330078125 625 l 1
 83.3330078125 583.333007812 l 1025
458.333007812 583.333007812 m 1
 541.666992188 583.333007812 l 1
 541.666992188 625 l 1
 458.333007812 625 l 1
 458.333007812 583.333007812 l 1025
41.6669921875 541.666992188 m 1
 125 541.666992188 l 1
 125 583.333007812 l 1
 41.6669921875 583.333007812 l 1
 41.6669921875 541.666992188 l 1025
333.333007812 541.666992188 m 1
 541.666992188 541.666992188 l 1
 541.666992188 583.333007812 l 1
 333.333007812 583.333007812 l 1
 333.333007812 541.666992188 l 1025
41.6669921875 500 m 1
 125 500 l 1
 125 541.666992188 l 1
 41.6669921875 541.666992188 l 1
 41.6669921875 500 l 1025
291.666992188 500 m 1
 333.333007812 500 l 1
 333.333007812 541.666992188 l 1
 291.666992188 541.666992188 l 1
 291.666992188 500 l 1025
458.333007812 500 m 1
 541.666992188 500 l 1
 541.666992188 541.666992188 l 1
 458.333007812 541.666992188 l 1
 458.333007812 500 l 1025
0 458.333007812 m 1
 83.3330078125 458.333007812 l 1
 83.3330078125 500 l 1
 0 500 l 1
 0 458.333007812 l 1025
250 458.333007812 m 1
 333.333007812 458.333007812 l 1
 333.333007812 500 l 1
 250 500 l 1
 250 458.333007812 l 1025
458.333007812 458.333007812 m 1
 541.666992188 458.333007812 l 1
 541.666992188 500 l 1
 458.333007812 500 l 1
 458.333007812 458.333007812 l 1025
0 416.666992188 m 1
 83.3330078125 416.666992188 l 1
 83.3330078125 458.333007812 l 1
 0 458.333007812 l 1
 0 416.666992188 l 1025
208.333007812 416.666992188 m 1
 291.666992188 416.666992188 l 1
 291.666992188 458.333007812 l 1
 208.333007812 458.333007812 l 1
 208.333007812 416.666992188 l 1025
458.333007812 416.666992188 m 1
 541.666992188 416.666992188 l 1
 541.666992188 458.333007812 l 1
 458.333007812 458.333007812 l 1
 458.333007812 416.666992188 l 1025
0 375 m 1
 83.3330078125 375 l 1
 83.3330078125 416.666992188 l 1
 0 416.666992188 l 1
 0 375 l 1025
208.333007812 375 m 1
 291.666992188 375 l 1
 291.666992188 416.666992188 l 1
 208.333007812 416.666992188 l 1
 208.333007812 375 l 1025
416.666992188 375 m 1
 541.666992188 375 l 1
 541.666992188 416.666992188 l 1
 416.666992188 416.666992188 l 1
 416.666992188 375 l 1025
0 333.333007812 m 1
 83.3330078125 333.333007812 l 1
 83.3330078125 375 l 1
 0 375 l 1
 0 333.333007812 l 1025
208.333007812 333.333007812 m 1
 291.666992188 333.333007812 l 1
 291.666992188 375 l 1
 208.333007812 375 l 1
 208.333007812 333.333007812 l 1025
416.666992188 333.333007812 m 1
 541.666992188 333.333007812 l 1
 541.666992188 375 l 1
 416.666992188 375 l 1
 416.666992188 333.333007812 l 1025
0 291.666992188 m 1
 83.3330078125 291.666992188 l 1
 83.3330078125 333.333007812 l 1
 0 333.333007812 l 1
 0 291.666992188 l 1025
208.333007812 291.666992188 m 1
 291.666992188 291.666992188 l 1
 291.666992188 333.333007812 l 1
 208.333007812 333.333007812 l 1
 208.333007812 291.666992188 l 1025
375 291.666992188 m 1
 541.666992188 291.666992188 l 1
 541.666992188 333.333007812 l 1
 375 333.333007812 l 1
 375 291.666992188 l 1025
0 250 m 1
 83.3330078125 250 l 1
 83.3330078125 291.666992188 l 1
 0 291.666992188 l 1
 0 250 l 1025
208.333007812 250 m 1
 291.666992188 250 l 1
 291.666992188 291.666992188 l 1
 208.333007812 291.666992188 l 1
 208.333007812 250 l 1025
375 250 m 1
 541.666992188 250 l 1
 541.666992188 291.666992188 l 1
 375 291.666992188 l 1
 375 250 l 1025
0 208.333007812 m 1
 125 208.333007812 l 1
 125 250 l 1
 0 250 l 1
 0 208.333007812 l 1025
250 208.333007812 m 1
 416.666992188 208.333007812 l 1
 416.666992188 250 l 1
 250 250 l 1
 250 208.333007812 l 1025
458.333007812 208.333007812 m 1
 625 208.333007812 l 1
 625 250 l 1
 458.333007812 250 l 1
 458.333007812 208.333007812 l 1025
41.6669921875 166.666992188 m 1
 125 166.666992188 l 1
 125 208.333007812 l 1
 41.6669921875 208.333007812 l 1
 41.6669921875 166.666992188 l 1025
250 166.666992188 m 1
 375 166.666992188 l 1
 375 208.333007812 l 1
 250 208.333007812 l 1
 250 166.666992188 l 1025
458.333007812 166.666992188 m 1
 625 166.666992188 l 1
 625 208.333007812 l 1
 458.333007812 208.333007812 l 1
 458.333007812 166.666992188 l 1025
41.6669921875 125 m 1
 166.666992188 125 l 1
 166.666992188 166.666992188 l 1
 41.6669921875 166.666992188 l 1
 41.6669921875 125 l 1025
83.3330078125 83.3330078125 m 1
 208.333007812 83.3330078125 l 1
 208.333007812 125 l 1
 83.3330078125 125 l 1
 83.3330078125 83.3330078125 l 1025
416.666992188 83.3330078125 m 1
 458.333007812 83.3330078125 l 1
 458.333007812 125 l 1
 416.666992188 125 l 1
 416.666992188 83.3330078125 l 1025
125 41.6669921875 m 1
 458.333007812 41.6669921875 l 1
 458.333007812 83.3330078125 l 1
 125 83.3330078125 l 1
 125 41.6669921875 l 1025
166.666992188 0 m 1
 416.666992188 0 l 1
 416.666992188 41.6669921875 l 1
 166.666992188 41.6669921875 l 1
 166.666992188 0 l 1
EndSplineSet
EndChar

StartChar: A
Encoding: 65 65 34
Width: 916
VWidth: 0
Flags: HW
LayerCount: 2
Back
Fore
SplineSet
250 708.333007812 m 1
 375 708.333007812 l 1
 375 750 l 1
 250 750 l 1
 250 708.333007812 l 1025
250 666.666992188 m 1
 416.666992188 666.666992188 l 1
 416.666992188 708.333007812 l 1
 250 708.333007812 l 1
 250 666.666992188 l 1025
208.333007812 625 m 1
 416.666992188 625 l 1
 416.666992188 666.666992188 l 1
 208.333007812 666.666992188 l 1
 208.333007812 625 l 1025
208.333007812 583.333007812 m 1
 416.666992188 583.333007812 l 1
 416.666992188 625 l 1
 208.333007812 625 l 1
 208.333007812 583.333007812 l 1025
208.333007812 541.666992188 m 1
 458.333007812 541.666992188 l 1
 458.333007812 583.333007812 l 1
 208.333007812 583.333007812 l 1
 208.333007812 541.666992188 l 1025
166.666992188 500 m 1
 291.666992188 500 l 1
 291.666992188 541.666992188 l 1
 166.666992188 541.666992188 l 1
 166.666992188 500 l 1025
333.333007812 500 m 1
 458.333007812 500 l 1
 458.333007812 541.666992188 l 1
 333.333007812 541.666992188 l 1
 333.333007812 500 l 1025
166.666992188 458.333007812 m 1
 250 458.333007812 l 1
 250 500 l 1
 166.666992188 500 l 1
 166.666992188 458.333007812 l 1025
333.333007812 458.333007812 m 1
 458.333007812 458.333007812 l 1
 458.333007812 500 l 1
 333.333007812 500 l 1
 333.333007812 458.333007812 l 1025
166.666992188 416.666992188 m 1
 250 416.666992188 l 1
 250 458.333007812 l 1
 166.666992188 458.333007812 l 1
 166.666992188 416.666992188 l 1025
333.333007812 416.666992188 m 1
 500 416.666992188 l 1
 500 458.333007812 l 1
 333.333007812 458.333007812 l 1
 333.333007812 416.666992188 l 1025
125 375 m 1
 208.333007812 375 l 1
 208.333007812 416.666992188 l 1
 125 416.666992188 l 1
 125 375 l 1025
375 375 m 1
 500 375 l 1
 500 416.666992188 l 1
 375 416.666992188 l 1
 375 375 l 1025
125 333.333007812 m 1
 208.333007812 333.333007812 l 1
 208.333007812 375 l 1
 125 375 l 1
 125 333.333007812 l 1025
375 333.333007812 m 1
 500 333.333007812 l 1
 500 375 l 1
 375 375 l 1
 375 333.333007812 l 1025
125 291.666992188 m 1
 208.333007812 291.666992188 l 1
 208.333007812 333.333007812 l 1
 125 333.333007812 l 1
 125 291.666992188 l 1025
416.666992188 291.666992188 m 1
 541.666992188 291.666992188 l 1
 541.666992188 333.333007812 l 1
 416.666992188 333.333007812 l 1
 416.666992188 291.666992188 l 1025
83.3330078125 250 m 1
 541.666992188 250 l 1
 541.666992188 291.666992188 l 1
 83.3330078125 291.666992188 l 1
 83.3330078125 250 l 1025
83.3330078125 208.333007812 m 1
 541.666992188 208.333007812 l 1
 541.666992188 250 l 1
 83.3330078125 250 l 1
 83.3330078125 208.333007812 l 1025
83.3330078125 166.666992188 m 1
 166.666992188 166.666992188 l 1
 166.666992188 208.333007812 l 1
 83.3330078125 208.333007812 l 1
 83.3330078125 166.666992188 l 1025
458.333007812 166.666992188 m 1
 583.333007812 166.666992188 l 1
 583.333007812 208.333007812 l 1
 458.333007812 208.333007812 l 1
 458.333007812 166.666992188 l 1025
41.6669921875 125 m 1
 125 125 l 1
 125 166.666992188 l 1
 41.6669921875 166.666992188 l 1
 41.6669921875 125 l 1025
458.333007812 125 m 1
 583.333007812 125 l 1
 583.333007812 166.666992188 l 1
 458.333007812 166.666992188 l 1
 458.333007812 125 l 1025
41.6669921875 83.3330078125 m 1
 125 83.3330078125 l 1
 125 125 l 1
 41.6669921875 125 l 1
 41.6669921875 83.3330078125 l 1025
458.333007812 83.3330078125 m 1
 583.333007812 83.3330078125 l 1
 583.333007812 125 l 1
 458.333007812 125 l 1
 458.333007812 83.3330078125 l 1025
41.6669921875 41.6669921875 m 1
 125 41.6669921875 l 1
 125 83.3330078125 l 1
 41.6669921875 83.3330078125 l 1
 41.6669921875 41.6669921875 l 1025
500 41.6669921875 m 1
 625 41.6669921875 l 1
 625 83.3330078125 l 1
 500 83.3330078125 l 1
 500 41.6669921875 l 1025
0 0 m 1
 83.3330078125 0 l 1
 83.3330078125 41.6669921875 l 1
 0 41.6669921875 l 1
 0 0 l 1025
500 0 m 1
 625 0 l 1
 625 41.6669921875 l 1
 500 41.6669921875 l 1
 500 0 l 1
EndSplineSet
EndChar

StartChar: B
Encoding: 66 66 35
Width: 916
VWidth: 0
Flags: HW
LayerCount: 2
Back
Fore
SplineSet
83.3330078125 708.333007812 m 1
 416.666992188 708.333007812 l 1
 416.666992188 750 l 1
 83.3330078125 750 l 1
 83.3330078125 708.333007812 l 1025
83.3330078125 666.666992188 m 1
 458.333007812 666.666992188 l 1
 458.333007812 708.333007812 l 1
 83.3330078125 708.333007812 l 1
 83.3330078125 666.666992188 l 1025
83.3330078125 625 m 1
 208.333007812 625 l 1
 208.333007812 666.666992188 l 1
 83.3330078125 666.666992188 l 1
 83.3330078125 625 l 1025
333.333007812 625 m 1
 500 625 l 1
 500 666.666992188 l 1
 333.333007812 666.666992188 l 1
 333.333007812 625 l 1025
83.3330078125 583.333007812 m 1
 208.333007812 583.333007812 l 1
 208.333007812 625 l 1
 83.3330078125 625 l 1
 83.3330078125 583.333007812 l 1025
375 583.333007812 m 1
 500 583.333007812 l 1
 500 625 l 1
 375 625 l 1
 375 583.333007812 l 1025
83.3330078125 541.666992188 m 1
 208.333007812 541.666992188 l 1
 208.333007812 583.333007812 l 1
 83.3330078125 583.333007812 l 1
 83.3330078125 541.666992188 l 1025
375 541.666992188 m 1
 500 541.666992188 l 1
 500 583.333007812 l 1
 375 583.333007812 l 1
 375 541.666992188 l 1025
83.3330078125 500 m 1
 208.333007812 500 l 1
 208.333007812 541.666992188 l 1
 83.3330078125 541.666992188 l 1
 83.3330078125 500 l 1025
375 500 m 1
 500 500 l 1
 500 541.666992188 l 1
 375 541.666992188 l 1
 375 500 l 1025
83.3330078125 458.333007812 m 1
 208.333007812 458.333007812 l 1
 208.333007812 500 l 1
 83.3330078125 500 l 1
 83.3330078125 458.333007812 l 1025
375 458.333007812 m 1
 458.333007812 458.333007812 l 1
 458.333007812 500 l 1
 375 500 l 1
 375 458.333007812 l 1025
83.3330078125 416.666992188 m 1
 208.333007812 416.666992188 l 1
 208.333007812 458.333007812 l 1
 83.3330078125 458.333007812 l 1
 83.3330078125 416.666992188 l 1025
333.333007812 416.666992188 m 1
 416.666992188 416.666992188 l 1
 416.666992188 458.333007812 l 1
 333.333007812 458.333007812 l 1
 333.333007812 416.666992188 l 1025
83.3330078125 375 m 1
 375 375 l 1
 375 416.666992188 l 1
 83.3330078125 416.666992188 l 1
 83.3330078125 375 l 1025
83.3330078125 333.333007812 m 1
 416.666992188 333.333007812 l 1
 416.666992188 375 l 1
 83.3330078125 375 l 1
 83.3330078125 333.333007812 l 1025
83.3330078125 291.666992188 m 1
 208.333007812 291.666992188 l 1
 208.333007812 333.333007812 l 1
 83.3330078125 333.333007812 l 1
 83.3330078125 291.666992188 l 1025
333.333007812 291.666992188 m 1
 500 291.666992188 l 1
 500 333.333007812 l 1
 333.333007812 333.333007812 l 1
 333.333007812 291.666992188 l 1025
83.3330078125 250 m 1
 208.333007812 250 l 1
 208.333007812 291.666992188 l 1
 83.3330078125 291.666992188 l 1
 83.3330078125 250 l 1025
375 250 m 1
 500 250 l 1
 500 291.666992188 l 1
 375 291.666992188 l 1
 375 250 l 1025
83.3330078125 208.333007812 m 1
 208.333007812 208.333007812 l 1
 208.333007812 250 l 1
 83.3330078125 250 l 1
 83.3330078125 208.333007812 l 1025
416.666992188 208.333007812 m 1
 541.666992188 208.333007812 l 1
 541.666992188 250 l 1
 416.666992188 250 l 1
 416.666992188 208.333007812 l 1025
83.3330078125 166.666992188 m 1
 208.333007812 166.666992188 l 1
 208.333007812 208.333007812 l 1
 83.3330078125 208.333007812 l 1
 83.3330078125 166.666992188 l 1025
416.666992188 166.666992188 m 1
 541.666992188 166.666992188 l 1
 541.666992188 208.333007812 l 1
 416.666992188 208.333007812 l 1
 416.666992188 166.666992188 l 1025
83.3330078125 125 m 1
 208.333007812 125 l 1
 208.333007812 166.666992188 l 1
 83.3330078125 166.666992188 l 1
 83.3330078125 125 l 1025
416.666992188 125 m 1
 541.666992188 125 l 1
 541.666992188 166.666992188 l 1
 416.666992188 166.666992188 l 1
 416.666992188 125 l 1025
83.3330078125 83.3330078125 m 1
 208.333007812 83.3330078125 l 1
 208.333007812 125 l 1
 83.3330078125 125 l 1
 83.3330078125 83.3330078125 l 1025
375 83.3330078125 m 1
 541.666992188 83.3330078125 l 1
 541.666992188 125 l 1
 375 125 l 1
 375 83.3330078125 l 1025
83.3330078125 41.6669921875 m 1
 500 41.6669921875 l 1
 500 83.3330078125 l 1
 83.3330078125 83.3330078125 l 1
 83.3330078125 41.6669921875 l 1025
83.3330078125 0 m 1
 458.333007812 0 l 1
 458.333007812 41.6669921875 l 1
 83.3330078125 41.6669921875 l 1
 83.3330078125 0 l 1
EndSplineSet
EndChar

StartChar: C
Encoding: 67 67 36
Width: 916
VWidth: 0
Flags: HW
LayerCount: 2
Back
Fore
SplineSet
250 708.333007812 m 1
 541.666992188 708.333007812 l 1
 541.666992188 750 l 1
 250 750 l 1
 250 708.333007812 l 1025
166.666992188 666.666992188 m 1
 583.333007812 666.666992188 l 1
 583.333007812 708.333007812 l 1
 166.666992188 708.333007812 l 1
 166.666992188 666.666992188 l 1025
125 625 m 1
 291.666992188 625 l 1
 291.666992188 666.666992188 l 1
 125 666.666992188 l 1
 125 625 l 1025
500 625 m 1
 583.333007812 625 l 1
 583.333007812 666.666992188 l 1
 500 666.666992188 l 1
 500 625 l 1025
83.3330078125 583.333007812 m 1
 250 583.333007812 l 1
 250 625 l 1
 83.3330078125 625 l 1
 83.3330078125 583.333007812 l 1025
83.3330078125 541.666992188 m 1
 208.333007812 541.666992188 l 1
 208.333007812 583.333007812 l 1
 83.3330078125 583.333007812 l 1
 83.3330078125 541.666992188 l 1025
83.3330078125 500 m 1
 208.333007812 500 l 1
 208.333007812 541.666992188 l 1
 83.3330078125 541.666992188 l 1
 83.3330078125 500 l 1025
41.6669921875 458.333007812 m 1
 166.666992188 458.333007812 l 1
 166.666992188 500 l 1
 41.6669921875 500 l 1
 41.6669921875 458.333007812 l 1025
41.6669921875 416.666992188 m 1
 166.666992188 416.666992188 l 1
 166.666992188 458.333007812 l 1
 41.6669921875 458.333007812 l 1
 41.6669921875 416.666992188 l 1025
41.6669921875 375 m 1
 166.666992188 375 l 1
 166.666992188 416.666992188 l 1
 41.6669921875 416.666992188 l 1
 41.6669921875 375 l 1025
41.6669921875 333.333007812 m 1
 166.666992188 333.333007812 l 1
 166.666992188 375 l 1
 41.6669921875 375 l 1
 41.6669921875 333.333007812 l 1025
41.6669921875 291.666992188 m 1
 166.666992188 291.666992188 l 1
 166.666992188 333.333007812 l 1
 41.6669921875 333.333007812 l 1
 41.6669921875 291.666992188 l 1025
41.6669921875 250 m 1
 166.666992188 250 l 1
 166.666992188 291.666992188 l 1
 41.6669921875 291.666992188 l 1
 41.6669921875 250 l 1025
41.6669921875 208.333007812 m 1
 208.333007812 208.333007812 l 1
 208.333007812 250 l 1
 41.6669921875 250 l 1
 41.6669921875 208.333007812 l 1025
83.3330078125 166.666992188 m 1
 208.333007812 166.666992188 l 1
 208.333007812 208.333007812 l 1
 83.3330078125 208.333007812 l 1
 83.3330078125 166.666992188 l 1025
83.3330078125 125 m 1
 250 125 l 1
 250 166.666992188 l 1
 83.3330078125 166.666992188 l 1
 83.3330078125 125 l 1025
125 83.3330078125 m 1
 333.333007812 83.3330078125 l 1
 333.333007812 125 l 1
 125 125 l 1
 125 83.3330078125 l 1025
541.666992188 83.3330078125 m 1
 583.333007812 83.3330078125 l 1
 583.333007812 125 l 1
 541.666992188 125 l 1
 541.666992188 83.3330078125 l 1025
166.666992188 41.6669921875 m 1
 583.333007812 41.6669921875 l 1
 583.333007812 83.3330078125 l 1
 166.666992188 83.3330078125 l 1
 166.666992188 41.6669921875 l 1025
250 0 m 1
 541.666992188 0 l 1
 541.666992188 41.6669921875 l 1
 250 41.6669921875 l 1
 250 0 l 1
EndSplineSet
EndChar

StartChar: D
Encoding: 68 68 37
Width: 916
VWidth: 0
Flags: HW
LayerCount: 2
Back
Fore
SplineSet
41.6669921875 708.333007812 m 1
 416.666992188 708.333007812 l 1
 416.666992188 750 l 1
 41.6669921875 750 l 1
 41.6669921875 708.333007812 l 1025
41.6669921875 666.666992188 m 1
 500 666.666992188 l 1
 500 708.333007812 l 1
 41.6669921875 708.333007812 l 1
 41.6669921875 666.666992188 l 1025
41.6669921875 625 m 1
 166.666992188 625 l 1
 166.666992188 666.666992188 l 1
 41.6669921875 666.666992188 l 1
 41.6669921875 625 l 1025
333.333007812 625 m 1
 541.666992188 625 l 1
 541.666992188 666.666992188 l 1
 333.333007812 666.666992188 l 1
 333.333007812 625 l 1025
41.6669921875 583.333007812 m 1
 166.666992188 583.333007812 l 1
 166.666992188 625 l 1
 41.6669921875 625 l 1
 41.6669921875 583.333007812 l 1025
416.666992188 583.333007812 m 1
 541.666992188 583.333007812 l 1
 541.666992188 625 l 1
 416.666992188 625 l 1
 416.666992188 583.333007812 l 1025
41.6669921875 541.666992188 m 1
 166.666992188 541.666992188 l 1
 166.666992188 583.333007812 l 1
 41.6669921875 583.333007812 l 1
 41.6669921875 541.666992188 l 1025
416.666992188 541.666992188 m 1
 583.333007812 541.666992188 l 1
 583.333007812 583.333007812 l 1
 416.666992188 583.333007812 l 1
 416.666992188 541.666992188 l 1025
41.6669921875 500 m 1
 166.666992188 500 l 1
 166.666992188 541.666992188 l 1
 41.6669921875 541.666992188 l 1
 41.6669921875 500 l 1025
458.333007812 500 m 1
 583.333007812 500 l 1
 583.333007812 541.666992188 l 1
 458.333007812 541.666992188 l 1
 458.333007812 500 l 1025
41.6669921875 458.333007812 m 1
 166.666992188 458.333007812 l 1
 166.666992188 500 l 1
 41.6669921875 500 l 1
 41.6669921875 458.333007812 l 1025
458.333007812 458.333007812 m 1
 583.333007812 458.333007812 l 1
 583.333007812 500 l 1
 458.333007812 500 l 1
 458.333007812 458.333007812 l 1025
41.6669921875 416.666992188 m 1
 166.666992188 416.666992188 l 1
 166.666992188 458.333007812 l 1
 41.6669921875 458.333007812 l 1
 41.6669921875 416.666992188 l 1025
458.333007812 416.666992188 m 1
 583.333007812 416.666992188 l 1
 583.333007812 458.333007812 l 1
 458.333007812 458.333007812 l 1
 458.333007812 416.666992188 l 1025
41.6669921875 375 m 1
 166.666992188 375 l 1
 166.666992188 416.666992188 l 1
 41.6669921875 416.666992188 l 1
 41.6669921875 375 l 1025
458.333007812 375 m 1
 583.333007812 375 l 1
 583.333007812 416.666992188 l 1
 458.333007812 416.666992188 l 1
 458.333007812 375 l 1025
41.6669921875 333.333007812 m 1
 166.666992188 333.333007812 l 1
 166.666992188 375 l 1
 41.6669921875 375 l 1
 41.6669921875 333.333007812 l 1025
458.333007812 333.333007812 m 1
 583.333007812 333.333007812 l 1
 583.333007812 375 l 1
 458.333007812 375 l 1
 458.333007812 333.333007812 l 1025
41.6669921875 291.666992188 m 1
 166.666992188 291.666992188 l 1
 166.666992188 333.333007812 l 1
 41.6669921875 333.333007812 l 1
 41.6669921875 291.666992188 l 1025
458.333007812 291.666992188 m 1
 583.333007812 291.666992188 l 1
 583.333007812 333.333007812 l 1
 458.333007812 333.333007812 l 1
 458.333007812 291.666992188 l 1025
41.6669921875 250 m 1
 166.666992188 250 l 1
 166.666992188 291.666992188 l 1
 41.6669921875 291.666992188 l 1
 41.6669921875 250 l 1025
458.333007812 250 m 1
 583.333007812 250 l 1
 583.333007812 291.666992188 l 1
 458.333007812 291.666992188 l 1
 458.333007812 250 l 1025
41.6669921875 208.333007812 m 1
 166.666992188 208.333007812 l 1
 166.666992188 250 l 1
 41.6669921875 250 l 1
 41.6669921875 208.333007812 l 1025
458.333007812 208.333007812 m 1
 583.333007812 208.333007812 l 1
 583.333007812 250 l 1
 458.333007812 250 l 1
 458.333007812 208.333007812 l 1025
41.6669921875 166.666992188 m 1
 166.666992188 166.666992188 l 1
 166.666992188 208.333007812 l 1
 41.6669921875 208.333007812 l 1
 41.6669921875 166.666992188 l 1025
416.666992188 166.666992188 m 1
 541.666992188 166.666992188 l 1
 541.666992188 208.333007812 l 1
 416.666992188 208.333007812 l 1
 416.666992188 166.666992188 l 1025
41.6669921875 125 m 1
 166.666992188 125 l 1
 166.666992188 166.666992188 l 1
 41.6669921875 166.666992188 l 1
 41.6669921875 125 l 1025
416.666992188 125 m 1
 541.666992188 125 l 1
 541.666992188 166.666992188 l 1
 416.666992188 166.666992188 l 1
 416.666992188 125 l 1025
41.6669921875 83.3330078125 m 1
 166.666992188 83.3330078125 l 1
 166.666992188 125 l 1
 41.6669921875 125 l 1
 41.6669921875 83.3330078125 l 1025
333.333007812 83.3330078125 m 1
 500 83.3330078125 l 1
 500 125 l 1
 333.333007812 125 l 1
 333.333007812 83.3330078125 l 1025
41.6669921875 41.6669921875 m 1
 458.333007812 41.6669921875 l 1
 458.333007812 83.3330078125 l 1
 41.6669921875 83.3330078125 l 1
 41.6669921875 41.6669921875 l 1025
41.6669921875 0 m 1
 375 0 l 1
 375 41.6669921875 l 1
 41.6669921875 41.6669921875 l 1
 41.6669921875 0 l 1
EndSplineSet
EndChar

StartChar: E
Encoding: 69 69 38
Width: 916
VWidth: 0
Flags: HW
LayerCount: 2
Back
Fore
SplineSet
83.3330078125 708.333007812 m 1
 541.666992188 708.333007812 l 1
 541.666992188 750 l 1
 83.3330078125 750 l 1
 83.3330078125 708.333007812 l 1025
83.3330078125 666.666992188 m 1
 541.666992188 666.666992188 l 1
 541.666992188 708.333007812 l 1
 83.3330078125 708.333007812 l 1
 83.3330078125 666.666992188 l 1025
83.3330078125 625 m 1
 208.333007812 625 l 1
 208.333007812 666.666992188 l 1
 83.3330078125 666.666992188 l 1
 83.3330078125 625 l 1025
83.3330078125 583.333007812 m 1
 208.333007812 583.333007812 l 1
 208.333007812 625 l 1
 83.3330078125 625 l 1
 83.3330078125 583.333007812 l 1025
83.3330078125 541.666992188 m 1
 208.333007812 541.666992188 l 1
 208.333007812 583.333007812 l 1
 83.3330078125 583.333007812 l 1
 83.3330078125 541.666992188 l 1025
83.3330078125 500 m 1
 208.333007812 500 l 1
 208.333007812 541.666992188 l 1
 83.3330078125 541.666992188 l 1
 83.3330078125 500 l 1025
83.3330078125 458.333007812 m 1
 208.333007812 458.333007812 l 1
 208.333007812 500 l 1
 83.3330078125 500 l 1
 83.3330078125 458.333007812 l 1025
83.3330078125 416.666992188 m 1
 500 416.666992188 l 1
 500 458.333007812 l 1
 83.3330078125 458.333007812 l 1
 83.3330078125 416.666992188 l 1025
83.3330078125 375 m 1
 500 375 l 1
 500 416.666992188 l 1
 83.3330078125 416.666992188 l 1
 83.3330078125 375 l 1025
83.3330078125 333.333007812 m 1
 208.333007812 333.333007812 l 1
 208.333007812 375 l 1
 83.3330078125 375 l 1
 83.3330078125 333.333007812 l 1025
83.3330078125 291.666992188 m 1
 208.333007812 291.666992188 l 1
 208.333007812 333.333007812 l 1
 83.3330078125 333.333007812 l 1
 83.3330078125 291.666992188 l 1025
83.3330078125 250 m 1
 208.333007812 250 l 1
 208.333007812 291.666992188 l 1
 83.3330078125 291.666992188 l 1
 83.3330078125 250 l 1025
83.3330078125 208.333007812 m 1
 208.333007812 208.333007812 l 1
 208.333007812 250 l 1
 83.3330078125 250 l 1
 83.3330078125 208.333007812 l 1025
83.3330078125 166.666992188 m 1
 208.333007812 166.666992188 l 1
 208.333007812 208.333007812 l 1
 83.3330078125 208.333007812 l 1
 83.3330078125 166.666992188 l 1025
83.3330078125 125 m 1
 208.333007812 125 l 1
 208.333007812 166.666992188 l 1
 83.3330078125 166.666992188 l 1
 83.3330078125 125 l 1025
83.3330078125 83.3330078125 m 1
 208.333007812 83.3330078125 l 1
 208.333007812 125 l 1
 83.3330078125 125 l 1
 83.3330078125 83.3330078125 l 1025
83.3330078125 41.6669921875 m 1
 583.333007812 41.6669921875 l 1
 583.333007812 83.3330078125 l 1
 83.3330078125 83.3330078125 l 1
 83.3330078125 41.6669921875 l 1025
83.3330078125 0 m 1
 583.333007812 0 l 1
 583.333007812 41.6669921875 l 1
 83.3330078125 41.6669921875 l 1
 83.3330078125 0 l 1
EndSplineSet
EndChar

StartChar: F
Encoding: 70 70 39
Width: 916
VWidth: 0
Flags: HW
LayerCount: 2
Back
Fore
SplineSet
125 708.333007812 m 1
 625 708.333007812 l 1
 625 750 l 1
 125 750 l 1
 125 708.333007812 l 1025
125 666.666992188 m 1
 625 666.666992188 l 1
 625 708.333007812 l 1
 125 708.333007812 l 1
 125 666.666992188 l 1025
125 625 m 1
 250 625 l 1
 250 666.666992188 l 1
 125 666.666992188 l 1
 125 625 l 1025
125 583.333007812 m 1
 250 583.333007812 l 1
 250 625 l 1
 125 625 l 1
 125 583.333007812 l 1025
125 541.666992188 m 1
 250 541.666992188 l 1
 250 583.333007812 l 1
 125 583.333007812 l 1
 125 541.666992188 l 1025
125 500 m 1
 250 500 l 1
 250 541.666992188 l 1
 125 541.666992188 l 1
 125 500 l 1025
125 458.333007812 m 1
 250 458.333007812 l 1
 250 500 l 1
 125 500 l 1
 125 458.333007812 l 1025
125 416.666992188 m 1
 250 416.666992188 l 1
 250 458.333007812 l 1
 125 458.333007812 l 1
 125 416.666992188 l 1025
125 375 m 1
 583.333007812 375 l 1
 583.333007812 416.666992188 l 1
 125 416.666992188 l 1
 125 375 l 1025
125 333.333007812 m 1
 541.666992188 333.333007812 l 1
 541.666992188 375 l 1
 125 375 l 1
 125 333.333007812 l 1025
125 291.666992188 m 1
 250 291.666992188 l 1
 250 333.333007812 l 1
 125 333.333007812 l 1
 125 291.666992188 l 1025
125 250 m 1
 250 250 l 1
 250 291.666992188 l 1
 125 291.666992188 l 1
 125 250 l 1025
125 208.333007812 m 1
 250 208.333007812 l 1
 250 250 l 1
 125 250 l 1
 125 208.333007812 l 1025
125 166.666992188 m 1
 250 166.666992188 l 1
 250 208.333007812 l 1
 125 208.333007812 l 1
 125 166.666992188 l 1025
125 125 m 1
 250 125 l 1
 250 166.666992188 l 1
 125 166.666992188 l 1
 125 125 l 1025
125 83.3330078125 m 1
 250 83.3330078125 l 1
 250 125 l 1
 125 125 l 1
 125 83.3330078125 l 1025
125 41.6669921875 m 1
 250 41.6669921875 l 1
 250 83.3330078125 l 1
 125 83.3330078125 l 1
 125 41.6669921875 l 1025
125 0 m 1
 250 0 l 1
 250 41.6669921875 l 1
 125 41.6669921875 l 1
 125 0 l 1
EndSplineSet
EndChar

StartChar: G
Encoding: 71 71 40
Width: 916
VWidth: 0
Flags: HW
LayerCount: 2
Back
Fore
SplineSet
250 708.333007812 m 1
 541.666992188 708.333007812 l 1
 541.666992188 750 l 1
 250 750 l 1
 250 708.333007812 l 1025
166.666992188 666.666992188 m 1
 583.333007812 666.666992188 l 1
 583.333007812 708.333007812 l 1
 166.666992188 708.333007812 l 1
 166.666992188 666.666992188 l 1025
125 625 m 1
 291.666992188 625 l 1
 291.666992188 666.666992188 l 1
 125 666.666992188 l 1
 125 625 l 1025
541.666992188 625 m 1
 583.333007812 625 l 1
 583.333007812 666.666992188 l 1
 541.666992188 666.666992188 l 1
 541.666992188 625 l 1025
83.3330078125 583.333007812 m 1
 250 583.333007812 l 1
 250 625 l 1
 83.3330078125 625 l 1
 83.3330078125 583.333007812 l 1025
83.3330078125 541.666992188 m 1
 208.333007812 541.666992188 l 1
 208.333007812 583.333007812 l 1
 83.3330078125 583.333007812 l 1
 83.3330078125 541.666992188 l 1025
83.3330078125 500 m 1
 208.333007812 500 l 1
 208.333007812 541.666992188 l 1
 83.3330078125 541.666992188 l 1
 83.3330078125 500 l 1025
41.6669921875 458.333007812 m 1
 166.666992188 458.333007812 l 1
 166.666992188 500 l 1
 41.6669921875 500 l 1
 41.6669921875 458.333007812 l 1025
41.6669921875 416.666992188 m 1
 166.666992188 416.666992188 l 1
 166.666992188 458.333007812 l 1
 41.6669921875 458.333007812 l 1
 41.6669921875 416.666992188 l 1025
41.6669921875 375 m 1
 166.666992188 375 l 1
 166.666992188 416.666992188 l 1
 41.6669921875 416.666992188 l 1
 41.6669921875 375 l 1025
41.6669921875 333.333007812 m 1
 166.666992188 333.333007812 l 1
 166.666992188 375 l 1
 41.6669921875 375 l 1
 41.6669921875 333.333007812 l 1025
41.6669921875 291.666992188 m 1
 166.666992188 291.666992188 l 1
 166.666992188 333.333007812 l 1
 41.6669921875 333.333007812 l 1
 41.6669921875 291.666992188 l 1025
458.333007812 291.666992188 m 1
 583.333007812 291.666992188 l 1
 583.333007812 333.333007812 l 1
 458.333007812 333.333007812 l 1
 458.333007812 291.666992188 l 1025
41.6669921875 250 m 1
 166.666992188 250 l 1
 166.666992188 291.666992188 l 1
 41.6669921875 291.666992188 l 1
 41.6669921875 250 l 1025
458.333007812 250 m 1
 583.333007812 250 l 1
 583.333007812 291.666992188 l 1
 458.333007812 291.666992188 l 1
 458.333007812 250 l 1025
41.6669921875 208.333007812 m 1
 208.333007812 208.333007812 l 1
 208.333007812 250 l 1
 41.6669921875 250 l 1
 41.6669921875 208.333007812 l 1025
458.333007812 208.333007812 m 1
 583.333007812 208.333007812 l 1
 583.333007812 250 l 1
 458.333007812 250 l 1
 458.333007812 208.333007812 l 1025
83.3330078125 166.666992188 m 1
 208.333007812 166.666992188 l 1
 208.333007812 208.333007812 l 1
 83.3330078125 208.333007812 l 1
 83.3330078125 166.666992188 l 1025
458.333007812 166.666992188 m 1
 583.333007812 166.666992188 l 1
 583.333007812 208.333007812 l 1
 458.333007812 208.333007812 l 1
 458.333007812 166.666992188 l 1025
83.3330078125 125 m 1
 250 125 l 1
 250 166.666992188 l 1
 83.3330078125 166.666992188 l 1
 83.3330078125 125 l 1025
458.333007812 125 m 1
 583.333007812 125 l 1
 583.333007812 166.666992188 l 1
 458.333007812 166.666992188 l 1
 458.333007812 125 l 1025
125 83.3330078125 m 1
 291.666992188 83.3330078125 l 1
 291.666992188 125 l 1
 125 125 l 1
 125 83.3330078125 l 1025
458.333007812 83.3330078125 m 1
 583.333007812 83.3330078125 l 1
 583.333007812 125 l 1
 458.333007812 125 l 1
 458.333007812 83.3330078125 l 1025
166.666992188 41.6669921875 m 1
 583.333007812 41.6669921875 l 1
 583.333007812 83.3330078125 l 1
 166.666992188 83.3330078125 l 1
 166.666992188 41.6669921875 l 1025
250 0 m 1
 541.666992188 0 l 1
 541.666992188 41.6669921875 l 1
 250 41.6669921875 l 1
 250 0 l 1
EndSplineSet
EndChar

StartChar: H
Encoding: 72 72 41
Width: 916
VWidth: 0
Flags: HW
LayerCount: 2
Back
Fore
SplineSet
83.3330078125 708.333007812 m 1
 208.333007812 708.333007812 l 1
 208.333007812 750 l 1
 83.3330078125 750 l 1
 83.3330078125 708.333007812 l 1025
416.666992188 708.333007812 m 1
 541.666992188 708.333007812 l 1
 541.666992188 750 l 1
 416.666992188 750 l 1
 416.666992188 708.333007812 l 1025
83.3330078125 666.666992188 m 1
 208.333007812 666.666992188 l 1
 208.333007812 708.333007812 l 1
 83.3330078125 708.333007812 l 1
 83.3330078125 666.666992188 l 1025
416.666992188 666.666992188 m 1
 541.666992188 666.666992188 l 1
 541.666992188 708.333007812 l 1
 416.666992188 708.333007812 l 1
 416.666992188 666.666992188 l 1025
83.3330078125 625 m 1
 208.333007812 625 l 1
 208.333007812 666.666992188 l 1
 83.3330078125 666.666992188 l 1
 83.3330078125 625 l 1025
416.666992188 625 m 1
 541.666992188 625 l 1
 541.666992188 666.666992188 l 1
 416.666992188 666.666992188 l 1
 416.666992188 625 l 1025
83.3330078125 583.333007812 m 1
 208.333007812 583.333007812 l 1
 208.333007812 625 l 1
 83.3330078125 625 l 1
 83.3330078125 583.333007812 l 1025
416.666992188 583.333007812 m 1
 541.666992188 583.333007812 l 1
 541.666992188 625 l 1
 416.666992188 625 l 1
 416.666992188 583.333007812 l 1025
83.3330078125 541.666992188 m 1
 208.333007812 541.666992188 l 1
 208.333007812 583.333007812 l 1
 83.3330078125 583.333007812 l 1
 83.3330078125 541.666992188 l 1025
416.666992188 541.666992188 m 1
 541.666992188 541.666992188 l 1
 541.666992188 583.333007812 l 1
 416.666992188 583.333007812 l 1
 416.666992188 541.666992188 l 1025
83.3330078125 500 m 1
 208.333007812 500 l 1
 208.333007812 541.666992188 l 1
 83.3330078125 541.666992188 l 1
 83.3330078125 500 l 1025
416.666992188 500 m 1
 541.666992188 500 l 1
 541.666992188 541.666992188 l 1
 416.666992188 541.666992188 l 1
 416.666992188 500 l 1025
83.3330078125 458.333007812 m 1
 208.333007812 458.333007812 l 1
 208.333007812 500 l 1
 83.3330078125 500 l 1
 83.3330078125 458.333007812 l 1025
416.666992188 458.333007812 m 1
 541.666992188 458.333007812 l 1
 541.666992188 500 l 1
 416.666992188 500 l 1
 416.666992188 458.333007812 l 1025
83.3330078125 416.666992188 m 1
 208.333007812 416.666992188 l 1
 208.333007812 458.333007812 l 1
 83.3330078125 458.333007812 l 1
 83.3330078125 416.666992188 l 1025
416.666992188 416.666992188 m 1
 541.666992188 416.666992188 l 1
 541.666992188 458.333007812 l 1
 416.666992188 458.333007812 l 1
 416.666992188 416.666992188 l 1025
83.3330078125 375 m 1
 541.666992188 375 l 1
 541.666992188 416.666992188 l 1
 83.3330078125 416.666992188 l 1
 83.3330078125 375 l 1025
83.3330078125 333.333007812 m 1
 541.666992188 333.333007812 l 1
 541.666992188 375 l 1
 83.3330078125 375 l 1
 83.3330078125 333.333007812 l 1025
83.3330078125 291.666992188 m 1
 208.333007812 291.666992188 l 1
 208.333007812 333.333007812 l 1
 83.3330078125 333.333007812 l 1
 83.3330078125 291.666992188 l 1025
416.666992188 291.666992188 m 1
 541.666992188 291.666992188 l 1
 541.666992188 333.333007812 l 1
 416.666992188 333.333007812 l 1
 416.666992188 291.666992188 l 1025
83.3330078125 250 m 1
 208.333007812 250 l 1
 208.333007812 291.666992188 l 1
 83.3330078125 291.666992188 l 1
 83.3330078125 250 l 1025
416.666992188 250 m 1
 541.666992188 250 l 1
 541.666992188 291.666992188 l 1
 416.666992188 291.666992188 l 1
 416.666992188 250 l 1025
83.3330078125 208.333007812 m 1
 208.333007812 208.333007812 l 1
 208.333007812 250 l 1
 83.3330078125 250 l 1
 83.3330078125 208.333007812 l 1025
416.666992188 208.333007812 m 1
 541.666992188 208.333007812 l 1
 541.666992188 250 l 1
 416.666992188 250 l 1
 416.666992188 208.333007812 l 1025
83.3330078125 166.666992188 m 1
 208.333007812 166.666992188 l 1
 208.333007812 208.333007812 l 1
 83.3330078125 208.333007812 l 1
 83.3330078125 166.666992188 l 1025
416.666992188 166.666992188 m 1
 541.666992188 166.666992188 l 1
 541.666992188 208.333007812 l 1
 416.666992188 208.333007812 l 1
 416.666992188 166.666992188 l 1025
83.3330078125 125 m 1
 208.333007812 125 l 1
 208.333007812 166.666992188 l 1
 83.3330078125 166.666992188 l 1
 83.3330078125 125 l 1025
416.666992188 125 m 1
 541.666992188 125 l 1
 541.666992188 166.666992188 l 1
 416.666992188 166.666992188 l 1
 416.666992188 125 l 1025
83.3330078125 83.3330078125 m 1
 208.333007812 83.3330078125 l 1
 208.333007812 125 l 1
 83.3330078125 125 l 1
 83.3330078125 83.3330078125 l 1025
416.666992188 83.3330078125 m 1
 541.666992188 83.3330078125 l 1
 541.666992188 125 l 1
 416.666992188 125 l 1
 416.666992188 83.3330078125 l 1025
83.3330078125 41.6669921875 m 1
 208.333007812 41.6669921875 l 1
 208.333007812 83.3330078125 l 1
 83.3330078125 83.3330078125 l 1
 83.3330078125 41.6669921875 l 1025
416.666992188 41.6669921875 m 1
 541.666992188 41.6669921875 l 1
 541.666992188 83.3330078125 l 1
 416.666992188 83.3330078125 l 1
 416.666992188 41.6669921875 l 1025
83.3330078125 0 m 1
 208.333007812 0 l 1
 208.333007812 41.6669921875 l 1
 83.3330078125 41.6669921875 l 1
 83.3330078125 0 l 1025
416.666992188 0 m 1
 541.666992188 0 l 1
 541.666992188 41.6669921875 l 1
 416.666992188 41.6669921875 l 1
 416.666992188 0 l 1
EndSplineSet
EndChar

StartChar: I
Encoding: 73 73 42
Width: 916
VWidth: 0
Flags: HW
LayerCount: 2
Back
Fore
SplineSet
83.3330078125 708.333007812 m 1
 541.666992188 708.333007812 l 1
 541.666992188 750 l 1
 83.3330078125 750 l 1
 83.3330078125 708.333007812 l 1025
83.3330078125 666.666992188 m 1
 541.666992188 666.666992188 l 1
 541.666992188 708.333007812 l 1
 83.3330078125 708.333007812 l 1
 83.3330078125 666.666992188 l 1025
250 625 m 1
 375 625 l 1
 375 666.666992188 l 1
 250 666.666992188 l 1
 250 625 l 1025
250 583.333007812 m 1
 375 583.333007812 l 1
 375 625 l 1
 250 625 l 1
 250 583.333007812 l 1025
250 541.666992188 m 1
 375 541.666992188 l 1
 375 583.333007812 l 1
 250 583.333007812 l 1
 250 541.666992188 l 1025
250 500 m 1
 375 500 l 1
 375 541.666992188 l 1
 250 541.666992188 l 1
 250 500 l 1025
250 458.333007812 m 1
 375 458.333007812 l 1
 375 500 l 1
 250 500 l 1
 250 458.333007812 l 1025
250 416.666992188 m 1
 375 416.666992188 l 1
 375 458.333007812 l 1
 250 458.333007812 l 1
 250 416.666992188 l 1025
250 375 m 1
 375 375 l 1
 375 416.666992188 l 1
 250 416.666992188 l 1
 250 375 l 1025
250 333.333007812 m 1
 375 333.333007812 l 1
 375 375 l 1
 250 375 l 1
 250 333.333007812 l 1025
250 291.666992188 m 1
 375 291.666992188 l 1
 375 333.333007812 l 1
 250 333.333007812 l 1
 250 291.666992188 l 1025
250 250 m 1
 375 250 l 1
 375 291.666992188 l 1
 250 291.666992188 l 1
 250 250 l 1025
250 208.333007812 m 1
 375 208.333007812 l 1
 375 250 l 1
 250 250 l 1
 250 208.333007812 l 1025
250 166.666992188 m 1
 375 166.666992188 l 1
 375 208.333007812 l 1
 250 208.333007812 l 1
 250 166.666992188 l 1025
250 125 m 1
 375 125 l 1
 375 166.666992188 l 1
 250 166.666992188 l 1
 250 125 l 1025
250 83.3330078125 m 1
 375 83.3330078125 l 1
 375 125 l 1
 250 125 l 1
 250 83.3330078125 l 1025
83.3330078125 41.6669921875 m 1
 541.666992188 41.6669921875 l 1
 541.666992188 83.3330078125 l 1
 83.3330078125 83.3330078125 l 1
 83.3330078125 41.6669921875 l 1025
83.3330078125 0 m 1
 541.666992188 0 l 1
 541.666992188 41.6669921875 l 1
 83.3330078125 41.6669921875 l 1
 83.3330078125 0 l 1
EndSplineSet
EndChar

StartChar: J
Encoding: 74 74 43
Width: 916
VWidth: 0
Flags: HW
LayerCount: 2
Back
Fore
SplineSet
125 708.333007812 m 1
 500 708.333007812 l 1
 500 750 l 1
 125 750 l 1
 125 708.333007812 l 1025
125 666.666992188 m 1
 500 666.666992188 l 1
 500 708.333007812 l 1
 125 708.333007812 l 1
 125 666.666992188 l 1025
375 625 m 1
 500 625 l 1
 500 666.666992188 l 1
 375 666.666992188 l 1
 375 625 l 1025
375 583.333007812 m 1
 500 583.333007812 l 1
 500 625 l 1
 375 625 l 1
 375 583.333007812 l 1025
375 541.666992188 m 1
 500 541.666992188 l 1
 500 583.333007812 l 1
 375 583.333007812 l 1
 375 541.666992188 l 1025
375 500 m 1
 500 500 l 1
 500 541.666992188 l 1
 375 541.666992188 l 1
 375 500 l 1025
375 458.333007812 m 1
 500 458.333007812 l 1
 500 500 l 1
 375 500 l 1
 375 458.333007812 l 1025
375 416.666992188 m 1
 500 416.666992188 l 1
 500 458.333007812 l 1
 375 458.333007812 l 1
 375 416.666992188 l 1025
375 375 m 1
 500 375 l 1
 500 416.666992188 l 1
 375 416.666992188 l 1
 375 375 l 1025
375 333.333007812 m 1
 500 333.333007812 l 1
 500 375 l 1
 375 375 l 1
 375 333.333007812 l 1025
375 291.666992188 m 1
 500 291.666992188 l 1
 500 333.333007812 l 1
 375 333.333007812 l 1
 375 291.666992188 l 1025
375 250 m 1
 500 250 l 1
 500 291.666992188 l 1
 375 291.666992188 l 1
 375 250 l 1025
375 208.333007812 m 1
 500 208.333007812 l 1
 500 250 l 1
 375 250 l 1
 375 208.333007812 l 1025
375 166.666992188 m 1
 500 166.666992188 l 1
 500 208.333007812 l 1
 375 208.333007812 l 1
 375 166.666992188 l 1025
375 125 m 1
 500 125 l 1
 500 166.666992188 l 1
 375 166.666992188 l 1
 375 125 l 1025
83.3330078125 83.3330078125 m 1
 125 83.3330078125 l 1
 125 125 l 1
 83.3330078125 125 l 1
 83.3330078125 83.3330078125 l 1025
333.333007812 83.3330078125 m 1
 458.333007812 83.3330078125 l 1
 458.333007812 125 l 1
 333.333007812 125 l 1
 333.333007812 83.3330078125 l 1025
83.3330078125 41.6669921875 m 1
 416.666992188 41.6669921875 l 1
 416.666992188 83.3330078125 l 1
 83.3330078125 83.3330078125 l 1
 83.3330078125 41.6669921875 l 1025
125 0 m 1
 375 0 l 1
 375 41.6669921875 l 1
 125 41.6669921875 l 1
 125 0 l 1
EndSplineSet
EndChar

StartChar: K
Encoding: 75 75 44
Width: 916
VWidth: 0
Flags: HW
LayerCount: 2
Back
Fore
SplineSet
83.3330078125 708.333007812 m 1
 208.333007812 708.333007812 l 1
 208.333007812 750 l 1
 83.3330078125 750 l 1
 83.3330078125 708.333007812 l 1025
458.333007812 708.333007812 m 1
 583.333007812 708.333007812 l 1
 583.333007812 750 l 1
 458.333007812 750 l 1
 458.333007812 708.333007812 l 1025
83.3330078125 666.666992188 m 1
 208.333007812 666.666992188 l 1
 208.333007812 708.333007812 l 1
 83.3330078125 708.333007812 l 1
 83.3330078125 666.666992188 l 1025
416.666992188 666.666992188 m 1
 541.666992188 666.666992188 l 1
 541.666992188 708.333007812 l 1
 416.666992188 708.333007812 l 1
 416.666992188 666.666992188 l 1025
83.3330078125 625 m 1
 208.333007812 625 l 1
 208.333007812 666.666992188 l 1
 83.3330078125 666.666992188 l 1
 83.3330078125 625 l 1025
416.666992188 625 m 1
 500 625 l 1
 500 666.666992188 l 1
 416.666992188 666.666992188 l 1
 416.666992188 625 l 1025
83.3330078125 583.333007812 m 1
 208.333007812 583.333007812 l 1
 208.333007812 625 l 1
 83.3330078125 625 l 1
 83.3330078125 583.333007812 l 1025
375 583.333007812 m 1
 458.333007812 583.333007812 l 1
 458.333007812 625 l 1
 375 625 l 1
 375 583.333007812 l 1025
83.3330078125 541.666992188 m 1
 208.333007812 541.666992188 l 1
 208.333007812 583.333007812 l 1
 83.3330078125 583.333007812 l 1
 83.3330078125 541.666992188 l 1025
333.333007812 541.666992188 m 1
 458.333007812 541.666992188 l 1
 458.333007812 583.333007812 l 1
 333.333007812 583.333007812 l 1
 333.333007812 541.666992188 l 1025
83.3330078125 500 m 1
 208.333007812 500 l 1
 208.333007812 541.666992188 l 1
 83.3330078125 541.666992188 l 1
 83.3330078125 500 l 1025
291.666992188 500 m 1
 416.666992188 500 l 1
 416.666992188 541.666992188 l 1
 291.666992188 541.666992188 l 1
 291.666992188 500 l 1025
83.3330078125 458.333007812 m 1
 208.333007812 458.333007812 l 1
 208.333007812 500 l 1
 83.3330078125 500 l 1
 83.3330078125 458.333007812 l 1025
291.666992188 458.333007812 m 1
 375 458.333007812 l 1
 375 500 l 1
 291.666992188 500 l 1
 291.666992188 458.333007812 l 1025
83.3330078125 416.666992188 m 1
 208.333007812 416.666992188 l 1
 208.333007812 458.333007812 l 1
 83.3330078125 458.333007812 l 1
 83.3330078125 416.666992188 l 1025
250 416.666992188 m 1
 375 416.666992188 l 1
 375 458.333007812 l 1
 250 458.333007812 l 1
 250 416.666992188 l 1025
83.3330078125 375 m 1
 333.333007812 375 l 1
 333.333007812 416.666992188 l 1
 83.3330078125 416.666992188 l 1
 83.3330078125 375 l 1025
83.3330078125 333.333007812 m 1
 375 333.333007812 l 1
 375 375 l 1
 83.3330078125 375 l 1
 83.3330078125 333.333007812 l 1025
83.3330078125 291.666992188 m 1
 208.333007812 291.666992188 l 1
 208.333007812 333.333007812 l 1
 83.3330078125 333.333007812 l 1
 83.3330078125 291.666992188 l 1025
250 291.666992188 m 1
 416.666992188 291.666992188 l 1
 416.666992188 333.333007812 l 1
 250 333.333007812 l 1
 250 291.666992188 l 1025
83.3330078125 250 m 1
 208.333007812 250 l 1
 208.333007812 291.666992188 l 1
 83.3330078125 291.666992188 l 1
 83.3330078125 250 l 1025
291.666992188 250 m 1
 416.666992188 250 l 1
 416.666992188 291.666992188 l 1
 291.666992188 291.666992188 l 1
 291.666992188 250 l 1025
83.3330078125 208.333007812 m 1
 208.333007812 208.333007812 l 1
 208.333007812 250 l 1
 83.3330078125 250 l 1
 83.3330078125 208.333007812 l 1025
291.666992188 208.333007812 m 1
 458.333007812 208.333007812 l 1
 458.333007812 250 l 1
 291.666992188 250 l 1
 291.666992188 208.333007812 l 1025
83.3330078125 166.666992188 m 1
 208.333007812 166.666992188 l 1
 208.333007812 208.333007812 l 1
 83.3330078125 208.333007812 l 1
 83.3330078125 166.666992188 l 1025
333.333007812 166.666992188 m 1
 500 166.666992188 l 1
 500 208.333007812 l 1
 333.333007812 208.333007812 l 1
 333.333007812 166.666992188 l 1025
83.3330078125 125 m 1
 208.333007812 125 l 1
 208.333007812 166.666992188 l 1
 83.3330078125 166.666992188 l 1
 83.3330078125 125 l 1025
375 125 m 1
 541.666992188 125 l 1
 541.666992188 166.666992188 l 1
 375 166.666992188 l 1
 375 125 l 1025
83.3330078125 83.3330078125 m 1
 208.333007812 83.3330078125 l 1
 208.333007812 125 l 1
 83.3330078125 125 l 1
 83.3330078125 83.3330078125 l 1025
416.666992188 83.3330078125 m 1
 583.333007812 83.3330078125 l 1
 583.333007812 125 l 1
 416.666992188 125 l 1
 416.666992188 83.3330078125 l 1025
83.3330078125 41.6669921875 m 1
 208.333007812 41.6669921875 l 1
 208.333007812 83.3330078125 l 1
 83.3330078125 83.3330078125 l 1
 83.3330078125 41.6669921875 l 1025
458.333007812 41.6669921875 m 1
 583.333007812 41.6669921875 l 1
 583.333007812 83.3330078125 l 1
 458.333007812 83.3330078125 l 1
 458.333007812 41.6669921875 l 1025
83.3330078125 0 m 1
 208.333007812 0 l 1
 208.333007812 41.6669921875 l 1
 83.3330078125 41.6669921875 l 1
 83.3330078125 0 l 1025
458.333007812 0 m 1
 625 0 l 1
 625 41.6669921875 l 1
 458.333007812 41.6669921875 l 1
 458.333007812 0 l 1
EndSplineSet
EndChar

StartChar: L
Encoding: 76 76 45
Width: 916
VWidth: 0
Flags: HW
LayerCount: 2
Back
Fore
SplineSet
125 708.333007812 m 1
 250 708.333007812 l 1
 250 750 l 1
 125 750 l 1
 125 708.333007812 l 1025
125 666.666992188 m 1
 250 666.666992188 l 1
 250 708.333007812 l 1
 125 708.333007812 l 1
 125 666.666992188 l 1025
125 625 m 1
 250 625 l 1
 250 666.666992188 l 1
 125 666.666992188 l 1
 125 625 l 1025
125 583.333007812 m 1
 250 583.333007812 l 1
 250 625 l 1
 125 625 l 1
 125 583.333007812 l 1025
125 541.666992188 m 1
 250 541.666992188 l 1
 250 583.333007812 l 1
 125 583.333007812 l 1
 125 541.666992188 l 1025
125 500 m 1
 250 500 l 1
 250 541.666992188 l 1
 125 541.666992188 l 1
 125 500 l 1025
125 458.333007812 m 1
 250 458.333007812 l 1
 250 500 l 1
 125 500 l 1
 125 458.333007812 l 1025
125 416.666992188 m 1
 250 416.666992188 l 1
 250 458.333007812 l 1
 125 458.333007812 l 1
 125 416.666992188 l 1025
125 375 m 1
 250 375 l 1
 250 416.666992188 l 1
 125 416.666992188 l 1
 125 375 l 1025
125 333.333007812 m 1
 250 333.333007812 l 1
 250 375 l 1
 125 375 l 1
 125 333.333007812 l 1025
125 291.666992188 m 1
 250 291.666992188 l 1
 250 333.333007812 l 1
 125 333.333007812 l 1
 125 291.666992188 l 1025
125 250 m 1
 250 250 l 1
 250 291.666992188 l 1
 125 291.666992188 l 1
 125 250 l 1025
125 208.333007812 m 1
 250 208.333007812 l 1
 250 250 l 1
 125 250 l 1
 125 208.333007812 l 1025
125 166.666992188 m 1
 250 166.666992188 l 1
 250 208.333007812 l 1
 125 208.333007812 l 1
 125 166.666992188 l 1025
125 125 m 1
 250 125 l 1
 250 166.666992188 l 1
 125 166.666992188 l 1
 125 125 l 1025
125 83.3330078125 m 1
 250 83.3330078125 l 1
 250 125 l 1
 125 125 l 1
 125 83.3330078125 l 1025
125 41.6669921875 m 1
 583.333007812 41.6669921875 l 1
 583.333007812 83.3330078125 l 1
 125 83.3330078125 l 1
 125 41.6669921875 l 1025
125 0 m 1
 583.333007812 0 l 1
 583.333007812 41.6669921875 l 1
 125 41.6669921875 l 1
 125 0 l 1
EndSplineSet
EndChar

StartChar: M
Encoding: 77 77 46
Width: 916
VWidth: 0
Flags: HW
LayerCount: 2
Back
Fore
SplineSet
41.6669921875 708.333007812 m 1
 166.666992188 708.333007812 l 1
 166.666992188 750 l 1
 41.6669921875 750 l 1
 41.6669921875 708.333007812 l 1025
458.333007812 708.333007812 m 1
 583.333007812 708.333007812 l 1
 583.333007812 750 l 1
 458.333007812 750 l 1
 458.333007812 708.333007812 l 1025
41.6669921875 666.666992188 m 1
 208.333007812 666.666992188 l 1
 208.333007812 708.333007812 l 1
 41.6669921875 708.333007812 l 1
 41.6669921875 666.666992188 l 1025
416.666992188 666.666992188 m 1
 583.333007812 666.666992188 l 1
 583.333007812 708.333007812 l 1
 416.666992188 708.333007812 l 1
 416.666992188 666.666992188 l 1025
41.6669921875 625 m 1
 208.333007812 625 l 1
 208.333007812 666.666992188 l 1
 41.6669921875 666.666992188 l 1
 41.6669921875 625 l 1025
416.666992188 625 m 1
 583.333007812 625 l 1
 583.333007812 666.666992188 l 1
 416.666992188 666.666992188 l 1
 416.666992188 625 l 1025
41.6669921875 583.333007812 m 1
 208.333007812 583.333007812 l 1
 208.333007812 625 l 1
 41.6669921875 625 l 1
 41.6669921875 583.333007812 l 1025
416.666992188 583.333007812 m 1
 583.333007812 583.333007812 l 1
 583.333007812 625 l 1
 416.666992188 625 l 1
 416.666992188 583.333007812 l 1025
41.6669921875 541.666992188 m 1
 208.333007812 541.666992188 l 1
 208.333007812 583.333007812 l 1
 41.6669921875 583.333007812 l 1
 41.6669921875 541.666992188 l 1025
416.666992188 541.666992188 m 1
 583.333007812 541.666992188 l 1
 583.333007812 583.333007812 l 1
 416.666992188 583.333007812 l 1
 416.666992188 541.666992188 l 1025
41.6669921875 500 m 1
 125 500 l 1
 125 541.666992188 l 1
 41.6669921875 541.666992188 l 1
 41.6669921875 500 l 1025
166.666992188 500 m 1
 250 500 l 1
 250 541.666992188 l 1
 166.666992188 541.666992188 l 1
 166.666992188 500 l 1025
375 500 m 1
 458.333007812 500 l 1
 458.333007812 541.666992188 l 1
 375 541.666992188 l 1
 375 500 l 1025
500 500 m 1
 583.333007812 500 l 1
 583.333007812 541.666992188 l 1
 500 541.666992188 l 1
 500 500 l 1025
41.6669921875 458.333007812 m 1
 125 458.333007812 l 1
 125 500 l 1
 41.6669921875 500 l 1
 41.6669921875 458.333007812 l 1025
166.666992188 458.333007812 m 1
 250 458.333007812 l 1
 250 500 l 1
 166.666992188 500 l 1
 166.666992188 458.333007812 l 1025
375 458.333007812 m 1
 458.333007812 458.333007812 l 1
 458.333007812 500 l 1
 375 500 l 1
 375 458.333007812 l 1025
500 458.333007812 m 1
 583.333007812 458.333007812 l 1
 583.333007812 500 l 1
 500 500 l 1
 500 458.333007812 l 1025
41.6669921875 416.666992188 m 1
 125 416.666992188 l 1
 125 458.333007812 l 1
 41.6669921875 458.333007812 l 1
 41.6669921875 416.666992188 l 1025
166.666992188 416.666992188 m 1
 250 416.666992188 l 1
 250 458.333007812 l 1
 166.666992188 458.333007812 l 1
 166.666992188 416.666992188 l 1025
375 416.666992188 m 1
 458.333007812 416.666992188 l 1
 458.333007812 458.333007812 l 1
 375 458.333007812 l 1
 375 416.666992188 l 1025
500 416.666992188 m 1
 583.333007812 416.666992188 l 1
 583.333007812 458.333007812 l 1
 500 458.333007812 l 1
 500 416.666992188 l 1025
41.6669921875 375 m 1
 125 375 l 1
 125 416.666992188 l 1
 41.6669921875 416.666992188 l 1
 41.6669921875 375 l 1025
166.666992188 375 m 1
 250 375 l 1
 250 416.666992188 l 1
 166.666992188 416.666992188 l 1
 166.666992188 375 l 1025
375 375 m 1
 458.333007812 375 l 1
 458.333007812 416.666992188 l 1
 375 416.666992188 l 1
 375 375 l 1025
500 375 m 1
 583.333007812 375 l 1
 583.333007812 416.666992188 l 1
 500 416.666992188 l 1
 500 375 l 1025
41.6669921875 333.333007812 m 1
 125 333.333007812 l 1
 125 375 l 1
 41.6669921875 375 l 1
 41.6669921875 333.333007812 l 1025
166.666992188 333.333007812 m 1
 291.666992188 333.333007812 l 1
 291.666992188 375 l 1
 166.666992188 375 l 1
 166.666992188 333.333007812 l 1025
333.333007812 333.333007812 m 1
 416.666992188 333.333007812 l 1
 416.666992188 375 l 1
 333.333007812 375 l 1
 333.333007812 333.333007812 l 1025
500 333.333007812 m 1
 583.333007812 333.333007812 l 1
 583.333007812 375 l 1
 500 375 l 1
 500 333.333007812 l 1025
41.6669921875 291.666992188 m 1
 125 291.666992188 l 1
 125 333.333007812 l 1
 41.6669921875 333.333007812 l 1
 41.6669921875 291.666992188 l 1025
208.333007812 291.666992188 m 1
 291.666992188 291.666992188 l 1
 291.666992188 333.333007812 l 1
 208.333007812 333.333007812 l 1
 208.333007812 291.666992188 l 1025
333.333007812 291.666992188 m 1
 416.666992188 291.666992188 l 1
 416.666992188 333.333007812 l 1
 333.333007812 333.333007812 l 1
 333.333007812 291.666992188 l 1025
500 291.666992188 m 1
 583.333007812 291.666992188 l 1
 583.333007812 333.333007812 l 1
 500 333.333007812 l 1
 500 291.666992188 l 1025
41.6669921875 250 m 1
 125 250 l 1
 125 291.666992188 l 1
 41.6669921875 291.666992188 l 1
 41.6669921875 250 l 1025
208.333007812 250 m 1
 291.666992188 250 l 1
 291.666992188 291.666992188 l 1
 208.333007812 291.666992188 l 1
 208.333007812 250 l 1025
333.333007812 250 m 1
 416.666992188 250 l 1
 416.666992188 291.666992188 l 1
 333.333007812 291.666992188 l 1
 333.333007812 250 l 1025
500 250 m 1
 583.333007812 250 l 1
 583.333007812 291.666992188 l 1
 500 291.666992188 l 1
 500 250 l 1025
41.6669921875 208.333007812 m 1
 125 208.333007812 l 1
 125 250 l 1
 41.6669921875 250 l 1
 41.6669921875 208.333007812 l 1025
208.333007812 208.333007812 m 1
 291.666992188 208.333007812 l 1
 291.666992188 250 l 1
 208.333007812 250 l 1
 208.333007812 208.333007812 l 1025
333.333007812 208.333007812 m 1
 416.666992188 208.333007812 l 1
 416.666992188 250 l 1
 333.333007812 250 l 1
 333.333007812 208.333007812 l 1025
500 208.333007812 m 1
 583.333007812 208.333007812 l 1
 583.333007812 250 l 1
 500 250 l 1
 500 208.333007812 l 1025
41.6669921875 166.666992188 m 1
 125 166.666992188 l 1
 125 208.333007812 l 1
 41.6669921875 208.333007812 l 1
 41.6669921875 166.666992188 l 1025
208.333007812 166.666992188 m 1
 416.666992188 166.666992188 l 1
 416.666992188 208.333007812 l 1
 208.333007812 208.333007812 l 1
 208.333007812 166.666992188 l 1025
500 166.666992188 m 1
 583.333007812 166.666992188 l 1
 583.333007812 208.333007812 l 1
 500 208.333007812 l 1
 500 166.666992188 l 1025
41.6669921875 125 m 1
 125 125 l 1
 125 166.666992188 l 1
 41.6669921875 166.666992188 l 1
 41.6669921875 125 l 1025
250 125 m 1
 375 125 l 1
 375 166.666992188 l 1
 250 166.666992188 l 1
 250 125 l 1025
500 125 m 1
 583.333007812 125 l 1
 583.333007812 166.666992188 l 1
 500 166.666992188 l 1
 500 125 l 1025
41.6669921875 83.3330078125 m 1
 125 83.3330078125 l 1
 125 125 l 1
 41.6669921875 125 l 1
 41.6669921875 83.3330078125 l 1025
250 83.3330078125 m 1
 375 83.3330078125 l 1
 375 125 l 1
 250 125 l 1
 250 83.3330078125 l 1025
500 83.3330078125 m 1
 583.333007812 83.3330078125 l 1
 583.333007812 125 l 1
 500 125 l 1
 500 83.3330078125 l 1025
41.6669921875 41.6669921875 m 1
 125 41.6669921875 l 1
 125 83.3330078125 l 1
 41.6669921875 83.3330078125 l 1
 41.6669921875 41.6669921875 l 1025
250 41.6669921875 m 1
 375 41.6669921875 l 1
 375 83.3330078125 l 1
 250 83.3330078125 l 1
 250 41.6669921875 l 1025
500 41.6669921875 m 1
 583.333007812 41.6669921875 l 1
 583.333007812 83.3330078125 l 1
 500 83.3330078125 l 1
 500 41.6669921875 l 1025
41.6669921875 0 m 1
 125 0 l 1
 125 41.6669921875 l 1
 41.6669921875 41.6669921875 l 1
 41.6669921875 0 l 1025
500 0 m 1
 583.333007812 0 l 1
 583.333007812 41.6669921875 l 1
 500 41.6669921875 l 1
 500 0 l 1
EndSplineSet
EndChar

StartChar: N
Encoding: 78 78 47
Width: 916
VWidth: 0
Flags: HW
LayerCount: 2
Back
Fore
SplineSet
83.3330078125 708.333007812 m 1
 208.333007812 708.333007812 l 1
 208.333007812 750 l 1
 83.3330078125 750 l 1
 83.3330078125 708.333007812 l 1025
458.333007812 708.333007812 m 1
 541.666992188 708.333007812 l 1
 541.666992188 750 l 1
 458.333007812 750 l 1
 458.333007812 708.333007812 l 1025
83.3330078125 666.666992188 m 1
 208.333007812 666.666992188 l 1
 208.333007812 708.333007812 l 1
 83.3330078125 708.333007812 l 1
 83.3330078125 666.666992188 l 1025
458.333007812 666.666992188 m 1
 541.666992188 666.666992188 l 1
 541.666992188 708.333007812 l 1
 458.333007812 708.333007812 l 1
 458.333007812 666.666992188 l 1025
83.3330078125 625 m 1
 250 625 l 1
 250 666.666992188 l 1
 83.3330078125 666.666992188 l 1
 83.3330078125 625 l 1025
458.333007812 625 m 1
 541.666992188 625 l 1
 541.666992188 666.666992188 l 1
 458.333007812 666.666992188 l 1
 458.333007812 625 l 1025
83.3330078125 583.333007812 m 1
 250 583.333007812 l 1
 250 625 l 1
 83.3330078125 625 l 1
 83.3330078125 583.333007812 l 1025
458.333007812 583.333007812 m 1
 541.666992188 583.333007812 l 1
 541.666992188 625 l 1
 458.333007812 625 l 1
 458.333007812 583.333007812 l 1025
83.3330078125 541.666992188 m 1
 291.666992188 541.666992188 l 1
 291.666992188 583.333007812 l 1
 83.3330078125 583.333007812 l 1
 83.3330078125 541.666992188 l 1025
458.333007812 541.666992188 m 1
 541.666992188 541.666992188 l 1
 541.666992188 583.333007812 l 1
 458.333007812 583.333007812 l 1
 458.333007812 541.666992188 l 1025
83.3330078125 500 m 1
 291.666992188 500 l 1
 291.666992188 541.666992188 l 1
 83.3330078125 541.666992188 l 1
 83.3330078125 500 l 1025
458.333007812 500 m 1
 541.666992188 500 l 1
 541.666992188 541.666992188 l 1
 458.333007812 541.666992188 l 1
 458.333007812 500 l 1025
83.3330078125 458.333007812 m 1
 166.666992188 458.333007812 l 1
 166.666992188 500 l 1
 83.3330078125 500 l 1
 83.3330078125 458.333007812 l 1025
208.333007812 458.333007812 m 1
 333.333007812 458.333007812 l 1
 333.333007812 500 l 1
 208.333007812 500 l 1
 208.333007812 458.333007812 l 1025
458.333007812 458.333007812 m 1
 541.666992188 458.333007812 l 1
 541.666992188 500 l 1
 458.333007812 500 l 1
 458.333007812 458.333007812 l 1025
83.3330078125 416.666992188 m 1
 166.666992188 416.666992188 l 1
 166.666992188 458.333007812 l 1
 83.3330078125 458.333007812 l 1
 83.3330078125 416.666992188 l 1025
208.333007812 416.666992188 m 1
 333.333007812 416.666992188 l 1
 333.333007812 458.333007812 l 1
 208.333007812 458.333007812 l 1
 208.333007812 416.666992188 l 1025
458.333007812 416.666992188 m 1
 541.666992188 416.666992188 l 1
 541.666992188 458.333007812 l 1
 458.333007812 458.333007812 l 1
 458.333007812 416.666992188 l 1025
83.3330078125 375 m 1
 166.666992188 375 l 1
 166.666992188 416.666992188 l 1
 83.3330078125 416.666992188 l 1
 83.3330078125 375 l 1025
250 375 m 1
 375 375 l 1
 375 416.666992188 l 1
 250 416.666992188 l 1
 250 375 l 1025
458.333007812 375 m 1
 541.666992188 375 l 1
 541.666992188 416.666992188 l 1
 458.333007812 416.666992188 l 1
 458.333007812 375 l 1025
83.3330078125 333.333007812 m 1
 166.666992188 333.333007812 l 1
 166.666992188 375 l 1
 83.3330078125 375 l 1
 83.3330078125 333.333007812 l 1025
250 333.333007812 m 1
 375 333.333007812 l 1
 375 375 l 1
 250 375 l 1
 250 333.333007812 l 1025
458.333007812 333.333007812 m 1
 541.666992188 333.333007812 l 1
 541.666992188 375 l 1
 458.333007812 375 l 1
 458.333007812 333.333007812 l 1025
83.3330078125 291.666992188 m 1
 166.666992188 291.666992188 l 1
 166.666992188 333.333007812 l 1
 83.3330078125 333.333007812 l 1
 83.3330078125 291.666992188 l 1025
291.666992188 291.666992188 m 1
 416.666992188 291.666992188 l 1
 416.666992188 333.333007812 l 1
 291.666992188 333.333007812 l 1
 291.666992188 291.666992188 l 1025
458.333007812 291.666992188 m 1
 541.666992188 291.666992188 l 1
 541.666992188 333.333007812 l 1
 458.333007812 333.333007812 l 1
 458.333007812 291.666992188 l 1025
83.3330078125 250 m 1
 166.666992188 250 l 1
 166.666992188 291.666992188 l 1
 83.3330078125 291.666992188 l 1
 83.3330078125 250 l 1025
291.666992188 250 m 1
 416.666992188 250 l 1
 416.666992188 291.666992188 l 1
 291.666992188 291.666992188 l 1
 291.666992188 250 l 1025
458.333007812 250 m 1
 541.666992188 250 l 1
 541.666992188 291.666992188 l 1
 458.333007812 291.666992188 l 1
 458.333007812 250 l 1025
83.3330078125 208.333007812 m 1
 166.666992188 208.333007812 l 1
 166.666992188 250 l 1
 83.3330078125 250 l 1
 83.3330078125 208.333007812 l 1025
333.333007812 208.333007812 m 1
 541.666992188 208.333007812 l 1
 541.666992188 250 l 1
 333.333007812 250 l 1
 333.333007812 208.333007812 l 1025
83.3330078125 166.666992188 m 1
 166.666992188 166.666992188 l 1
 166.666992188 208.333007812 l 1
 83.3330078125 208.333007812 l 1
 83.3330078125 166.666992188 l 1025
333.333007812 166.666992188 m 1
 541.666992188 166.666992188 l 1
 541.666992188 208.333007812 l 1
 333.333007812 208.333007812 l 1
 333.333007812 166.666992188 l 1025
83.3330078125 125 m 1
 166.666992188 125 l 1
 166.666992188 166.666992188 l 1
 83.3330078125 166.666992188 l 1
 83.3330078125 125 l 1025
375 125 m 1
 541.666992188 125 l 1
 541.666992188 166.666992188 l 1
 375 166.666992188 l 1
 375 125 l 1025
83.3330078125 83.3330078125 m 1
 166.666992188 83.3330078125 l 1
 166.666992188 125 l 1
 83.3330078125 125 l 1
 83.3330078125 83.3330078125 l 1025
375 83.3330078125 m 1
 541.666992188 83.3330078125 l 1
 541.666992188 125 l 1
 375 125 l 1
 375 83.3330078125 l 1025
83.3330078125 41.6669921875 m 1
 166.666992188 41.6669921875 l 1
 166.666992188 83.3330078125 l 1
 83.3330078125 83.3330078125 l 1
 83.3330078125 41.6669921875 l 1025
416.666992188 41.6669921875 m 1
 541.666992188 41.6669921875 l 1
 541.666992188 83.3330078125 l 1
 416.666992188 83.3330078125 l 1
 416.666992188 41.6669921875 l 1025
83.3330078125 0 m 1
 166.666992188 0 l 1
 166.666992188 41.6669921875 l 1
 83.3330078125 41.6669921875 l 1
 83.3330078125 0 l 1025
416.666992188 0 m 1
 541.666992188 0 l 1
 541.666992188 41.6669921875 l 1
 416.666992188 41.6669921875 l 1
 416.666992188 0 l 1
EndSplineSet
EndChar

StartChar: O
Encoding: 79 79 48
Width: 916
VWidth: 0
Flags: HW
LayerCount: 2
Back
Fore
SplineSet
166.666992188 708.333007812 m 1
 416.666992188 708.333007812 l 1
 416.666992188 750 l 1
 166.666992188 750 l 1
 166.666992188 708.333007812 l 1025
125 666.666992188 m 1
 458.333007812 666.666992188 l 1
 458.333007812 708.333007812 l 1
 125 708.333007812 l 1
 125 666.666992188 l 1025
83.3330078125 625 m 1
 208.333007812 625 l 1
 208.333007812 666.666992188 l 1
 83.3330078125 666.666992188 l 1
 83.3330078125 625 l 1025
375 625 m 1
 500 625 l 1
 500 666.666992188 l 1
 375 666.666992188 l 1
 375 625 l 1025
41.6669921875 583.333007812 m 1
 166.666992188 583.333007812 l 1
 166.666992188 625 l 1
 41.6669921875 625 l 1
 41.6669921875 583.333007812 l 1025
416.666992188 583.333007812 m 1
 541.666992188 583.333007812 l 1
 541.666992188 625 l 1
 416.666992188 625 l 1
 416.666992188 583.333007812 l 1025
41.6669921875 541.666992188 m 1
 166.666992188 541.666992188 l 1
 166.666992188 583.333007812 l 1
 41.6669921875 583.333007812 l 1
 41.6669921875 541.666992188 l 1025
416.666992188 541.666992188 m 1
 541.666992188 541.666992188 l 1
 541.666992188 583.333007812 l 1
 416.666992188 583.333007812 l 1
 416.666992188 541.666992188 l 1025
0 500 m 1
 125 500 l 1
 125 541.666992188 l 1
 0 541.666992188 l 1
 0 500 l 1025
458.333007812 500 m 1
 583.333007812 500 l 1
 583.333007812 541.666992188 l 1
 458.333007812 541.666992188 l 1
 458.333007812 500 l 1025
0 458.333007812 m 1
 125 458.333007812 l 1
 125 500 l 1
 0 500 l 1
 0 458.333007812 l 1025
458.333007812 458.333007812 m 1
 583.333007812 458.333007812 l 1
 583.333007812 500 l 1
 458.333007812 500 l 1
 458.333007812 458.333007812 l 1025
0 416.666992188 m 1
 125 416.666992188 l 1
 125 458.333007812 l 1
 0 458.333007812 l 1
 0 416.666992188 l 1025
458.333007812 416.666992188 m 1
 583.333007812 416.666992188 l 1
 583.333007812 458.333007812 l 1
 458.333007812 458.333007812 l 1
 458.333007812 416.666992188 l 1025
0 375 m 1
 125 375 l 1
 125 416.666992188 l 1
 0 416.666992188 l 1
 0 375 l 1025
458.333007812 375 m 1
 583.333007812 375 l 1
 583.333007812 416.666992188 l 1
 458.333007812 416.666992188 l 1
 458.333007812 375 l 1025
0 333.333007812 m 1
 125 333.333007812 l 1
 125 375 l 1
 0 375 l 1
 0 333.333007812 l 1025
458.333007812 333.333007812 m 1
 583.333007812 333.333007812 l 1
 583.333007812 375 l 1
 458.333007812 375 l 1
 458.333007812 333.333007812 l 1025
0 291.666992188 m 1
 125 291.666992188 l 1
 125 333.333007812 l 1
 0 333.333007812 l 1
 0 291.666992188 l 1025
458.333007812 291.666992188 m 1
 583.333007812 291.666992188 l 1
 583.333007812 333.333007812 l 1
 458.333007812 333.333007812 l 1
 458.333007812 291.666992188 l 1025
0 250 m 1
 125 250 l 1
 125 291.666992188 l 1
 0 291.666992188 l 1
 0 250 l 1025
458.333007812 250 m 1
 583.333007812 250 l 1
 583.333007812 291.666992188 l 1
 458.333007812 291.666992188 l 1
 458.333007812 250 l 1025
0 208.333007812 m 1
 125 208.333007812 l 1
 125 250 l 1
 0 250 l 1
 0 208.333007812 l 1025
458.333007812 208.333007812 m 1
 583.333007812 208.333007812 l 1
 583.333007812 250 l 1
 458.333007812 250 l 1
 458.333007812 208.333007812 l 1025
41.6669921875 166.666992188 m 1
 166.666992188 166.666992188 l 1
 166.666992188 208.333007812 l 1
 41.6669921875 208.333007812 l 1
 41.6669921875 166.666992188 l 1025
416.666992188 166.666992188 m 1
 541.666992188 166.666992188 l 1
 541.666992188 208.333007812 l 1
 416.666992188 208.333007812 l 1
 416.666992188 166.666992188 l 1025
41.6669921875 125 m 1
 166.666992188 125 l 1
 166.666992188 166.666992188 l 1
 41.6669921875 166.666992188 l 1
 41.6669921875 125 l 1025
416.666992188 125 m 1
 541.666992188 125 l 1
 541.666992188 166.666992188 l 1
 416.666992188 166.666992188 l 1
 416.666992188 125 l 1025
83.3330078125 83.3330078125 m 1
 208.333007812 83.3330078125 l 1
 208.333007812 125 l 1
 83.3330078125 125 l 1
 83.3330078125 83.3330078125 l 1025
375 83.3330078125 m 1
 500 83.3330078125 l 1
 500 125 l 1
 375 125 l 1
 375 83.3330078125 l 1025
125 41.6669921875 m 1
 458.333007812 41.6669921875 l 1
 458.333007812 83.3330078125 l 1
 125 83.3330078125 l 1
 125 41.6669921875 l 1025
166.666992188 0 m 1
 416.666992188 0 l 1
 416.666992188 41.6669921875 l 1
 166.666992188 41.6669921875 l 1
 166.666992188 0 l 1
EndSplineSet
EndChar

StartChar: P
Encoding: 80 80 49
Width: 916
VWidth: 0
Flags: HW
LayerCount: 2
Back
Fore
SplineSet
125 708.333007812 m 1
 500 708.333007812 l 1
 500 750 l 1
 125 750 l 1
 125 708.333007812 l 1025
125 666.666992188 m 1
 541.666992188 666.666992188 l 1
 541.666992188 708.333007812 l 1
 125 708.333007812 l 1
 125 666.666992188 l 1025
125 625 m 1
 250 625 l 1
 250 666.666992188 l 1
 125 666.666992188 l 1
 125 625 l 1025
416.666992188 625 m 1
 583.333007812 625 l 1
 583.333007812 666.666992188 l 1
 416.666992188 666.666992188 l 1
 416.666992188 625 l 1025
125 583.333007812 m 1
 250 583.333007812 l 1
 250 625 l 1
 125 625 l 1
 125 583.333007812 l 1025
458.333007812 583.333007812 m 1
 583.333007812 583.333007812 l 1
 583.333007812 625 l 1
 458.333007812 625 l 1
 458.333007812 583.333007812 l 1025
125 541.666992188 m 1
 250 541.666992188 l 1
 250 583.333007812 l 1
 125 583.333007812 l 1
 125 541.666992188 l 1025
458.333007812 541.666992188 m 1
 583.333007812 541.666992188 l 1
 583.333007812 583.333007812 l 1
 458.333007812 583.333007812 l 1
 458.333007812 541.666992188 l 1025
125 500 m 1
 250 500 l 1
 250 541.666992188 l 1
 125 541.666992188 l 1
 125 500 l 1025
458.333007812 500 m 1
 583.333007812 500 l 1
 583.333007812 541.666992188 l 1
 458.333007812 541.666992188 l 1
 458.333007812 500 l 1025
125 458.333007812 m 1
 250 458.333007812 l 1
 250 500 l 1
 125 500 l 1
 125 458.333007812 l 1025
458.333007812 458.333007812 m 1
 583.333007812 458.333007812 l 1
 583.333007812 500 l 1
 458.333007812 500 l 1
 458.333007812 458.333007812 l 1025
125 416.666992188 m 1
 250 416.666992188 l 1
 250 458.333007812 l 1
 125 458.333007812 l 1
 125 416.666992188 l 1025
458.333007812 416.666992188 m 1
 541.666992188 416.666992188 l 1
 541.666992188 458.333007812 l 1
 458.333007812 458.333007812 l 1
 458.333007812 416.666992188 l 1025
125 375 m 1
 250 375 l 1
 250 416.666992188 l 1
 125 416.666992188 l 1
 125 375 l 1025
416.666992188 375 m 1
 541.666992188 375 l 1
 541.666992188 416.666992188 l 1
 416.666992188 416.666992188 l 1
 416.666992188 375 l 1025
125 333.333007812 m 1
 500 333.333007812 l 1
 500 375 l 1
 125 375 l 1
 125 333.333007812 l 1025
125 291.666992188 m 1
 416.666992188 291.666992188 l 1
 416.666992188 333.333007812 l 1
 125 333.333007812 l 1
 125 291.666992188 l 1025
125 250 m 1
 250 250 l 1
 250 291.666992188 l 1
 125 291.666992188 l 1
 125 250 l 1025
125 208.333007812 m 1
 250 208.333007812 l 1
 250 250 l 1
 125 250 l 1
 125 208.333007812 l 1025
125 166.666992188 m 1
 250 166.666992188 l 1
 250 208.333007812 l 1
 125 208.333007812 l 1
 125 166.666992188 l 1025
125 125 m 1
 250 125 l 1
 250 166.666992188 l 1
 125 166.666992188 l 1
 125 125 l 1025
125 83.3330078125 m 1
 250 83.3330078125 l 1
 250 125 l 1
 125 125 l 1
 125 83.3330078125 l 1025
125 41.6669921875 m 1
 250 41.6669921875 l 1
 250 83.3330078125 l 1
 125 83.3330078125 l 1
 125 41.6669921875 l 1025
125 0 m 1
 250 0 l 1
 250 41.6669921875 l 1
 125 41.6669921875 l 1
 125 0 l 1
EndSplineSet
EndChar

StartChar: Q
Encoding: 81 81 50
Width: 916
VWidth: 0
Flags: HW
LayerCount: 2
Back
Fore
SplineSet
208.333007812 708.333007812 m 1
 458.333007812 708.333007812 l 1
 458.333007812 750 l 1
 208.333007812 750 l 1
 208.333007812 708.333007812 l 1025
166.666992188 666.666992188 m 1
 500 666.666992188 l 1
 500 708.333007812 l 1
 166.666992188 708.333007812 l 1
 166.666992188 666.666992188 l 1025
125 625 m 1
 250 625 l 1
 250 666.666992188 l 1
 125 666.666992188 l 1
 125 625 l 1025
416.666992188 625 m 1
 541.666992188 625 l 1
 541.666992188 666.666992188 l 1
 416.666992188 666.666992188 l 1
 416.666992188 625 l 1025
83.3330078125 583.333007812 m 1
 208.333007812 583.333007812 l 1
 208.333007812 625 l 1
 83.3330078125 625 l 1
 83.3330078125 583.333007812 l 1025
458.333007812 583.333007812 m 1
 583.333007812 583.333007812 l 1
 583.333007812 625 l 1
 458.333007812 625 l 1
 458.333007812 583.333007812 l 1025
83.3330078125 541.666992188 m 1
 208.333007812 541.666992188 l 1
 208.333007812 583.333007812 l 1
 83.3330078125 583.333007812 l 1
 83.3330078125 541.666992188 l 1025
458.333007812 541.666992188 m 1
 583.333007812 541.666992188 l 1
 583.333007812 583.333007812 l 1
 458.333007812 583.333007812 l 1
 458.333007812 541.666992188 l 1025
41.6669921875 500 m 1
 166.666992188 500 l 1
 166.666992188 541.666992188 l 1
 41.6669921875 541.666992188 l 1
 41.6669921875 500 l 1025
500 500 m 1
 625 500 l 1
 625 541.666992188 l 1
 500 541.666992188 l 1
 500 500 l 1025
41.6669921875 458.333007812 m 1
 166.666992188 458.333007812 l 1
 166.666992188 500 l 1
 41.6669921875 500 l 1
 41.6669921875 458.333007812 l 1025
500 458.333007812 m 1
 625 458.333007812 l 1
 625 500 l 1
 500 500 l 1
 500 458.333007812 l 1025
41.6669921875 416.666992188 m 1
 166.666992188 416.666992188 l 1
 166.666992188 458.333007812 l 1
 41.6669921875 458.333007812 l 1
 41.6669921875 416.666992188 l 1025
500 416.666992188 m 1
 625 416.666992188 l 1
 625 458.333007812 l 1
 500 458.333007812 l 1
 500 416.666992188 l 1025
41.6669921875 375 m 1
 166.666992188 375 l 1
 166.666992188 416.666992188 l 1
 41.6669921875 416.666992188 l 1
 41.6669921875 375 l 1025
500 375 m 1
 625 375 l 1
 625 416.666992188 l 1
 500 416.666992188 l 1
 500 375 l 1025
41.6669921875 333.333007812 m 1
 166.666992188 333.333007812 l 1
 166.666992188 375 l 1
 41.6669921875 375 l 1
 41.6669921875 333.333007812 l 1025
500 333.333007812 m 1
 625 333.333007812 l 1
 625 375 l 1
 500 375 l 1
 500 333.333007812 l 1025
41.6669921875 291.666992188 m 1
 166.666992188 291.666992188 l 1
 166.666992188 333.333007812 l 1
 41.6669921875 333.333007812 l 1
 41.6669921875 291.666992188 l 1025
500 291.666992188 m 1
 625 291.666992188 l 1
 625 333.333007812 l 1
 500 333.333007812 l 1
 500 291.666992188 l 1025
41.6669921875 250 m 1
 166.666992188 250 l 1
 166.666992188 291.666992188 l 1
 41.6669921875 291.666992188 l 1
 41.6669921875 250 l 1025
500 250 m 1
 625 250 l 1
 625 291.666992188 l 1
 500 291.666992188 l 1
 500 250 l 1025
41.6669921875 208.333007812 m 1
 166.666992188 208.333007812 l 1
 166.666992188 250 l 1
 41.6669921875 250 l 1
 41.6669921875 208.333007812 l 1025
500 208.333007812 m 1
 625 208.333007812 l 1
 625 250 l 1
 500 250 l 1
 500 208.333007812 l 1025
83.3330078125 166.666992188 m 1
 208.333007812 166.666992188 l 1
 208.333007812 208.333007812 l 1
 83.3330078125 208.333007812 l 1
 83.3330078125 166.666992188 l 1025
458.333007812 166.666992188 m 1
 583.333007812 166.666992188 l 1
 583.333007812 208.333007812 l 1
 458.333007812 208.333007812 l 1
 458.333007812 166.666992188 l 1025
83.3330078125 125 m 1
 208.333007812 125 l 1
 208.333007812 166.666992188 l 1
 83.3330078125 166.666992188 l 1
 83.3330078125 125 l 1025
458.333007812 125 m 1
 583.333007812 125 l 1
 583.333007812 166.666992188 l 1
 458.333007812 166.666992188 l 1
 458.333007812 125 l 1025
125 83.3330078125 m 1
 250 83.3330078125 l 1
 250 125 l 1
 125 125 l 1
 125 83.3330078125 l 1025
416.666992188 83.3330078125 m 1
 541.666992188 83.3330078125 l 1
 541.666992188 125 l 1
 416.666992188 125 l 1
 416.666992188 83.3330078125 l 1025
166.666992188 41.6669921875 m 1
 541.666992188 41.6669921875 l 1
 541.666992188 83.3330078125 l 1
 166.666992188 83.3330078125 l 1
 166.666992188 41.6669921875 l 1025
208.333007812 0 m 1
 458.333007812 0 l 1
 458.333007812 41.6669921875 l 1
 208.333007812 41.6669921875 l 1
 208.333007812 0 l 1025
375 -41.6669921875 m 1
 500 -41.6669921875 l 1
 500 0 l 1
 375 0 l 1
 375 -41.6669921875 l 1025
416.666992188 -83.3330078125 m 1
 583.333007812 -83.3330078125 l 1
 583.333007812 -41.6669921875 l 1
 416.666992188 -41.6669921875 l 1
 416.666992188 -83.3330078125 l 1025
500 -125 m 1
 666.666992188 -125 l 1
 666.666992188 -83.3330078125 l 1
 500 -83.3330078125 l 1
 500 -125 l 1025
541.666992188 -166.666992188 m 1
 625 -166.666992188 l 1
 625 -125 l 1
 541.666992188 -125 l 1
 541.666992188 -166.666992188 l 1
EndSplineSet
EndChar

StartChar: R
Encoding: 82 82 51
Width: 916
VWidth: 0
Flags: HW
LayerCount: 2
Back
Fore
SplineSet
83.3330078125 708.333007812 m 1
 416.666992188 708.333007812 l 1
 416.666992188 750 l 1
 83.3330078125 750 l 1
 83.3330078125 708.333007812 l 1025
83.3330078125 666.666992188 m 1
 458.333007812 666.666992188 l 1
 458.333007812 708.333007812 l 1
 83.3330078125 708.333007812 l 1
 83.3330078125 666.666992188 l 1025
83.3330078125 625 m 1
 208.333007812 625 l 1
 208.333007812 666.666992188 l 1
 83.3330078125 666.666992188 l 1
 83.3330078125 625 l 1025
333.333007812 625 m 1
 500 625 l 1
 500 666.666992188 l 1
 333.333007812 666.666992188 l 1
 333.333007812 625 l 1025
83.3330078125 583.333007812 m 1
 208.333007812 583.333007812 l 1
 208.333007812 625 l 1
 83.3330078125 625 l 1
 83.3330078125 583.333007812 l 1025
375 583.333007812 m 1
 500 583.333007812 l 1
 500 625 l 1
 375 625 l 1
 375 583.333007812 l 1025
83.3330078125 541.666992188 m 1
 208.333007812 541.666992188 l 1
 208.333007812 583.333007812 l 1
 83.3330078125 583.333007812 l 1
 83.3330078125 541.666992188 l 1025
375 541.666992188 m 1
 500 541.666992188 l 1
 500 583.333007812 l 1
 375 583.333007812 l 1
 375 541.666992188 l 1025
83.3330078125 500 m 1
 208.333007812 500 l 1
 208.333007812 541.666992188 l 1
 83.3330078125 541.666992188 l 1
 83.3330078125 500 l 1025
375 500 m 1
 500 500 l 1
 500 541.666992188 l 1
 375 541.666992188 l 1
 375 500 l 1025
83.3330078125 458.333007812 m 1
 208.333007812 458.333007812 l 1
 208.333007812 500 l 1
 83.3330078125 500 l 1
 83.3330078125 458.333007812 l 1025
375 458.333007812 m 1
 500 458.333007812 l 1
 500 500 l 1
 375 500 l 1
 375 458.333007812 l 1025
83.3330078125 416.666992188 m 1
 208.333007812 416.666992188 l 1
 208.333007812 458.333007812 l 1
 83.3330078125 458.333007812 l 1
 83.3330078125 416.666992188 l 1025
333.333007812 416.666992188 m 1
 458.333007812 416.666992188 l 1
 458.333007812 458.333007812 l 1
 333.333007812 458.333007812 l 1
 333.333007812 416.666992188 l 1025
83.3330078125 375 m 1
 208.333007812 375 l 1
 208.333007812 416.666992188 l 1
 83.3330078125 416.666992188 l 1
 83.3330078125 375 l 1025
333.333007812 375 m 1
 416.666992188 375 l 1
 416.666992188 416.666992188 l 1
 333.333007812 416.666992188 l 1
 333.333007812 375 l 1025
83.3330078125 333.333007812 m 1
 375 333.333007812 l 1
 375 375 l 1
 83.3330078125 375 l 1
 83.3330078125 333.333007812 l 1025
83.3330078125 291.666992188 m 1
 375 291.666992188 l 1
 375 333.333007812 l 1
 83.3330078125 333.333007812 l 1
 83.3330078125 291.666992188 l 1025
83.3330078125 250 m 1
 208.333007812 250 l 1
 208.333007812 291.666992188 l 1
 83.3330078125 291.666992188 l 1
 83.3330078125 250 l 1025
291.666992188 250 m 1
 416.666992188 250 l 1
 416.666992188 291.666992188 l 1
 291.666992188 291.666992188 l 1
 291.666992188 250 l 1025
83.3330078125 208.333007812 m 1
 208.333007812 208.333007812 l 1
 208.333007812 250 l 1
 83.3330078125 250 l 1
 83.3330078125 208.333007812 l 1025
291.666992188 208.333007812 m 1
 458.333007812 208.333007812 l 1
 458.333007812 250 l 1
 291.666992188 250 l 1
 291.666992188 208.333007812 l 1025
83.3330078125 166.666992188 m 1
 208.333007812 166.666992188 l 1
 208.333007812 208.333007812 l 1
 83.3330078125 208.333007812 l 1
 83.3330078125 166.666992188 l 1025
333.333007812 166.666992188 m 1
 458.333007812 166.666992188 l 1
 458.333007812 208.333007812 l 1
 333.333007812 208.333007812 l 1
 333.333007812 166.666992188 l 1025
83.3330078125 125 m 1
 208.333007812 125 l 1
 208.333007812 166.666992188 l 1
 83.3330078125 166.666992188 l 1
 83.3330078125 125 l 1025
375 125 m 1
 500 125 l 1
 500 166.666992188 l 1
 375 166.666992188 l 1
 375 125 l 1025
83.3330078125 83.3330078125 m 1
 208.333007812 83.3330078125 l 1
 208.333007812 125 l 1
 83.3330078125 125 l 1
 83.3330078125 83.3330078125 l 1025
375 83.3330078125 m 1
 541.666992188 83.3330078125 l 1
 541.666992188 125 l 1
 375 125 l 1
 375 83.3330078125 l 1025
83.3330078125 41.6669921875 m 1
 208.333007812 41.6669921875 l 1
 208.333007812 83.3330078125 l 1
 83.3330078125 83.3330078125 l 1
 83.3330078125 41.6669921875 l 1025
416.666992188 41.6669921875 m 1
 583.333007812 41.6669921875 l 1
 583.333007812 83.3330078125 l 1
 416.666992188 83.3330078125 l 1
 416.666992188 41.6669921875 l 1025
83.3330078125 0 m 1
 208.333007812 0 l 1
 208.333007812 41.6669921875 l 1
 83.3330078125 41.6669921875 l 1
 83.3330078125 0 l 1025
416.666992188 0 m 1
 625 0 l 1
 625 41.6669921875 l 1
 416.666992188 41.6669921875 l 1
 416.666992188 0 l 1
EndSplineSet
EndChar

StartChar: S
Encoding: 83 83 52
Width: 916
VWidth: 0
Flags: HW
LayerCount: 2
Back
Fore
SplineSet
208.333007812 708.333007812 m 1
 458.333007812 708.333007812 l 1
 458.333007812 750 l 1
 208.333007812 750 l 1
 208.333007812 708.333007812 l 1025
125 666.666992188 m 1
 500 666.666992188 l 1
 500 708.333007812 l 1
 125 708.333007812 l 1
 125 666.666992188 l 1025
83.3330078125 625 m 1
 250 625 l 1
 250 666.666992188 l 1
 83.3330078125 666.666992188 l 1
 83.3330078125 625 l 1025
458.333007812 625 m 1
 500 625 l 1
 500 666.666992188 l 1
 458.333007812 666.666992188 l 1
 458.333007812 625 l 1025
83.3330078125 583.333007812 m 1
 208.333007812 583.333007812 l 1
 208.333007812 625 l 1
 83.3330078125 625 l 1
 83.3330078125 583.333007812 l 1025
83.3330078125 541.666992188 m 1
 208.333007812 541.666992188 l 1
 208.333007812 583.333007812 l 1
 83.3330078125 583.333007812 l 1
 83.3330078125 541.666992188 l 1025
83.3330078125 500 m 1
 208.333007812 500 l 1
 208.333007812 541.666992188 l 1
 83.3330078125 541.666992188 l 1
 83.3330078125 500 l 1025
83.3330078125 458.333007812 m 1
 291.666992188 458.333007812 l 1
 291.666992188 500 l 1
 83.3330078125 500 l 1
 83.3330078125 458.333007812 l 1025
125 416.666992188 m 1
 375 416.666992188 l 1
 375 458.333007812 l 1
 125 458.333007812 l 1
 125 416.666992188 l 1025
208.333007812 375 m 1
 458.333007812 375 l 1
 458.333007812 416.666992188 l 1
 208.333007812 416.666992188 l 1
 208.333007812 375 l 1025
291.666992188 333.333007812 m 1
 500 333.333007812 l 1
 500 375 l 1
 291.666992188 375 l 1
 291.666992188 333.333007812 l 1025
333.333007812 291.666992188 m 1
 541.666992188 291.666992188 l 1
 541.666992188 333.333007812 l 1
 333.333007812 333.333007812 l 1
 333.333007812 291.666992188 l 1025
416.666992188 250 m 1
 583.333007812 250 l 1
 583.333007812 291.666992188 l 1
 416.666992188 291.666992188 l 1
 416.666992188 250 l 1025
458.333007812 208.333007812 m 1
 583.333007812 208.333007812 l 1
 583.333007812 250 l 1
 458.333007812 250 l 1
 458.333007812 208.333007812 l 1025
458.333007812 166.666992188 m 1
 583.333007812 166.666992188 l 1
 583.333007812 208.333007812 l 1
 458.333007812 208.333007812 l 1
 458.333007812 166.666992188 l 1025
458.333007812 125 m 1
 583.333007812 125 l 1
 583.333007812 166.666992188 l 1
 458.333007812 166.666992188 l 1
 458.333007812 125 l 1025
83.3330078125 83.3330078125 m 1
 166.666992188 83.3330078125 l 1
 166.666992188 125 l 1
 83.3330078125 125 l 1
 83.3330078125 83.3330078125 l 1025
416.666992188 83.3330078125 m 1
 541.666992188 83.3330078125 l 1
 541.666992188 125 l 1
 416.666992188 125 l 1
 416.666992188 83.3330078125 l 1025
83.3330078125 41.6669921875 m 1
 500 41.6669921875 l 1
 500 83.3330078125 l 1
 83.3330078125 83.3330078125 l 1
 83.3330078125 41.6669921875 l 1025
125 0 m 1
 458.333007812 0 l 1
 458.333007812 41.6669921875 l 1
 125 41.6669921875 l 1
 125 0 l 1
EndSplineSet
EndChar

StartChar: T
Encoding: 84 84 53
Width: 916
VWidth: 0
Flags: HW
LayerCount: 2
Back
Fore
SplineSet
0 708.333007812 m 1
 625 708.333007812 l 1
 625 750 l 1
 0 750 l 1
 0 708.333007812 l 1025
0 666.666992188 m 1
 625 666.666992188 l 1
 625 708.333007812 l 1
 0 708.333007812 l 1
 0 666.666992188 l 1025
250 625 m 1
 375 625 l 1
 375 666.666992188 l 1
 250 666.666992188 l 1
 250 625 l 1025
250 583.333007812 m 1
 375 583.333007812 l 1
 375 625 l 1
 250 625 l 1
 250 583.333007812 l 1025
250 541.666992188 m 1
 375 541.666992188 l 1
 375 583.333007812 l 1
 250 583.333007812 l 1
 250 541.666992188 l 1025
250 500 m 1
 375 500 l 1
 375 541.666992188 l 1
 250 541.666992188 l 1
 250 500 l 1025
250 458.333007812 m 1
 375 458.333007812 l 1
 375 500 l 1
 250 500 l 1
 250 458.333007812 l 1025
250 416.666992188 m 1
 375 416.666992188 l 1
 375 458.333007812 l 1
 250 458.333007812 l 1
 250 416.666992188 l 1025
250 375 m 1
 375 375 l 1
 375 416.666992188 l 1
 250 416.666992188 l 1
 250 375 l 1025
250 333.333007812 m 1
 375 333.333007812 l 1
 375 375 l 1
 250 375 l 1
 250 333.333007812 l 1025
250 291.666992188 m 1
 375 291.666992188 l 1
 375 333.333007812 l 1
 250 333.333007812 l 1
 250 291.666992188 l 1025
250 250 m 1
 375 250 l 1
 375 291.666992188 l 1
 250 291.666992188 l 1
 250 250 l 1025
250 208.333007812 m 1
 375 208.333007812 l 1
 375 250 l 1
 250 250 l 1
 250 208.333007812 l 1025
250 166.666992188 m 1
 375 166.666992188 l 1
 375 208.333007812 l 1
 250 208.333007812 l 1
 250 166.666992188 l 1025
250 125 m 1
 375 125 l 1
 375 166.666992188 l 1
 250 166.666992188 l 1
 250 125 l 1025
250 83.3330078125 m 1
 375 83.3330078125 l 1
 375 125 l 1
 250 125 l 1
 250 83.3330078125 l 1025
250 41.6669921875 m 1
 375 41.6669921875 l 1
 375 83.3330078125 l 1
 250 83.3330078125 l 1
 250 41.6669921875 l 1025
250 0 m 1
 375 0 l 1
 375 41.6669921875 l 1
 250 41.6669921875 l 1
 250 0 l 1
EndSplineSet
EndChar

StartChar: U
Encoding: 85 85 54
Width: 916
VWidth: 0
Flags: HW
LayerCount: 2
Back
Fore
SplineSet
83.3330078125 708.333007812 m 1
 208.333007812 708.333007812 l 1
 208.333007812 750 l 1
 83.3330078125 750 l 1
 83.3330078125 708.333007812 l 1025
458.333007812 708.333007812 m 1
 541.666992188 708.333007812 l 1
 541.666992188 750 l 1
 458.333007812 750 l 1
 458.333007812 708.333007812 l 1025
83.3330078125 666.666992188 m 1
 208.333007812 666.666992188 l 1
 208.333007812 708.333007812 l 1
 83.3330078125 708.333007812 l 1
 83.3330078125 666.666992188 l 1025
458.333007812 666.666992188 m 1
 541.666992188 666.666992188 l 1
 541.666992188 708.333007812 l 1
 458.333007812 708.333007812 l 1
 458.333007812 666.666992188 l 1025
83.3330078125 625 m 1
 208.333007812 625 l 1
 208.333007812 666.666992188 l 1
 83.3330078125 666.666992188 l 1
 83.3330078125 625 l 1025
458.333007812 625 m 1
 541.666992188 625 l 1
 541.666992188 666.666992188 l 1
 458.333007812 666.666992188 l 1
 458.333007812 625 l 1025
83.3330078125 583.333007812 m 1
 208.333007812 583.333007812 l 1
 208.333007812 625 l 1
 83.3330078125 625 l 1
 83.3330078125 583.333007812 l 1025
458.333007812 583.333007812 m 1
 541.666992188 583.333007812 l 1
 541.666992188 625 l 1
 458.333007812 625 l 1
 458.333007812 583.333007812 l 1025
83.3330078125 541.666992188 m 1
 208.333007812 541.666992188 l 1
 208.333007812 583.333007812 l 1
 83.3330078125 583.333007812 l 1
 83.3330078125 541.666992188 l 1025
458.333007812 541.666992188 m 1
 541.666992188 541.666992188 l 1
 541.666992188 583.333007812 l 1
 458.333007812 583.333007812 l 1
 458.333007812 541.666992188 l 1025
83.3330078125 500 m 1
 208.333007812 500 l 1
 208.333007812 541.666992188 l 1
 83.3330078125 541.666992188 l 1
 83.3330078125 500 l 1025
458.333007812 500 m 1
 541.666992188 500 l 1
 541.666992188 541.666992188 l 1
 458.333007812 541.666992188 l 1
 458.333007812 500 l 1025
83.3330078125 458.333007812 m 1
 208.333007812 458.333007812 l 1
 208.333007812 500 l 1
 83.3330078125 500 l 1
 83.3330078125 458.333007812 l 1025
458.333007812 458.333007812 m 1
 541.666992188 458.333007812 l 1
 541.666992188 500 l 1
 458.333007812 500 l 1
 458.333007812 458.333007812 l 1025
83.3330078125 416.666992188 m 1
 208.333007812 416.666992188 l 1
 208.333007812 458.333007812 l 1
 83.3330078125 458.333007812 l 1
 83.3330078125 416.666992188 l 1025
458.333007812 416.666992188 m 1
 541.666992188 416.666992188 l 1
 541.666992188 458.333007812 l 1
 458.333007812 458.333007812 l 1
 458.333007812 416.666992188 l 1025
83.3330078125 375 m 1
 208.333007812 375 l 1
 208.333007812 416.666992188 l 1
 83.3330078125 416.666992188 l 1
 83.3330078125 375 l 1025
458.333007812 375 m 1
 541.666992188 375 l 1
 541.666992188 416.666992188 l 1
 458.333007812 416.666992188 l 1
 458.333007812 375 l 1025
83.3330078125 333.333007812 m 1
 208.333007812 333.333007812 l 1
 208.333007812 375 l 1
 83.3330078125 375 l 1
 83.3330078125 333.333007812 l 1025
458.333007812 333.333007812 m 1
 541.666992188 333.333007812 l 1
 541.666992188 375 l 1
 458.333007812 375 l 1
 458.333007812 333.333007812 l 1025
83.3330078125 291.666992188 m 1
 208.333007812 291.666992188 l 1
 208.333007812 333.333007812 l 1
 83.3330078125 333.333007812 l 1
 83.3330078125 291.666992188 l 1025
458.333007812 291.666992188 m 1
 541.666992188 291.666992188 l 1
 541.666992188 333.333007812 l 1
 458.333007812 333.333007812 l 1
 458.333007812 291.666992188 l 1025
83.3330078125 250 m 1
 208.333007812 250 l 1
 208.333007812 291.666992188 l 1
 83.3330078125 291.666992188 l 1
 83.3330078125 250 l 1025
458.333007812 250 m 1
 541.666992188 250 l 1
 541.666992188 291.666992188 l 1
 458.333007812 291.666992188 l 1
 458.333007812 250 l 1025
83.3330078125 208.333007812 m 1
 208.333007812 208.333007812 l 1
 208.333007812 250 l 1
 83.3330078125 250 l 1
 83.3330078125 208.333007812 l 1025
458.333007812 208.333007812 m 1
 541.666992188 208.333007812 l 1
 541.666992188 250 l 1
 458.333007812 250 l 1
 458.333007812 208.333007812 l 1025
83.3330078125 166.666992188 m 1
 208.333007812 166.666992188 l 1
 208.333007812 208.333007812 l 1
 83.3330078125 208.333007812 l 1
 83.3330078125 166.666992188 l 1025
458.333007812 166.666992188 m 1
 541.666992188 166.666992188 l 1
 541.666992188 208.333007812 l 1
 458.333007812 208.333007812 l 1
 458.333007812 166.666992188 l 1025
83.3330078125 125 m 1
 208.333007812 125 l 1
 208.333007812 166.666992188 l 1
 83.3330078125 166.666992188 l 1
 83.3330078125 125 l 1025
458.333007812 125 m 1
 541.666992188 125 l 1
 541.666992188 166.666992188 l 1
 458.333007812 166.666992188 l 1
 458.333007812 125 l 1025
125 83.3330078125 m 1
 250 83.3330078125 l 1
 250 125 l 1
 125 125 l 1
 125 83.3330078125 l 1025
416.666992188 83.3330078125 m 1
 500 83.3330078125 l 1
 500 125 l 1
 416.666992188 125 l 1
 416.666992188 83.3330078125 l 1025
125 41.6669921875 m 1
 500 41.6669921875 l 1
 500 83.3330078125 l 1
 125 83.3330078125 l 1
 125 41.6669921875 l 1025
208.333007812 0 m 1
 416.666992188 0 l 1
 416.666992188 41.6669921875 l 1
 208.333007812 41.6669921875 l 1
 208.333007812 0 l 1
EndSplineSet
EndChar

StartChar: V
Encoding: 86 86 55
Width: 916
VWidth: 0
Flags: HW
LayerCount: 2
Back
Fore
SplineSet
0 708.333007812 m 1
 125 708.333007812 l 1
 125 750 l 1
 0 750 l 1
 0 708.333007812 l 1025
541.666992188 708.333007812 m 1
 625 708.333007812 l 1
 625 750 l 1
 541.666992188 750 l 1
 541.666992188 708.333007812 l 1025
0 666.666992188 m 1
 125 666.666992188 l 1
 125 708.333007812 l 1
 0 708.333007812 l 1
 0 666.666992188 l 1025
500 666.666992188 m 1
 583.333007812 666.666992188 l 1
 583.333007812 708.333007812 l 1
 500 708.333007812 l 1
 500 666.666992188 l 1025
41.6669921875 625 m 1
 166.666992188 625 l 1
 166.666992188 666.666992188 l 1
 41.6669921875 666.666992188 l 1
 41.6669921875 625 l 1025
500 625 m 1
 583.333007812 625 l 1
 583.333007812 666.666992188 l 1
 500 666.666992188 l 1
 500 625 l 1025
41.6669921875 583.333007812 m 1
 166.666992188 583.333007812 l 1
 166.666992188 625 l 1
 41.6669921875 625 l 1
 41.6669921875 583.333007812 l 1025
500 583.333007812 m 1
 583.333007812 583.333007812 l 1
 583.333007812 625 l 1
 500 625 l 1
 500 583.333007812 l 1025
41.6669921875 541.666992188 m 1
 166.666992188 541.666992188 l 1
 166.666992188 583.333007812 l 1
 41.6669921875 583.333007812 l 1
 41.6669921875 541.666992188 l 1025
458.333007812 541.666992188 m 1
 541.666992188 541.666992188 l 1
 541.666992188 583.333007812 l 1
 458.333007812 583.333007812 l 1
 458.333007812 541.666992188 l 1025
83.3330078125 500 m 1
 208.333007812 500 l 1
 208.333007812 541.666992188 l 1
 83.3330078125 541.666992188 l 1
 83.3330078125 500 l 1025
458.333007812 500 m 1
 541.666992188 500 l 1
 541.666992188 541.666992188 l 1
 458.333007812 541.666992188 l 1
 458.333007812 500 l 1025
83.3330078125 458.333007812 m 1
 208.333007812 458.333007812 l 1
 208.333007812 500 l 1
 83.3330078125 500 l 1
 83.3330078125 458.333007812 l 1025
458.333007812 458.333007812 m 1
 541.666992188 458.333007812 l 1
 541.666992188 500 l 1
 458.333007812 500 l 1
 458.333007812 458.333007812 l 1025
83.3330078125 416.666992188 m 1
 208.333007812 416.666992188 l 1
 208.333007812 458.333007812 l 1
 83.3330078125 458.333007812 l 1
 83.3330078125 416.666992188 l 1025
416.666992188 416.666992188 m 1
 500 416.666992188 l 1
 500 458.333007812 l 1
 416.666992188 458.333007812 l 1
 416.666992188 416.666992188 l 1025
125 375 m 1
 250 375 l 1
 250 416.666992188 l 1
 125 416.666992188 l 1
 125 375 l 1025
416.666992188 375 m 1
 500 375 l 1
 500 416.666992188 l 1
 416.666992188 416.666992188 l 1
 416.666992188 375 l 1025
125 333.333007812 m 1
 250 333.333007812 l 1
 250 375 l 1
 125 375 l 1
 125 333.333007812 l 1025
416.666992188 333.333007812 m 1
 500 333.333007812 l 1
 500 375 l 1
 416.666992188 375 l 1
 416.666992188 333.333007812 l 1025
125 291.666992188 m 1
 250 291.666992188 l 1
 250 333.333007812 l 1
 125 333.333007812 l 1
 125 291.666992188 l 1025
375 291.666992188 m 1
 458.333007812 291.666992188 l 1
 458.333007812 333.333007812 l 1
 375 333.333007812 l 1
 375 291.666992188 l 1025
166.666992188 250 m 1
 291.666992188 250 l 1
 291.666992188 291.666992188 l 1
 166.666992188 291.666992188 l 1
 166.666992188 250 l 1025
375 250 m 1
 458.333007812 250 l 1
 458.333007812 291.666992188 l 1
 375 291.666992188 l 1
 375 250 l 1025
166.666992188 208.333007812 m 1
 291.666992188 208.333007812 l 1
 291.666992188 250 l 1
 166.666992188 250 l 1
 166.666992188 208.333007812 l 1025
333.333007812 208.333007812 m 1
 458.333007812 208.333007812 l 1
 458.333007812 250 l 1
 333.333007812 250 l 1
 333.333007812 208.333007812 l 1025
166.666992188 166.666992188 m 1
 416.666992188 166.666992188 l 1
 416.666992188 208.333007812 l 1
 166.666992188 208.333007812 l 1
 166.666992188 166.666992188 l 1025
208.333007812 125 m 1
 416.666992188 125 l 1
 416.666992188 166.666992188 l 1
 208.333007812 166.666992188 l 1
 208.333007812 125 l 1025
208.333007812 83.3330078125 m 1
 416.666992188 83.3330078125 l 1
 416.666992188 125 l 1
 208.333007812 125 l 1
 208.333007812 83.3330078125 l 1025
208.333007812 41.6669921875 m 1
 375 41.6669921875 l 1
 375 83.3330078125 l 1
 208.333007812 83.3330078125 l 1
 208.333007812 41.6669921875 l 1025
250 0 m 1
 375 0 l 1
 375 41.6669921875 l 1
 250 41.6669921875 l 1
 250 0 l 1
EndSplineSet
EndChar

StartChar: W
Encoding: 87 87 56
Width: 916
VWidth: 0
Flags: HW
LayerCount: 2
Back
Fore
SplineSet
0 708.333007812 m 1
 83.3330078125 708.333007812 l 1
 83.3330078125 750 l 1
 0 750 l 1
 0 708.333007812 l 1025
541.666992188 708.333007812 m 1
 625 708.333007812 l 1
 625 750 l 1
 541.666992188 750 l 1
 541.666992188 708.333007812 l 1025
0 666.666992188 m 1
 83.3330078125 666.666992188 l 1
 83.3330078125 708.333007812 l 1
 0 708.333007812 l 1
 0 666.666992188 l 1025
250 666.666992188 m 1
 375 666.666992188 l 1
 375 708.333007812 l 1
 250 708.333007812 l 1
 250 666.666992188 l 1025
541.666992188 666.666992188 m 1
 625 666.666992188 l 1
 625 708.333007812 l 1
 541.666992188 708.333007812 l 1
 541.666992188 666.666992188 l 1025
0 625 m 1
 83.3330078125 625 l 1
 83.3330078125 666.666992188 l 1
 0 666.666992188 l 1
 0 625 l 1025
250 625 m 1
 375 625 l 1
 375 666.666992188 l 1
 250 666.666992188 l 1
 250 625 l 1025
541.666992188 625 m 1
 625 625 l 1
 625 666.666992188 l 1
 541.666992188 666.666992188 l 1
 541.666992188 625 l 1025
0 583.333007812 m 1
 83.3330078125 583.333007812 l 1
 83.3330078125 625 l 1
 0 625 l 1
 0 583.333007812 l 1025
250 583.333007812 m 1
 375 583.333007812 l 1
 375 625 l 1
 250 625 l 1
 250 583.333007812 l 1025
541.666992188 583.333007812 m 1
 583.333007812 583.333007812 l 1
 583.333007812 625 l 1
 541.666992188 625 l 1
 541.666992188 583.333007812 l 1025
0 541.666992188 m 1
 125 541.666992188 l 1
 125 583.333007812 l 1
 0 583.333007812 l 1
 0 541.666992188 l 1025
208.333007812 541.666992188 m 1
 375 541.666992188 l 1
 375 583.333007812 l 1
 208.333007812 583.333007812 l 1
 208.333007812 541.666992188 l 1025
500 541.666992188 m 1
 583.333007812 541.666992188 l 1
 583.333007812 583.333007812 l 1
 500 583.333007812 l 1
 500 541.666992188 l 1025
41.6669921875 500 m 1
 125 500 l 1
 125 541.666992188 l 1
 41.6669921875 541.666992188 l 1
 41.6669921875 500 l 1025
208.333007812 500 m 1
 416.666992188 500 l 1
 416.666992188 541.666992188 l 1
 208.333007812 541.666992188 l 1
 208.333007812 500 l 1025
500 500 m 1
 583.333007812 500 l 1
 583.333007812 541.666992188 l 1
 500 541.666992188 l 1
 500 500 l 1025
41.6669921875 458.333007812 m 1
 125 458.333007812 l 1
 125 500 l 1
 41.6669921875 500 l 1
 41.6669921875 458.333007812 l 1025
208.333007812 458.333007812 m 1
 416.666992188 458.333007812 l 1
 416.666992188 500 l 1
 208.333007812 500 l 1
 208.333007812 458.333007812 l 1025
500 458.333007812 m 1
 583.333007812 458.333007812 l 1
 583.333007812 500 l 1
 500 500 l 1
 500 458.333007812 l 1025
41.6669921875 416.666992188 m 1
 125 416.666992188 l 1
 125 458.333007812 l 1
 41.6669921875 458.333007812 l 1
 41.6669921875 416.666992188 l 1025
208.333007812 416.666992188 m 1
 291.666992188 416.666992188 l 1
 291.666992188 458.333007812 l 1
 208.333007812 458.333007812 l 1
 208.333007812 416.666992188 l 1025
333.333007812 416.666992188 m 1
 416.666992188 416.666992188 l 1
 416.666992188 458.333007812 l 1
 333.333007812 458.333007812 l 1
 333.333007812 416.666992188 l 1025
500 416.666992188 m 1
 583.333007812 416.666992188 l 1
 583.333007812 458.333007812 l 1
 500 458.333007812 l 1
 500 416.666992188 l 1025
41.6669921875 375 m 1
 125 375 l 1
 125 416.666992188 l 1
 41.6669921875 416.666992188 l 1
 41.6669921875 375 l 1025
208.333007812 375 m 1
 291.666992188 375 l 1
 291.666992188 416.666992188 l 1
 208.333007812 416.666992188 l 1
 208.333007812 375 l 1025
333.333007812 375 m 1
 416.666992188 375 l 1
 416.666992188 416.666992188 l 1
 333.333007812 416.666992188 l 1
 333.333007812 375 l 1025
500 375 m 1
 583.333007812 375 l 1
 583.333007812 416.666992188 l 1
 500 416.666992188 l 1
 500 375 l 1025
41.6669921875 333.333007812 m 1
 125 333.333007812 l 1
 125 375 l 1
 41.6669921875 375 l 1
 41.6669921875 333.333007812 l 1025
208.333007812 333.333007812 m 1
 250 333.333007812 l 1
 250 375 l 1
 208.333007812 375 l 1
 208.333007812 333.333007812 l 1025
333.333007812 333.333007812 m 1
 416.666992188 333.333007812 l 1
 416.666992188 375 l 1
 333.333007812 375 l 1
 333.333007812 333.333007812 l 1025
500 333.333007812 m 1
 541.666992188 333.333007812 l 1
 541.666992188 375 l 1
 500 375 l 1
 500 333.333007812 l 1025
41.6669921875 291.666992188 m 1
 125 291.666992188 l 1
 125 333.333007812 l 1
 41.6669921875 333.333007812 l 1
 41.6669921875 291.666992188 l 1025
166.666992188 291.666992188 m 1
 250 291.666992188 l 1
 250 333.333007812 l 1
 166.666992188 333.333007812 l 1
 166.666992188 291.666992188 l 1025
333.333007812 291.666992188 m 1
 416.666992188 291.666992188 l 1
 416.666992188 333.333007812 l 1
 333.333007812 333.333007812 l 1
 333.333007812 291.666992188 l 1025
500 291.666992188 m 1
 541.666992188 291.666992188 l 1
 541.666992188 333.333007812 l 1
 500 333.333007812 l 1
 500 291.666992188 l 1025
41.6669921875 250 m 1
 125 250 l 1
 125 291.666992188 l 1
 41.6669921875 291.666992188 l 1
 41.6669921875 250 l 1025
166.666992188 250 m 1
 250 250 l 1
 250 291.666992188 l 1
 166.666992188 291.666992188 l 1
 166.666992188 250 l 1025
333.333007812 250 m 1
 416.666992188 250 l 1
 416.666992188 291.666992188 l 1
 333.333007812 291.666992188 l 1
 333.333007812 250 l 1025
458.333007812 250 m 1
 541.666992188 250 l 1
 541.666992188 291.666992188 l 1
 458.333007812 291.666992188 l 1
 458.333007812 250 l 1025
41.6669921875 208.333007812 m 1
 125 208.333007812 l 1
 125 250 l 1
 41.6669921875 250 l 1
 41.6669921875 208.333007812 l 1025
166.666992188 208.333007812 m 1
 250 208.333007812 l 1
 250 250 l 1
 166.666992188 250 l 1
 166.666992188 208.333007812 l 1025
333.333007812 208.333007812 m 1
 541.666992188 208.333007812 l 1
 541.666992188 250 l 1
 333.333007812 250 l 1
 333.333007812 208.333007812 l 1025
41.6669921875 166.666992188 m 1
 250 166.666992188 l 1
 250 208.333007812 l 1
 41.6669921875 208.333007812 l 1
 41.6669921875 166.666992188 l 1025
333.333007812 166.666992188 m 1
 541.666992188 166.666992188 l 1
 541.666992188 208.333007812 l 1
 333.333007812 208.333007812 l 1
 333.333007812 166.666992188 l 1025
83.3330078125 125 m 1
 250 125 l 1
 250 166.666992188 l 1
 83.3330078125 166.666992188 l 1
 83.3330078125 125 l 1025
375 125 m 1
 541.666992188 125 l 1
 541.666992188 166.666992188 l 1
 375 166.666992188 l 1
 375 125 l 1025
83.3330078125 83.3330078125 m 1
 208.333007812 83.3330078125 l 1
 208.333007812 125 l 1
 83.3330078125 125 l 1
 83.3330078125 83.3330078125 l 1025
375 83.3330078125 m 1
 500 83.3330078125 l 1
 500 125 l 1
 375 125 l 1
 375 83.3330078125 l 1025
83.3330078125 41.6669921875 m 1
 208.333007812 41.6669921875 l 1
 208.333007812 83.3330078125 l 1
 83.3330078125 83.3330078125 l 1
 83.3330078125 41.6669921875 l 1025
375 41.6669921875 m 1
 500 41.6669921875 l 1
 500 83.3330078125 l 1
 375 83.3330078125 l 1
 375 41.6669921875 l 1025
83.3330078125 0 m 1
 208.333007812 0 l 1
 208.333007812 41.6669921875 l 1
 83.3330078125 41.6669921875 l 1
 83.3330078125 0 l 1025
375 0 m 1
 500 0 l 1
 500 41.6669921875 l 1
 375 41.6669921875 l 1
 375 0 l 1
EndSplineSet
EndChar

StartChar: X
Encoding: 88 88 57
Width: 916
VWidth: 0
Flags: HW
LayerCount: 2
Back
Fore
SplineSet
0 708.333007812 m 1
 166.666992188 708.333007812 l 1
 166.666992188 750 l 1
 0 750 l 1
 0 708.333007812 l 1025
500 708.333007812 m 1
 625 708.333007812 l 1
 625 750 l 1
 500 750 l 1
 500 708.333007812 l 1025
41.6669921875 666.666992188 m 1
 208.333007812 666.666992188 l 1
 208.333007812 708.333007812 l 1
 41.6669921875 708.333007812 l 1
 41.6669921875 666.666992188 l 1025
458.333007812 666.666992188 m 1
 583.333007812 666.666992188 l 1
 583.333007812 708.333007812 l 1
 458.333007812 708.333007812 l 1
 458.333007812 666.666992188 l 1025
83.3330078125 625 m 1
 208.333007812 625 l 1
 208.333007812 666.666992188 l 1
 83.3330078125 666.666992188 l 1
 83.3330078125 625 l 1025
458.333007812 625 m 1
 541.666992188 625 l 1
 541.666992188 666.666992188 l 1
 458.333007812 666.666992188 l 1
 458.333007812 625 l 1025
83.3330078125 583.333007812 m 1
 250 583.333007812 l 1
 250 625 l 1
 83.3330078125 625 l 1
 83.3330078125 583.333007812 l 1025
416.666992188 583.333007812 m 1
 500 583.333007812 l 1
 500 625 l 1
 416.666992188 625 l 1
 416.666992188 583.333007812 l 1025
125 541.666992188 m 1
 291.666992188 541.666992188 l 1
 291.666992188 583.333007812 l 1
 125 583.333007812 l 1
 125 541.666992188 l 1025
375 541.666992188 m 1
 500 541.666992188 l 1
 500 583.333007812 l 1
 375 583.333007812 l 1
 375 541.666992188 l 1025
166.666992188 500 m 1
 291.666992188 500 l 1
 291.666992188 541.666992188 l 1
 166.666992188 541.666992188 l 1
 166.666992188 500 l 1025
375 500 m 1
 458.333007812 500 l 1
 458.333007812 541.666992188 l 1
 375 541.666992188 l 1
 375 500 l 1025
166.666992188 458.333007812 m 1
 416.666992188 458.333007812 l 1
 416.666992188 500 l 1
 166.666992188 500 l 1
 166.666992188 458.333007812 l 1025
208.333007812 416.666992188 m 1
 416.666992188 416.666992188 l 1
 416.666992188 458.333007812 l 1
 208.333007812 458.333007812 l 1
 208.333007812 416.666992188 l 1025
250 375 m 1
 375 375 l 1
 375 416.666992188 l 1
 250 416.666992188 l 1
 250 375 l 1025
250 333.333007812 m 1
 416.666992188 333.333007812 l 1
 416.666992188 375 l 1
 250 375 l 1
 250 333.333007812 l 1025
208.333007812 291.666992188 m 1
 458.333007812 291.666992188 l 1
 458.333007812 333.333007812 l 1
 208.333007812 333.333007812 l 1
 208.333007812 291.666992188 l 1025
166.666992188 250 m 1
 291.666992188 250 l 1
 291.666992188 291.666992188 l 1
 166.666992188 291.666992188 l 1
 166.666992188 250 l 1025
333.333007812 250 m 1
 458.333007812 250 l 1
 458.333007812 291.666992188 l 1
 333.333007812 291.666992188 l 1
 333.333007812 250 l 1025
166.666992188 208.333007812 m 1
 250 208.333007812 l 1
 250 250 l 1
 166.666992188 250 l 1
 166.666992188 208.333007812 l 1025
333.333007812 208.333007812 m 1
 500 208.333007812 l 1
 500 250 l 1
 333.333007812 250 l 1
 333.333007812 208.333007812 l 1025
125 166.666992188 m 1
 208.333007812 166.666992188 l 1
 208.333007812 208.333007812 l 1
 125 208.333007812 l 1
 125 166.666992188 l 1025
375 166.666992188 m 1
 500 166.666992188 l 1
 500 208.333007812 l 1
 375 208.333007812 l 1
 375 166.666992188 l 1025
83.3330078125 125 m 1
 208.333007812 125 l 1
 208.333007812 166.666992188 l 1
 83.3330078125 166.666992188 l 1
 83.3330078125 125 l 1025
416.666992188 125 m 1
 541.666992188 125 l 1
 541.666992188 166.666992188 l 1
 416.666992188 166.666992188 l 1
 416.666992188 125 l 1025
83.3330078125 83.3330078125 m 1
 166.666992188 83.3330078125 l 1
 166.666992188 125 l 1
 83.3330078125 125 l 1
 83.3330078125 83.3330078125 l 1025
416.666992188 83.3330078125 m 1
 583.333007812 83.3330078125 l 1
 583.333007812 125 l 1
 416.666992188 125 l 1
 416.666992188 83.3330078125 l 1025
41.6669921875 41.6669921875 m 1
 125 41.6669921875 l 1
 125 83.3330078125 l 1
 41.6669921875 83.3330078125 l 1
 41.6669921875 41.6669921875 l 1025
458.333007812 41.6669921875 m 1
 583.333007812 41.6669921875 l 1
 583.333007812 83.3330078125 l 1
 458.333007812 83.3330078125 l 1
 458.333007812 41.6669921875 l 1025
0 0 m 1
 125 0 l 1
 125 41.6669921875 l 1
 0 41.6669921875 l 1
 0 0 l 1025
458.333007812 0 m 1
 625 0 l 1
 625 41.6669921875 l 1
 458.333007812 41.6669921875 l 1
 458.333007812 0 l 1
EndSplineSet
EndChar

StartChar: Y
Encoding: 89 89 58
Width: 916
VWidth: 0
Flags: HW
LayerCount: 2
Back
Fore
SplineSet
0 708.333007812 m 1
 125 708.333007812 l 1
 125 750 l 1
 0 750 l 1
 0 708.333007812 l 1025
500 708.333007812 m 1
 625 708.333007812 l 1
 625 750 l 1
 500 750 l 1
 500 708.333007812 l 1025
41.6669921875 666.666992188 m 1
 166.666992188 666.666992188 l 1
 166.666992188 708.333007812 l 1
 41.6669921875 708.333007812 l 1
 41.6669921875 666.666992188 l 1025
500 666.666992188 m 1
 583.333007812 666.666992188 l 1
 583.333007812 708.333007812 l 1
 500 708.333007812 l 1
 500 666.666992188 l 1025
41.6669921875 625 m 1
 208.333007812 625 l 1
 208.333007812 666.666992188 l 1
 41.6669921875 666.666992188 l 1
 41.6669921875 625 l 1025
458.333007812 625 m 1
 541.666992188 625 l 1
 541.666992188 666.666992188 l 1
 458.333007812 666.666992188 l 1
 458.333007812 625 l 1025
83.3330078125 583.333007812 m 1
 208.333007812 583.333007812 l 1
 208.333007812 625 l 1
 83.3330078125 625 l 1
 83.3330078125 583.333007812 l 1025
458.333007812 583.333007812 m 1
 541.666992188 583.333007812 l 1
 541.666992188 625 l 1
 458.333007812 625 l 1
 458.333007812 583.333007812 l 1025
83.3330078125 541.666992188 m 1
 250 541.666992188 l 1
 250 583.333007812 l 1
 83.3330078125 583.333007812 l 1
 83.3330078125 541.666992188 l 1025
416.666992188 541.666992188 m 1
 500 541.666992188 l 1
 500 583.333007812 l 1
 416.666992188 583.333007812 l 1
 416.666992188 541.666992188 l 1025
125 500 m 1
 250 500 l 1
 250 541.666992188 l 1
 125 541.666992188 l 1
 125 500 l 1025
375 500 m 1
 500 500 l 1
 500 541.666992188 l 1
 375 541.666992188 l 1
 375 500 l 1025
125 458.333007812 m 1
 291.666992188 458.333007812 l 1
 291.666992188 500 l 1
 125 500 l 1
 125 458.333007812 l 1025
375 458.333007812 m 1
 458.333007812 458.333007812 l 1
 458.333007812 500 l 1
 375 500 l 1
 375 458.333007812 l 1025
166.666992188 416.666992188 m 1
 458.333007812 416.666992188 l 1
 458.333007812 458.333007812 l 1
 166.666992188 458.333007812 l 1
 166.666992188 416.666992188 l 1025
208.333007812 375 m 1
 416.666992188 375 l 1
 416.666992188 416.666992188 l 1
 208.333007812 416.666992188 l 1
 208.333007812 375 l 1025
208.333007812 333.333007812 m 1
 375 333.333007812 l 1
 375 375 l 1
 208.333007812 375 l 1
 208.333007812 333.333007812 l 1025
250 291.666992188 m 1
 375 291.666992188 l 1
 375 333.333007812 l 1
 250 333.333007812 l 1
 250 291.666992188 l 1025
250 250 m 1
 375 250 l 1
 375 291.666992188 l 1
 250 291.666992188 l 1
 250 250 l 1025
250 208.333007812 m 1
 375 208.333007812 l 1
 375 250 l 1
 250 250 l 1
 250 208.333007812 l 1025
250 166.666992188 m 1
 375 166.666992188 l 1
 375 208.333007812 l 1
 250 208.333007812 l 1
 250 166.666992188 l 1025
250 125 m 1
 375 125 l 1
 375 166.666992188 l 1
 250 166.666992188 l 1
 250 125 l 1025
250 83.3330078125 m 1
 375 83.3330078125 l 1
 375 125 l 1
 250 125 l 1
 250 83.3330078125 l 1025
250 41.6669921875 m 1
 375 41.6669921875 l 1
 375 83.3330078125 l 1
 250 83.3330078125 l 1
 250 41.6669921875 l 1025
250 0 m 1
 375 0 l 1
 375 41.6669921875 l 1
 250 41.6669921875 l 1
 250 0 l 1
EndSplineSet
EndChar

StartChar: Z
Encoding: 90 90 59
Width: 916
VWidth: 0
Flags: HW
LayerCount: 2
Back
Fore
SplineSet
83.3330078125 708.333007812 m 1
 583.333007812 708.333007812 l 1
 583.333007812 750 l 1
 83.3330078125 750 l 1
 83.3330078125 708.333007812 l 1025
83.3330078125 666.666992188 m 1
 583.333007812 666.666992188 l 1
 583.333007812 708.333007812 l 1
 83.3330078125 708.333007812 l 1
 83.3330078125 666.666992188 l 1025
416.666992188 625 m 1
 583.333007812 625 l 1
 583.333007812 666.666992188 l 1
 416.666992188 666.666992188 l 1
 416.666992188 625 l 1025
375 583.333007812 m 1
 541.666992188 583.333007812 l 1
 541.666992188 625 l 1
 375 625 l 1
 375 583.333007812 l 1025
375 541.666992188 m 1
 500 541.666992188 l 1
 500 583.333007812 l 1
 375 583.333007812 l 1
 375 541.666992188 l 1025
333.333007812 500 m 1
 500 500 l 1
 500 541.666992188 l 1
 333.333007812 541.666992188 l 1
 333.333007812 500 l 1025
291.666992188 458.333007812 m 1
 458.333007812 458.333007812 l 1
 458.333007812 500 l 1
 291.666992188 500 l 1
 291.666992188 458.333007812 l 1025
291.666992188 416.666992188 m 1
 416.666992188 416.666992188 l 1
 416.666992188 458.333007812 l 1
 291.666992188 458.333007812 l 1
 291.666992188 416.666992188 l 1025
250 375 m 1
 416.666992188 375 l 1
 416.666992188 416.666992188 l 1
 250 416.666992188 l 1
 250 375 l 1025
208.333007812 333.333007812 m 1
 375 333.333007812 l 1
 375 375 l 1
 208.333007812 375 l 1
 208.333007812 333.333007812 l 1025
208.333007812 291.666992188 m 1
 333.333007812 291.666992188 l 1
 333.333007812 333.333007812 l 1
 208.333007812 333.333007812 l 1
 208.333007812 291.666992188 l 1025
166.666992188 250 m 1
 333.333007812 250 l 1
 333.333007812 291.666992188 l 1
 166.666992188 291.666992188 l 1
 166.666992188 250 l 1025
125 208.333007812 m 1
 291.666992188 208.333007812 l 1
 291.666992188 250 l 1
 125 250 l 1
 125 208.333007812 l 1025
83.3330078125 166.666992188 m 1
 250 166.666992188 l 1
 250 208.333007812 l 1
 83.3330078125 208.333007812 l 1
 83.3330078125 166.666992188 l 1025
83.3330078125 125 m 1
 208.333007812 125 l 1
 208.333007812 166.666992188 l 1
 83.3330078125 166.666992188 l 1
 83.3330078125 125 l 1025
41.6669921875 83.3330078125 m 1
 208.333007812 83.3330078125 l 1
 208.333007812 125 l 1
 41.6669921875 125 l 1
 41.6669921875 83.3330078125 l 1025
41.6669921875 41.6669921875 m 1
 583.333007812 41.6669921875 l 1
 583.333007812 83.3330078125 l 1
 41.6669921875 83.3330078125 l 1
 41.6669921875 41.6669921875 l 1025
41.6669921875 0 m 1
 583.333007812 0 l 1
 583.333007812 41.6669921875 l 1
 41.6669921875 41.6669921875 l 1
 41.6669921875 0 l 1
EndSplineSet
EndChar

StartChar: bracketleft
Encoding: 91 91 60
Width: 916
VWidth: 0
Flags: HW
LayerCount: 2
Back
Fore
SplineSet
250 708.333007812 m 1
 541.666992188 708.333007812 l 1
 541.666992188 750 l 1
 250 750 l 1
 250 708.333007812 l 1025
250 666.666992188 m 1
 541.666992188 666.666992188 l 1
 541.666992188 708.333007812 l 1
 250 708.333007812 l 1
 250 666.666992188 l 1025
250 625 m 1
 333.333007812 625 l 1
 333.333007812 666.666992188 l 1
 250 666.666992188 l 1
 250 625 l 1025
250 583.333007812 m 1
 333.333007812 583.333007812 l 1
 333.333007812 625 l 1
 250 625 l 1
 250 583.333007812 l 1025
250 541.666992188 m 1
 333.333007812 541.666992188 l 1
 333.333007812 583.333007812 l 1
 250 583.333007812 l 1
 250 541.666992188 l 1025
250 500 m 1
 333.333007812 500 l 1
 333.333007812 541.666992188 l 1
 250 541.666992188 l 1
 250 500 l 1025
250 458.333007812 m 1
 333.333007812 458.333007812 l 1
 333.333007812 500 l 1
 250 500 l 1
 250 458.333007812 l 1025
250 416.666992188 m 1
 333.333007812 416.666992188 l 1
 333.333007812 458.333007812 l 1
 250 458.333007812 l 1
 250 416.666992188 l 1025
250 375 m 1
 333.333007812 375 l 1
 333.333007812 416.666992188 l 1
 250 416.666992188 l 1
 250 375 l 1025
250 333.333007812 m 1
 333.333007812 333.333007812 l 1
 333.333007812 375 l 1
 250 375 l 1
 250 333.333007812 l 1025
250 291.666992188 m 1
 333.333007812 291.666992188 l 1
 333.333007812 333.333007812 l 1
 250 333.333007812 l 1
 250 291.666992188 l 1025
250 250 m 1
 333.333007812 250 l 1
 333.333007812 291.666992188 l 1
 250 291.666992188 l 1
 250 250 l 1025
250 208.333007812 m 1
 333.333007812 208.333007812 l 1
 333.333007812 250 l 1
 250 250 l 1
 250 208.333007812 l 1025
250 166.666992188 m 1
 333.333007812 166.666992188 l 1
 333.333007812 208.333007812 l 1
 250 208.333007812 l 1
 250 166.666992188 l 1025
250 125 m 1
 333.333007812 125 l 1
 333.333007812 166.666992188 l 1
 250 166.666992188 l 1
 250 125 l 1025
250 83.3330078125 m 1
 333.333007812 83.3330078125 l 1
 333.333007812 125 l 1
 250 125 l 1
 250 83.3330078125 l 1025
250 41.6669921875 m 1
 333.333007812 41.6669921875 l 1
 333.333007812 83.3330078125 l 1
 250 83.3330078125 l 1
 250 41.6669921875 l 1025
250 0 m 1
 333.333007812 0 l 1
 333.333007812 41.6669921875 l 1
 250 41.6669921875 l 1
 250 0 l 1025
250 -41.6669921875 m 1
 333.333007812 -41.6669921875 l 1
 333.333007812 0 l 1
 250 0 l 1
 250 -41.6669921875 l 1025
250 -83.3330078125 m 1
 333.333007812 -83.3330078125 l 1
 333.333007812 -41.6669921875 l 1
 250 -41.6669921875 l 1
 250 -83.3330078125 l 1025
250 -125 m 1
 541.666992188 -125 l 1
 541.666992188 -83.3330078125 l 1
 250 -83.3330078125 l 1
 250 -125 l 1025
250 -166.666992188 m 1
 541.666992188 -166.666992188 l 1
 541.666992188 -125 l 1
 250 -125 l 1
 250 -166.666992188 l 1
EndSplineSet
EndChar

